<svg xmlns="http://www.w3.org/2000/svg" width="290.473" height="779.553" viewBox="0 0 290.473 779.553">
  <g id="deals-graphics" transform="translate(-16.527 -165.857)">
    <g id="Group_707" data-name="Group 707" transform="translate(16.527 165.857)">
      <path id="Path_2856" data-name="Path 2856" d="M65.75,192.61l9.344,9.344h21.12c3.122-3.122,6.243-6.222,9.344-9.344Z" transform="translate(56.945 32.801)" fill="#14142b"/>
      <g id="Group_697" data-name="Group 697">
        <path id="Path_2857" data-name="Path 2857" d="M108.842,282.916c-.129-.818-.28-1.615-.366-2.39l3.036-.344v.065c2-1.981,3.983-3.983,5.985-5.964a2.41,2.41,0,0,0,1.486-.538H99.132L89.789,264.4a2.582,2.582,0,0,1-2.562-2.562V233.528c-4.758,0-4.672-2.67-5.619-6.287s-1.615-9.516-3.488-14.317c-1.852-4.8-4.909-8.526-7.966-12.25h0A52.528,52.528,0,0,1,57,165.8,53.062,53.062,0,0,1,70.692,130.36a52.752,52.752,0,0,0-12.638,80.2h0c3.036,3.725,6.114,7.449,7.966,12.25,1.873,4.8,2.54,10.7,3.488,14.317s.861,6.287,5.619,6.287v28.311a2.582,2.582,0,0,0,2.562,2.562l9.344,9.344h21.12l.689-.689Z" transform="translate(32.907 -38.968)" fill="#ee4437"/>
        <path id="Path_2858" data-name="Path 2858" d="M69.494,158,8.782,157.61l-.022,4.672,60.713.388Z" transform="translate(-8.76 -7.551)" fill="#ee4437"/>
        <path id="Path_2859" data-name="Path 2859" d="M68.9,153.189,16.5,122.51l-2.368,4.048,52.4,30.658Z" transform="translate(-2.569 -48.019)" fill="#ee4437"/>
        <path id="Path_2860" data-name="Path 2860" d="M37.73,101.964l30.033,52.768,4.069-2.3L41.8,99.66Z" transform="translate(24.64 -74.363)" fill="#ee4437"/>
        <path id="Path_2861" data-name="Path 2861" d="M73.149,153.212,72.762,92.5l-4.672.043.388,60.713Z" transform="translate(59.643 -82.618)" fill="#ee4437"/>
        <path id="Path_2862" data-name="Path 2862" d="M162.453,157.62l-60.713.366.022,4.693,60.713-.388Z" transform="translate(98.439 -7.54)" fill="#ee4437"/>
        <path id="Path_2863" data-name="Path 2863" d="M85.13,152.428l4.069,2.325,30.055-52.768-4.069-2.325Z" transform="translate(79.289 -74.363)" fill="#ee4437"/>
        <path id="Path_2864" data-name="Path 2864" d="M112.467,144.366,99.14,152.16l2.368,4.026,52.381-30.679-1.206-2.067L113.608,146.3Z" transform="translate(95.441 -46.947)" fill="#ee4437"/>
        <path id="Path_2865" data-name="Path 2865" d="M68.115,152.473a3.432,3.432,0,0,0,5.425,1.206c1.486-1.313,2.067-3.832,1.981-5.748a7.163,7.163,0,0,0-.818-3.122,6.38,6.38,0,0,0-1.787-2.088l-.258.194a12.457,12.457,0,0,0-4.177,5.145,6.4,6.4,0,0,0-.388,4.414Z" transform="translate(59.36 -24.718)" fill="#ffb224"/>
        <path id="Path_2866" data-name="Path 2866" d="M105.7,143.577a9.258,9.258,0,0,0-3.552.71c.043.065.065.086.108.151a12.493,12.493,0,0,1,2.5,6.868,8.036,8.036,0,0,1-1.765,5.3A4.534,4.534,0,0,1,98.9,158.5a2.342,2.342,0,0,1-.517-.151c-1.636-.56-2.562-2.411-2.993-3.983a9.648,9.648,0,0,1,3.746-10.571A10.7,10.7,0,0,0,95,141.424c-4.284-1.292-10.076,0-14.231,2.325a7.914,7.914,0,0,1,1.765,2.261c1.765,3.294,1.292,8.655-1.593,11.2a5.339,5.339,0,0,1-8.439-1.959,8,8,0,0,1,.388-5.813,14.75,14.75,0,0,1,4.457-5.684,9.391,9.391,0,0,0-5.555-.689c-3.4.624-6.674,3.488-9.322,5.964l19.4,72.317H96.529l19.635-73.221c-3.122-2.067-7.019-4.457-10.485-4.521Z" transform="translate(53.164 -26.802)" fill="#ffb224"/>
        <path id="Path_2867" data-name="Path 2867" d="M78.759,151.555c.258.9.861,2.368,1.808,2.713a.684.684,0,0,0,.194.065,2.763,2.763,0,0,0,2.3-1.206,6.336,6.336,0,0,0,1.335-4.069,10.848,10.848,0,0,0-2.11-5.791c-.086-.108-.194-.237-.28-.366a8.079,8.079,0,0,0-3.057,3.832,8.264,8.264,0,0,0-.172,4.844Z" transform="translate(71.645 -24.511)" fill="#ffb224"/>
        <path id="Path_2868" data-name="Path 2868" d="M63.7,209.876h0c3.057,3.725,6.114,7.449,7.966,12.25,1.873,4.8,2.54,10.7,3.488,14.317s.861,6.287,5.619,6.287H92.008c-6.588-24.543-12.552-46.869-19.14-71.391,3.272-3.531,7.578-7.858,12.422-8.762a11.413,11.413,0,0,1,7.664,1.335c4.629-2.863,11.367-4.435,16.448-2.906a12.582,12.582,0,0,1,5.253,3.186,10.745,10.745,0,0,1,4.887-1.1c4.629.086,10.226,3.832,14.08,6.588-6.588,24.543-13,48.505-19.57,73.07H125.7v.065c4.736-.667,4.672-2.734,5.619-6.33.947-3.617,1.615-9.516,3.488-14.317,1.852-4.8,4.909-8.526,7.966-12.25h0A52.718,52.718,0,1,0,50.5,175.064a52.1,52.1,0,0,0,13.154,34.877Z" transform="translate(39.363 -48.192)" fill="#ffb224"/>
        <rect id="Rectangle_694" data-name="Rectangle 694" width="44.932" height="3.94" transform="translate(120.133 198.457)" fill="#ee4437"/>
        <rect id="Rectangle_695" data-name="Rectangle 695" width="44.932" height="3.918" transform="translate(120.133 206.293)" fill="#ee4437"/>
        <path id="Path_2869" data-name="Path 2869" d="M64.56,191.881a2.582,2.582,0,0,0,2.562,2.562H106.93a2.582,2.582,0,0,0,2.562-2.562v-.861H64.56Z" transform="translate(55.573 30.968)" fill="#ee4437"/>
        <rect id="Rectangle_696" data-name="Rectangle 696" width="44.932" height="3.94" transform="translate(120.133 214.13)" fill="#ee4437"/>
        <path id="Path_2870" data-name="Path 2870" d="M109.427,178.27H64.56v3.918h44.932V178.27Z" transform="translate(55.573 16.268)" fill="#14142b"/>
        <path id="Path_2871" data-name="Path 2871" d="M64.56,185.817h44.932v-3.9H64.56Z" transform="translate(55.573 20.477)" fill="#14142b"/>
        <path id="Path_2872" data-name="Path 2872" d="M64.56,189.468h44.932V185.55H64.56Z" transform="translate(55.573 24.662)" fill="#14142b"/>
        <path id="Path_2873" data-name="Path 2873" d="M64.56,193.118h44.932V189.2H64.56Z" transform="translate(55.573 28.87)" fill="#14142b"/>
        <path id="Path_2874" data-name="Path 2874" d="M64.323,150.054c2.648-2.454,5.921-5.339,9.322-5.964a9.562,9.562,0,0,1,5.555.689,14.593,14.593,0,0,0-4.457,5.684,8.1,8.1,0,0,0-.388,5.813,5.336,5.336,0,0,0,8.439,1.959c2.885-2.54,3.337-7.9,1.593-11.2a8.221,8.221,0,0,0-1.765-2.261c4.155-2.325,9.925-3.617,14.231-2.325a10.863,10.863,0,0,1,4.134,2.368,9.551,9.551,0,0,0-3.531,4.586,10.143,10.143,0,0,0-.215,5.985c.409,1.572,1.356,3.423,2.993,3.983a2.346,2.346,0,0,0,.517.151,4.487,4.487,0,0,0,4.091-1.895,8.153,8.153,0,0,0,1.765-5.3,12.493,12.493,0,0,0-2.5-6.868c-.043-.065-.065-.086-.108-.151a8.873,8.873,0,0,1,3.552-.71c3.466.065,7.363,2.454,10.485,4.521L98.4,222.349h3.682c6.566-24.543,12.982-48.505,19.57-73.07-3.832-2.734-9.43-6.48-14.08-6.588a10.745,10.745,0,0,0-4.887,1.1,12.948,12.948,0,0,0-5.253-3.186c-5.059-1.507-11.8.065-16.448,2.906a11.391,11.391,0,0,0-7.664-1.335c-4.844.9-9.15,5.232-12.422,8.762,6.588,24.522,12.573,46.848,19.14,71.391h3.682l-19.4-72.317Zm37.956-3.832c.086.108.194.258.28.366a10.675,10.675,0,0,1,2.11,5.791,6.1,6.1,0,0,1-1.335,4.069,2.792,2.792,0,0,1-2.3,1.206.237.237,0,0,1-.194-.065c-.947-.344-1.572-1.787-1.808-2.713a8.27,8.27,0,0,1,.172-4.844,8.079,8.079,0,0,1,3.057-3.832Zm-21.594-.194.258-.194a6.937,6.937,0,0,1,1.787,2.088,7.473,7.473,0,0,1,.818,3.122c.086,1.916-.517,4.435-1.981,5.748a3.441,3.441,0,0,1-5.425-1.206,6.292,6.292,0,0,1,.388-4.414,12.948,12.948,0,0,1,4.177-5.145Z" transform="translate(51.354 -27.832)" fill="#ffeae9"/>
        <path id="Path_2875" data-name="Path 2875" d="M78.758,148.644,78.392,87.91l-4.672.043.366,60.712Z" transform="translate(66.134 -87.91)" fill="#ffb224"/>
        <path id="Path_2876" data-name="Path 2876" d="M124.862,97.384l-4.069-2.3L90.76,147.827l4.069,2.325Z" transform="translate(85.78 -79.644)" fill="#ffb224"/>
        <path id="Path_2877" data-name="Path 2877" d="M105.987,150.708l1.141,1.938L146.2,129.781l13.327-7.815-2.347-4.026L104.76,148.619Z" transform="translate(101.921 -53.288)" fill="#ffb224"/>
        <path id="Path_2878" data-name="Path 2878" d="M107.382,158.089l60.713-.388-.022-4.672-60.713.388Z" transform="translate(104.919 -12.831)" fill="#ffb224"/>
        <path id="Path_2879" data-name="Path 2879" d="M77.462,147.838,47.429,95.07l-4.069,2.3,30.033,52.768Z" transform="translate(31.131 -79.655)" fill="#ffb224"/>
        <path id="Path_2880" data-name="Path 2880" d="M74.509,148.6,22.128,117.92l-2.368,4.048,52.381,30.658Z" transform="translate(3.922 -53.311)" fill="#ffb224"/>
        <path id="Path_2881" data-name="Path 2881" d="M14.38,157.692l60.713.387.022-4.672L14.4,153.02Z" transform="translate(-2.281 -12.843)" fill="#ffb224"/>
      </g>
      <g id="Group_698" data-name="Group 698" transform="translate(57.44 642.498)">
        <path id="Path_2882" data-name="Path 2882" d="M124.888,469.468c-2.174-.517-5.705-1.378-9.258-2.239h0v-8.116c7.083-1.938,12.595-8.806,13.8-17.417h.237a3.552,3.552,0,1,0,0-7.1c.818-5.318,2.11-13.972-5.081-15.372a11.115,11.115,0,0,0-2.8-5.468c-7.858-7.6-19.979,2.368-23.639-2a3.44,3.44,0,0,1-.8-1.809c-1.421,1.464-2.842,2.928-3.122,4.909a7.45,7.45,0,0,0,2.3,6.114,8.647,8.647,0,0,0-2.605,4.543,44.557,44.557,0,0,0-.258,9.085,3.565,3.565,0,0,0-3.811,3.552,3.489,3.489,0,0,0,3.552,3.552h.237c1.206,8.59,6.7,15.48,13.8,17.417v8.116c-3.552.861-7.083,1.7-9.258,2.239-2.174.517-2.95.71-4.758,5.49-.194.5-.388,1.055-.581,1.636,1.895,6.071,3.918,12.831,5.964,19.592h37.59c-2.584-8.569-5.1-16.836-6.76-21.206-1.808-4.779-2.605-4.973-4.758-5.49Z" transform="translate(27.302 -359.131)" fill="#14142b"/>
        <path id="Path_2883" data-name="Path 2883" d="M73.654,469.468c-2.174-.517-5.705-1.378-9.258-2.239h0v-8.116c7.083-1.938,12.595-8.806,13.8-17.417h.237a3.552,3.552,0,1,0,0-7.1c.818-5.318,2.11-13.972-5.081-15.372a11.115,11.115,0,0,0-2.8-5.468c-7.858-7.6-19.979,2.368-23.639-2a3.439,3.439,0,0,1-.8-1.809C44.7,411.4,43.277,412.868,43,414.849a7.45,7.45,0,0,0,2.3,6.114,8.647,8.647,0,0,0-2.605,4.543,44.556,44.556,0,0,0-.258,9.085,3.565,3.565,0,0,0-3.811,3.552,3.489,3.489,0,0,0,3.552,3.552h.237c1.206,8.59,6.7,15.48,13.8,17.417v8.116c-3.552.861-7.083,1.7-9.258,2.239-2.174.517-2.95.71-4.758,5.49-1.658,4.392-4.177,12.638-6.76,21.206H70.4c2.519-8.375,4.995-16.534,7.148-23.23-1.27-2.8-2.131-3.057-3.94-3.488Z" transform="translate(-35.44 -359.131)" fill="#14142b"/>
        <path id="Path_2884" data-name="Path 2884" d="M76.858,429.51c-2.67.646-5.059,1.227-6.846,1.658-3.445.84-4.693,1.141-7.578,8.741-1.012,2.691-2.239,6.308-3.6,10.485-2.153,6.674-4.629,14.855-7.148,23.23h9.9c4.478-14.9,8.978-29.775,11.841-37.375,1.356-3.617,2.368-5.576,3.4-6.717Z" transform="translate(-16.705 -336.568)" fill="#14142b"/>
        <path id="Path_2885" data-name="Path 2885" d="M93,460.788c-11.26-3.079-20-13.972-21.917-27.644h-.388a5.641,5.641,0,1,1,0-11.281h.388c-.172-5.4-.366-10.829.388-14.425a13.807,13.807,0,0,1,4.134-7.212,11.931,11.931,0,0,1-3.7-9.171,5.757,5.757,0,0,1-4.758-1.83,5.512,5.512,0,0,1-1.249-2.885c-2.261,2.325-4.5,4.672-4.952,7.815a11.8,11.8,0,0,0,3.682,9.731,13.581,13.581,0,0,0-4.134,7.212c-.754,3.6-.581,9.021-.388,14.425a5.653,5.653,0,0,0-6.05,5.641,5.552,5.552,0,0,0,5.641,5.641h.388c1.916,13.671,10.657,24.586,21.917,27.665v11.906c3.186-.775,7.083-1.7,11.023-2.648V460.767Z" transform="translate(-13.984 -386.34)" fill="#14142b"/>
      </g>
      <path id="Path_2886" data-name="Path 2886" d="M109.194,395.076c-3.509-3.229-15.286,8.655-33.521-.043-7.277,4.22-7.578,9.882-10.485,17.4H64.8a5.641,5.641,0,0,0,0,11.281h.388C67.1,437.381,75.845,448.275,87.1,451.354a23.674,23.674,0,0,0,12.961,0c11.26-3.079,20-13.972,21.917-27.644h.388a5.646,5.646,0,0,0,5.641-5.641,5.45,5.45,0,0,0-6.05-5.641c-3.143-8.181-4.048-14.252-12.81-17.374ZM97.848,425.088c0,5.6-8.526,5.6-8.526,0C93.09,426.961,94.08,426.961,97.848,425.088ZM73.089,410.233a1.488,1.488,0,0,1-1.486-1.486v-1.356a1.489,1.489,0,0,1,1.486-1.486H86.136a1.489,1.489,0,0,1,1.486,1.486v1.356a1.488,1.488,0,0,1-1.486,1.486Zm6.588,9.085a2.627,2.627,0,1,1,2.627-2.627A2.637,2.637,0,0,1,79.677,419.318Zm4.543,13.951c8.246,4.134,10.463,4.134,18.709,0C102.929,445.563,84.22,445.563,84.22,433.269Zm22.627-13.951a2.627,2.627,0,1,1,2.627-2.627A2.637,2.637,0,0,1,106.847,419.318Zm8.009-10.571a1.488,1.488,0,0,1-1.486,1.486H100.324a1.488,1.488,0,0,1-1.486-1.486v-1.356a1.489,1.489,0,0,1,1.486-1.486h13.047a1.489,1.489,0,0,1,1.486,1.486Z" transform="translate(49.347 265.57)" fill="#ffc965"/>
      <g id="Group_699" data-name="Group 699" transform="translate(102.329 638.881)">
        <path id="Path_2887" data-name="Path 2887" d="M72.14,420.92v12.961H85.1V420.92a24.031,24.031,0,0,1-6.48.9,24.912,24.912,0,0,1-6.48-.9Z" transform="translate(-38.016 -342.855)" fill="#efaf38"/>
        <path id="Path_2888" data-name="Path 2888" d="M66.58,402.163a13.581,13.581,0,0,0-4.134,7.212c-.754,3.6-.581,9.021-.388,14.425,2.906-7.535,3.208-13.176,10.485-17.4,18.235,8.7,30.012-3.208,33.521.043,8.741,3.122,9.667,9.193,12.81,17.374,1.313-8.461,3.746-22.218-7.686-24.436-.861-3.014-1.7-6.007-4.457-8.676-4.263-4.134-9.344-4.995-14.382-4.629-1.033.086-2.045.194-3.079.366-8.612,1.356-16.685,5.167-20.108,1.1a5.513,5.513,0,0,1-1.249-2.885c-2.261,2.325-4.5,4.672-4.952,7.815-.022.172-.022.366-.043.56a12.008,12.008,0,0,0,3.7,9.172Zm23.9-12.229a4.306,4.306,0,1,1-4.306,4.306A4.318,4.318,0,0,1,90.478,389.935Z" transform="translate(-49.83 -384.66)" fill="#14142b"/>
        <path id="Path_2889" data-name="Path 2889" d="M70.81,412.51c0,12.293,18.709,12.293,18.709,0C81.273,416.644,79.056,416.644,70.81,412.51Z" transform="translate(-39.549 -352.551)" fill="#000b36"/>
        <circle id="Ellipse_90" data-name="Ellipse 90" cx="2.627" cy="2.627" r="2.627" transform="translate(51.261 40.755)" fill="#000b36"/>
        <path id="Path_2890" data-name="Path 2890" d="M70.107,403.59a2.627,2.627,0,1,0,2.627,2.627A2.637,2.637,0,0,0,70.107,403.59Z" transform="translate(-43.389 -362.835)" fill="#000b36"/>
        <path id="Path_2891" data-name="Path 2891" d="M81.7,408.71c-3.768,1.873-4.758,1.873-8.526,0C73.17,414.308,81.7,414.308,81.7,408.71Z" transform="translate(-36.829 -356.932)" fill="#efaf38"/>
        <rect id="Rectangle_697" data-name="Rectangle 697" width="16.018" height="4.306" rx="0.69" transform="translate(18.644 32.617)" fill="#000b36"/>
        <rect id="Rectangle_698" data-name="Rectangle 698" width="16.018" height="4.306" rx="0.69" transform="translate(45.879 32.617)" fill="#000b36"/>
        <path id="Path_2892" data-name="Path 2892" d="M103.923,439.223c-2.863-7.6-4.134-7.9-7.578-8.741s-9.085-2.2-14.7-3.552H75.16l3.789,5.9-2.562,5.081H76.28c1.852,12.293,3.7,26.395,5.555,38.688h33.952c-2.045-6.76-4.069-13.5-5.964-19.592-2.261-7.32-4.327-13.65-5.877-17.8Z" transform="translate(-34.534 -335.926)" fill="#ee4437"/>
        <path id="Path_2893" data-name="Path 2893" d="M95.689,437.91l-2.454-5.081,3.66-5.9h-6.48c-3.918.947-7.837,1.895-11.023,2.648-1.378.344-2.648.646-3.7.883-1.808.431-3.014.732-4.155,2-1.055,1.163-2.045,3.1-3.4,6.717-2.863,7.6-7.363,22.5-11.841,37.375H90c1.852-12.293,3.7-26.395,5.555-38.688h.108Z" transform="translate(-56.29 -335.926)" fill="#ee4437"/>
        <path id="Path_2894" data-name="Path 2894" d="M75.9,437.91h2.433l2.562-5.081-3.768-5.9-3.682,5.9Z" transform="translate(-36.506 -335.926)" fill="#ffeae9"/>
        <path id="Path_2895" data-name="Path 2895" d="M77.622,432.03h-.108c-1.852,12.293-3.7,26.395-5.555,38.688H85.523c-1.852-12.293-3.7-26.395-5.555-38.688H77.644Z" transform="translate(-38.224 -330.046)" fill="#ffeae9"/>
      </g>
      <g id="Group_700" data-name="Group 700" transform="translate(7.664 241.192)">
        <path id="Path_2896" data-name="Path 2896" d="M113.078,313.51a82.5,82.5,0,0,1-14.554.344h-.409l-.215,3.014h.452c1.787.151,3.6.215,5.4.215a91.859,91.859,0,0,0,9.667-.538l-.344-3.036Z" transform="translate(86.347 -69.002)" fill="#ee4437"/>
        <path id="Path_2897" data-name="Path 2897" d="M85.7,361.223l1.615,2.584a33.671,33.671,0,0,1,12.1-4.65c.108-1.076.28-2.131.452-3.186a36.331,36.331,0,0,0-14.188,5.253Z" transform="translate(72.259 -20.049)" fill="#ee4437"/>
        <path id="Path_2898" data-name="Path 2898" d="M71.552,280.692l-1.658-2.562a98.52,98.52,0,0,1-13.154,7.212l1.249,2.777a99.683,99.683,0,0,0,13.563-7.449Z" transform="translate(38.893 -109.793)" fill="#ee4437"/>
        <path id="Path_2899" data-name="Path 2899" d="M68.132,283.357c3.617-2.8,7.341-5.964,11.733-9.947l-2.045-2.26c-4.327,3.94-7.987,7.04-11.54,9.8l1.873,2.411Z" transform="translate(49.892 -117.84)" fill="#ee4437"/>
        <path id="Path_2900" data-name="Path 2900" d="M81.607,239.19a49.837,49.837,0,0,1-14.338,2.024H67.01v3.057h.258a53,53,0,0,0,15.243-2.153l-.9-2.928Z" transform="translate(50.734 -154.688)" fill="#ee4437"/>
        <path id="Path_2901" data-name="Path 2901" d="M13.98,340.417a53.8,53.8,0,0,0,3.38,15.264L20.2,354.6a50.84,50.84,0,0,1-3.186-14.425l-3.036.237Z" transform="translate(-10.406 -38.254)" fill="#ee4437"/>
        <path id="Path_2902" data-name="Path 2902" d="M77.937,382.642,74.9,382.47c-.129,2.153-.215,4.327-.3,6.5,1.012-.151,2.045-.28,3.079-.366.086-1.981.172-3.983.28-5.942Z" transform="translate(59.484 10.504)" fill="#ee4437"/>
        <path id="Path_2903" data-name="Path 2903" d="M88.768,339.35l-.538.818,2.54,1.679.538-.8a72.442,72.442,0,0,1,8.849-10.808l-2.174-2.153a77.158,77.158,0,0,0-9.215,11.26Z" transform="translate(75.199 -52.192)" fill="#ee4437"/>
        <path id="Path_2904" data-name="Path 2904" d="M71.122,242.236a45.383,45.383,0,0,1-6.071-1.421,61.5,61.5,0,0,1-8.009-3.165l-1.292,2.777a65.666,65.666,0,0,0,8.4,3.315,49.656,49.656,0,0,0,6.459,1.507l.5-3.014Z" transform="translate(37.752 -156.463)" fill="#ee4437"/>
        <path id="Path_2905" data-name="Path 2905" d="M20.223,244.436a44.2,44.2,0,0,0-4.973,7.471l2.691,1.442a42.644,42.644,0,0,1,4.629-6.975c.581-.689,1.206-1.378,1.852-2.045-.5-.969-.969-1.938-1.378-2.928-.99.99-1.938,2-2.82,3.057Z" transform="translate(-8.942 -152.14)" fill="#ee4437"/>
        <path id="Path_2906" data-name="Path 2906" d="M46.478,289.394a82.125,82.125,0,0,0,15.135-3.488L60.644,283a77.621,77.621,0,0,1-14.554,3.359l.388,3.036Z" transform="translate(26.614 -104.178)" fill="#ee4437"/>
        <path id="Path_2907" data-name="Path 2907" d="M131.206,305.86c-1.744,1.27-3.574,2.519-5.447,3.681-1.981,1.206-4.048,2.368-6.179,3.423l1.378,2.734c2.2-1.1,4.349-2.3,6.394-3.552s4.026-2.605,5.942-4a17.17,17.17,0,0,1-2.067-2.261Z" transform="translate(111.343 -77.822)" fill="#ee4437"/>
        <path id="Path_2908" data-name="Path 2908" d="M117.62,321.606a62.431,62.431,0,0,1,14.618,2.627l.9-2.907a65.146,65.146,0,0,0-15.329-2.756Z" transform="translate(109.083 -63.168)" fill="#ee4437"/>
        <path id="Path_2909" data-name="Path 2909" d="M139.147,287.19a57.13,57.13,0,0,1-2.8,10.829c-.409,1.141-.883,2.261-1.378,3.38l2.777,1.249c.517-1.184,1.012-2.368,1.442-3.574a60.013,60.013,0,0,0,2.949-11.41l-3.014-.474Z" transform="translate(129.086 -99.347)" fill="#ee4437"/>
        <path id="Path_2910" data-name="Path 2910" d="M138.057,290.724v.6l3.057.022v-.624a71.973,71.973,0,0,0-1.572-14.834l-2.993.624A70.572,70.572,0,0,1,138.057,290.724Z" transform="translate(130.908 -112.375)" fill="#ee4437"/>
        <path id="Path_2911" data-name="Path 2911" d="M106.25,321.442l.9,2.906c.344-.108.689-.215,1.055-.3a67.1,67.1,0,0,1,13.563-2.411l-.215-3.036a69.986,69.986,0,0,0-14.188,2.519c-.366.108-.754.215-1.119.323Z" transform="translate(95.974 -63.134)" fill="#ee4437"/>
        <path id="Path_2912" data-name="Path 2912" d="M138.364,280.128l2.906-.947a75.744,75.744,0,0,0-6.179-13.951c-.667.861-1.378,1.679-2.131,2.476a75.142,75.142,0,0,1,5.4,12.422Z" transform="translate(126.769 -124.665)" fill="#ee4437"/>
        <path id="Path_2913" data-name="Path 2913" d="M87.468,311.56l-.818,2.949A147.726,147.726,0,0,0,101.656,318l.517-3.014A141.993,141.993,0,0,1,87.468,311.56Z" transform="translate(73.377 -71.25)" fill="#ee4437"/>
        <path id="Path_2914" data-name="Path 2914" d="M123.452,310.86a94.2,94.2,0,0,1-14.382,4.284l.624,2.993a99.426,99.426,0,0,0,14.834-4.413l-1.1-2.842Z" transform="translate(99.226 -72.057)" fill="#ee4437"/>
        <path id="Path_2915" data-name="Path 2915" d="M12.32,265.7l3.057.129a56.947,56.947,0,0,1,2.54-14.6l-2.906-.926a60.183,60.183,0,0,0-2.67,15.372Z" transform="translate(-12.32 -141.867)" fill="#ee4437"/>
        <path id="Path_2916" data-name="Path 2916" d="M86.445,235.246a42.484,42.484,0,0,0-.258-4.607A63.221,63.221,0,0,0,84.4,221.36l-2.95.775a62.855,62.855,0,0,1,1.7,8.827,42.057,42.057,0,0,1,.237,4.263c0,.517,0,1.012-.043,1.529l3.057.129c.022-.538.043-1.1.043-1.658Z" transform="translate(67.382 -175.244)" fill="#ee4437"/>
        <path id="Path_2917" data-name="Path 2917" d="M97.872,331.966a66.249,66.249,0,0,1,12.724-7.729l-1.27-2.777a70.082,70.082,0,0,0-13.305,8.073l1.873,2.411Z" transform="translate(84.18 -59.836)" fill="#ee4437"/>
        <path id="Path_2918" data-name="Path 2918" d="M79.962,272.339c2.131-2.024,4.241-4.026,6.33-5.985a15.674,15.674,0,0,1-2-2.3c-2.131,1.981-4.263,4-6.437,6.071l-3.122,2.971,2.11,2.217,3.122-2.971Z" transform="translate(59.634 -126.026)" fill="#ee4437"/>
        <path id="Path_2919" data-name="Path 2919" d="M86.881,348.883l-2.605-1.593A101.794,101.794,0,0,1,77.3,357.409a15.949,15.949,0,0,1,2.2,2.153A108.021,108.021,0,0,0,86.9,348.883Z" transform="translate(62.597 -30.056)" fill="#ee4437"/>
        <path id="Path_2920" data-name="Path 2920" d="M107.6,252.16a71.56,71.56,0,0,0-14.834,4.65l1.227,2.8a68.555,68.555,0,0,1,14.209-4.457Z" transform="translate(80.433 -139.734)" fill="#ee4437"/>
        <path id="Path_2921" data-name="Path 2921" d="M75.542,382.618q-.258,1.873-.452,3.746l3.036.323c.129-1.227.28-2.454.431-3.681a75.292,75.292,0,0,1,2.218-11.066l-2.928-.84a78.361,78.361,0,0,0-2.3,11.5Z" transform="translate(60.049 -2.605)" fill="#ee4437"/>
        <path id="Path_2922" data-name="Path 2922" d="M57.71,366.809l.775,2.949a95.4,95.4,0,0,0,14.64-5.059L71.9,361.9A96.647,96.647,0,0,1,57.71,366.809Z" transform="translate(40.011 -13.212)" fill="#ee4437"/>
        <path id="Path_2923" data-name="Path 2923" d="M42.48,304.056l.452,3.014a91.171,91.171,0,0,1,10.657-.883c.086-1.033.215-2.045.388-3.057a91.752,91.752,0,0,0-11.5.926Z" transform="translate(22.452 -80.97)" fill="#ee4437"/>
        <path id="Path_2924" data-name="Path 2924" d="M46.68,366.33v3.057a94.6,94.6,0,0,0,15.436-1.313l-.5-3.014a93.346,93.346,0,0,1-14.941,1.27Z" transform="translate(27.295 -9.569)" fill="#ee4437"/>
        <path id="Path_2925" data-name="Path 2925" d="M85.973,224.94c-1.722-5.059-3.746-10.226-5.361-14.36L77.77,211.7c1.615,4.112,3.617,9.236,5.318,14.231Z" transform="translate(63.139 -187.673)" fill="#ee4437"/>
        <path id="Path_2926" data-name="Path 2926" d="M46.747,307.408l-.861-2.928a61.451,61.451,0,0,0-14.3,6.243l1.572,2.627A58.922,58.922,0,0,1,46.747,307.408Z" transform="translate(9.897 -79.413)" fill="#ee4437"/>
        <path id="Path_2927" data-name="Path 2927" d="M18.615,272.07l-2.605,1.572A51.969,51.969,0,0,0,22.4,282.06a16.14,16.14,0,0,1,1.959-2.368,49.81,49.81,0,0,1-5.748-7.621Z" transform="translate(-8.066 -116.779)" fill="#ee4437"/>
        <path id="Path_2928" data-name="Path 2928" d="M16,277.181l2.842-1.076a56.64,56.64,0,0,1-3.359-14.425l-3.036.3A59.776,59.776,0,0,0,16,277.181Z" transform="translate(-12.17 -128.758)" fill="#ee4437"/>
        <path id="Path_2929" data-name="Path 2929" d="M50.23,288.739v-3.057h-.237a70.037,70.037,0,0,1-7.664-.431c-2.3-.258-4.629-.646-6.932-1.141l-.646,2.971c2.39.517,4.823.926,7.234,1.206a71.036,71.036,0,0,0,8.009.452h.237Z" transform="translate(13.54 -102.898)" fill="#ee4437"/>
        <path id="Path_2930" data-name="Path 2930" d="M35.828,312.228l-1.916-2.368a75.737,75.737,0,0,0-11,10.98l2.368,1.938A70.654,70.654,0,0,1,35.828,312.25Z" transform="translate(-0.111 -73.21)" fill="#ee4437"/>
        <path id="Path_2931" data-name="Path 2931" d="M89.9,337.39c-1.335,2.411-2.67,4.887-4,7.406-1.055,1.981-2.131,4-3.251,6.028l2.67,1.464c1.12-2.024,2.2-4.048,3.251-6.05,1.335-2.5,2.648-4.973,3.983-7.363l-2.67-1.486Z" transform="translate(68.754 -41.47)" fill="#ee4437"/>
        <path id="Path_2932" data-name="Path 2932" d="M79.139,245.916a25.115,25.115,0,0,0,10.033-12.379l-2.863-1.076a22.066,22.066,0,0,1-8.849,10.915l1.658,2.562Z" transform="translate(62.782 -162.447)" fill="#ee4437"/>
        <path id="Path_2933" data-name="Path 2933" d="M82.1,367.027a47.69,47.69,0,0,0-4.155,6.782l2.734,1.378a44.5,44.5,0,0,1,3.875-6.33,45.2,45.2,0,0,1,4.78-5.533L87.2,361.15a47.788,47.788,0,0,0-5.1,5.9Z" transform="translate(63.335 -14.077)" fill="#ee4437"/>
        <path id="Path_2934" data-name="Path 2934" d="M14.01,343.459l3.036.258a68.539,68.539,0,0,1,2.519-13.176,14.8,14.8,0,0,1-2.842-1.141A71.267,71.267,0,0,0,14.01,343.459Z" transform="translate(-10.372 -50.682)" fill="#ee4437"/>
        <path id="Path_2935" data-name="Path 2935" d="M129.629,321.48l-1.4,2.713a44.5,44.5,0,0,1,5.511,3.4,16.694,16.694,0,0,1,2.3-2.131,43.937,43.937,0,0,0-6.416-3.983Z" transform="translate(121.316 -59.813)" fill="#ee4437"/>
        <path id="Path_2936" data-name="Path 2936" d="M138.5,337.494l2.993-.6c-.086-.388-.172-.754-.258-1.141a16.618,16.618,0,0,1-2.863,1.163A5.623,5.623,0,0,1,138.5,337.494Z" transform="translate(133.006 -43.361)" fill="#ee4437"/>
        <path id="Path_2937" data-name="Path 2937" d="M129.56,359.641l1.55,2.627a51.426,51.426,0,0,0,12.272-9.731l-2.261-2.067a49.315,49.315,0,0,1-11.561,9.15Z" transform="translate(122.849 -26.39)" fill="#ee4437"/>
        <path id="Path_2938" data-name="Path 2938" d="M137.25,354.689l2.734,1.378a35.329,35.329,0,0,0,3.7-15.372l-3.057-.065A32,32,0,0,1,137.25,354.689Z" transform="translate(131.715 -37.735)" fill="#ee4437"/>
        <path id="Path_2939" data-name="Path 2939" d="M74.43,200.284c.086.775.237,1.593.366,2.39a73.291,73.291,0,0,0,3.38,12.272l.151.409L81.19,214.3l-.172-.5A61.564,61.564,0,0,1,77.487,200v-.065l-3.036.344Z" transform="translate(59.288 -199.94)" fill="#ee4437"/>
        <path id="Path_2940" data-name="Path 2940" d="M77.476,395.722a4.306,4.306,0,1,0-4.306-4.306A4.319,4.319,0,0,0,77.476,395.722Z" transform="translate(57.836 15.853)" fill="#ee4437"/>
        <path id="Path_2941" data-name="Path 2941" d="M58.65,306.325l.388.646.366-.215-.366-.646Z" transform="translate(41.095 -77.534)" fill="#ee4437"/>
        <rect id="Rectangle_699" data-name="Rectangle 699" width="0.431" height="0.732" transform="translate(96.271 230.802) rotate(-30.19)" fill="#ee4437"/>
        <path id="Path_2942" data-name="Path 2942" d="M55.4,308.205l.366.646.366-.215-.366-.646Z" transform="translate(37.348 -75.366)" fill="#ee4437"/>
      </g>
      <g id="Group_706" data-name="Group 706" transform="translate(3.359 276.694)">
        <g id="Group_701" data-name="Group 701" transform="translate(0 273.077)">
          <path id="Path_2943" data-name="Path 2943" d="M49.245,343.27A38.925,38.925,0,1,0,88.17,382.195,38.995,38.995,0,0,0,49.245,343.27Zm15.781,17.46H61.689c0,16.405,1.486,12.379-12.444,21.465,13.951,9.085,12.444,5.059,12.444,21.465h3.337v3.961H33.442V403.66h3.337c0-16.405-1.486-12.379,12.444-21.465-13.951-9.085-12.444-5.059-12.444-21.465H33.442v-3.961H65.026Z" transform="translate(-10.32 -343.27)" fill="#14142b"/>
          <path id="Path_2944" data-name="Path 2944" d="M22.612,382.825h1.765q5.328-3.2,10.7-6.394c3.574,2.131,7.126,4.263,10.7,6.394h1.765c0-16.405,1.486-12.379-12.444-21.465-13.951,9.085-12.444,5.059-12.444,21.465Z" transform="translate(3.847 -322.414)" fill="#ffeae9"/>
          <path id="Path_2945" data-name="Path 2945" d="M35.1,372.855c13.951-9.085,12.444-5.059,12.444-21.465H22.635c0,16.405-1.486,12.379,12.444,21.465ZM24.68,354.167H45.542c0,10.442,1.249,10.248-10.42,16.039-11.669-5.791-10.42-5.6-10.42-16.039Z" transform="translate(3.825 -333.908)" fill="#ffeae9"/>
          <path id="Path_2946" data-name="Path 2946" d="M36.862,371.33H21.06v3.983H52.643V371.33H36.862Z" transform="translate(2.062 -310.919)" fill="#ee4437"/>
          <path id="Path_2947" data-name="Path 2947" d="M21.06,353.5H52.643V349.54H21.06Z" transform="translate(2.062 -336.041)" fill="#ee4437"/>
          <path id="Path_2948" data-name="Path 2948" d="M44.82,374.754c-3.574-2.131-7.126-4.263-10.7-6.394-3.574,2.131-7.126,4.263-10.7,6.394H44.8Z" transform="translate(4.783 -314.343)" fill="#ee4437"/>
          <path id="Path_2949" data-name="Path 2949" d="M34.012,368.709c11.669-5.791,10.42-5.6,10.42-16.039H23.571c0,10.442-1.249,10.248,10.42,16.039Z" transform="translate(4.912 -332.432)" fill="#ee4437"/>
        </g>
        <g id="Group_702" data-name="Group 702" transform="translate(175.808 268.384)">
          <path id="Path_2950" data-name="Path 2950" d="M125.718,363.583a6.7,6.7,0,1,0,1.4,9.365A6.7,6.7,0,0,0,125.718,363.583Zm-3.983,8.87a3.488,3.488,0,1,1,3.488-3.488A3.5,3.5,0,0,1,121.735,372.453Z" transform="translate(-65.393 -316.67)" fill="#ee4437"/>
          <path id="Path_2951" data-name="Path 2951" d="M130.9,341.09a38.989,38.989,0,0,0-38.279,32.057,31.515,31.515,0,0,0-.452,3.186c-.108,1.227-.194,2.454-.194,3.7A38.925,38.925,0,1,0,130.9,341.112Zm-1.981,53.5-3.423-4.306a14.288,14.288,0,0,1-1.895.258l-2.217,5.081-9.085-2.433.624-5.447a18.238,18.238,0,0,1-1.636-1.249l-5.146,2-4.693-8.138,4.306-3.423a16.258,16.258,0,0,1-.258-2.024l-5.038-2.217,2.433-9.085,5.49.624a16.387,16.387,0,0,1,1.184-1.55l-2.024-5.124,8.138-4.693,3.445,4.306a16.939,16.939,0,0,1,2.067-.258l2.2-5.038,9.085,2.433-.6,5.512c.517.366,1.033.753,1.507,1.163l5.124-2.024L143.2,367.1l-4.306,3.445a15.311,15.311,0,0,1,.28,2.2l4.995,2.2-2.433,9.085-5.555-.624a17.465,17.465,0,0,1-1.1,1.4l2,5.146-8.138,4.693Zm30.335-.431-2.648.818a7.3,7.3,0,0,1-.237.926l1.959,1.959-2.8,3.789-2.454-1.292a8.413,8.413,0,0,1-.947.56v2.734l-4.65.71-.818-2.67c-.28-.065-.581-.129-.861-.215l-1.959,1.959-3.789-2.8,1.292-2.433c-.172-.258-.344-.538-.5-.818h-2.777l-.71-4.65,2.627-.8a8.589,8.589,0,0,1,.237-1.012l-1.959-1.959,2.8-3.789,2.433,1.292a7.262,7.262,0,0,1,.883-.517V383.2l4.65-.71.818,2.648c.323.065.624.151.947.237l1.959-1.959,3.789,2.8-1.292,2.454c.194.28.366.581.538.883h2.756l.71,4.65Z" transform="translate(-91.98 -341.09)" fill="#14142b"/>
          <path id="Path_2952" data-name="Path 2952" d="M124.808,356.711a13.364,13.364,0,1,0-4.887,18.257,13.353,13.353,0,0,0,4.887-18.257Zm-11.6,13.262a6.556,6.556,0,1,1,6.566-6.566A6.56,6.56,0,0,1,113.2,369.973Z" transform="translate(-82.89 -330.79)" fill="#ffeae9"/>
          <path id="Path_2953" data-name="Path 2953" d="M130.971,366.469l1.292-2.454-3.789-2.8-1.959,1.959a6.763,6.763,0,0,0-.947-.237l-.818-2.648-4.65.71v2.756a7.265,7.265,0,0,0-.883.517l-2.433-1.292-2.8,3.789,1.959,1.959a5.735,5.735,0,0,0-.237,1.012l-2.627.8.71,4.65h2.777c.151.28.323.56.5.818l-1.292,2.433,3.789,2.8,1.959-1.959a6.311,6.311,0,0,0,.861.215l.818,2.67,4.65-.71v-2.734a8.4,8.4,0,0,0,.947-.56l2.454,1.292,2.8-3.789L132.09,373.7a7.308,7.308,0,0,0,.237-.926l2.648-.818-.71-4.65h-2.756a7.433,7.433,0,0,0-.538-.883Zm-1.572,8.762a6.7,6.7,0,1,1-1.4-9.365A6.681,6.681,0,0,1,129.4,375.231Z" transform="translate(-67.653 -318.954)" fill="#ffeae9"/>
          <path id="Path_2954" data-name="Path 2954" d="M131.627,377.589l5.555.624,2.433-9.085-4.995-2.2a15.319,15.319,0,0,0-.28-2.2l4.306-3.445-4.693-8.138-5.124,2.024a15.609,15.609,0,0,0-1.507-1.163l.6-5.512-9.085-2.433-2.2,5.038a16.909,16.909,0,0,0-2.067.258l-3.445-4.306-8.138,4.693,2.024,5.124a16.4,16.4,0,0,0-1.184,1.55l-5.49-.624-2.433,9.085,5.038,2.218a16.248,16.248,0,0,0,.258,2.024L96.9,374.553l4.693,8.138,5.145-2a14.946,14.946,0,0,0,1.636,1.249l-.624,5.447,9.085,2.433,2.217-5.081a14.272,14.272,0,0,0,1.895-.258l3.423,4.306,8.138-4.693-2-5.146c.388-.452.754-.926,1.1-1.4Zm-7.169,1.938a13.364,13.364,0,1,1,4.887-18.257,13.348,13.348,0,0,1-4.887,18.257Z" transform="translate(-87.449 -335.348)" fill="#ee4437"/>
          <path id="Path_2955" data-name="Path 2955" d="M109.565,353.2a6.556,6.556,0,1,0,6.566,6.545A6.556,6.556,0,0,0,109.565,353.2Z" transform="translate(-79.252 -327.128)" fill="#ee4437"/>
          <path id="Path_2956" data-name="Path 2956" d="M120.018,363.76a3.488,3.488,0,1,0,3.488,3.488A3.5,3.5,0,0,0,120.018,363.76Z" transform="translate(-63.676 -314.953)" fill="#ffeae9"/>
        </g>
        <g id="Group_703" data-name="Group 703" transform="translate(196.584 42.219)">
          <path id="Path_2957" data-name="Path 2957" d="M140.555,236.04a38.925,38.925,0,1,0,28.548,65.3c.732-.8,1.442-1.615,2.131-2.476a38.86,38.86,0,0,0-30.658-62.822Zm19.1,20.065h6.222v36.772h-6.222V256.105Zm-7.966,6.136h6.222v30.636h-6.222V262.241Zm-7.987,5.167h6.243V292.9H143.7Zm-7.837,5.167h6.222V292.9h-6.222Zm-7.772,5.6h6.222V292.9h-6.222Zm-7.88,3.918h6.222V292.9H120.21Zm47.343,14.554-1.658,1.141v-1.313H116.636V256.234h-1.313l1.141-1.658,1.141-1.658,1.141,1.658,1.141,1.658h-1.313v38.257h47.278v-1.313l1.658,1.141,1.658,1.141L167.51,296.6Z" transform="translate(-101.63 -236.04)" fill="#14142b"/>
          <path id="Path_2958" data-name="Path 2958" d="M158.519,284.14v1.313H111.241V247.2h1.313l-1.141-1.658-1.141-1.658-1.141,1.658L107.99,247.2H109.3v40.238h49.259v1.313l1.658-1.141,1.658-1.141-1.658-1.141-1.658-1.141Z" transform="translate(-94.297 -227.001)" fill="#ffeae9"/>
          <rect id="Rectangle_700" data-name="Rectangle 700" width="6.222" height="10.808" transform="translate(18.558 46.03)" fill="#ee4437"/>
          <rect id="Rectangle_701" data-name="Rectangle 701" width="6.222" height="14.726" transform="translate(26.438 42.111)" fill="#ee4437"/>
          <rect id="Rectangle_702" data-name="Rectangle 702" width="6.222" height="20.324" transform="translate(34.21 36.514)" fill="#ee4437"/>
          <rect id="Rectangle_703" data-name="Rectangle 703" width="6.243" height="25.491" transform="translate(42.047 31.368)" fill="#ee4437"/>
          <rect id="Rectangle_704" data-name="Rectangle 704" width="6.222" height="30.636" transform="translate(50.034 26.201)" fill="#ee4437"/>
          <rect id="Rectangle_705" data-name="Rectangle 705" width="6.222" height="36.772" transform="translate(58.021 20.065)" fill="#ee4437"/>
        </g>
        <g id="Group_704" data-name="Group 704" transform="translate(15.48)">
          <path id="Path_2959" data-name="Path 2959" d="M85.779,229.886l-1.658,1.658H81.6l-3.38,3.38a29.475,29.475,0,1,1-1.356-1.356l3.38-3.38v-2.519c.56-.56,1.12-1.1,1.658-1.658A38.865,38.865,0,0,0,20.46,270.167c.409,1.012.883,1.981,1.378,2.928a38.88,38.88,0,1,0,63.942-43.209Z" transform="translate(-17.51 -216.43)" fill="#14142b"/>
          <path id="Path_2960" data-name="Path 2960" d="M73.28,250.023a21.891,21.891,0,1,1-7.1-16.039l5.318-5.318a29.476,29.476,0,1,0,1.356,1.356l-5.318,5.318a21.668,21.668,0,0,1,5.748,14.683Z" transform="translate(-12.137 -211.507)" fill="#ffeae9"/>
          <path id="Path_2961" data-name="Path 2961" d="M25.66,246a21.788,21.788,0,1,0,37.827-14.683l-4.8,4.8a14.784,14.784,0,1,1-1.356-1.378l4.8-4.8A21.742,21.742,0,0,0,25.66,245.978Z" transform="translate(-8.114 -207.483)" fill="#14142b"/>
          <path id="Path_2962" data-name="Path 2962" d="M28.82,242.344a15.006,15.006,0,1,0,30.012,0,14.786,14.786,0,0,0-3.768-9.882l-5.21,5.21a7.569,7.569,0,0,1,1.636,4.693,7.759,7.759,0,1,1-2.993-6.05l5.21-5.21a14.979,14.979,0,0,0-24.888,11.26Z" transform="translate(-4.47 -203.829)" fill="#ffeae9"/>
          <path id="Path_2963" data-name="Path 2963" d="M32.22,238.436a7.686,7.686,0,1,0,13.736-4.693L44.1,235.594,46.8,237.4l-6.889,1.033,1.033-6.889,1.808,2.691,1.852-1.852a7.569,7.569,0,0,0-4.693-1.636,7.691,7.691,0,0,0-7.686,7.686Z" transform="translate(-0.55 -199.92)" fill="#14142b"/>
          <path id="Path_2964" data-name="Path 2964" d="M59.182,227.142l-3.38,3.38-5.318,5.318-4.8,4.8-5.21,5.21L38.622,247.7l-1.808-2.691L35.78,251.9l6.889-1.033-2.691-1.808,1.852-1.852L47.04,242l4.8-4.8,5.318-5.318,3.38-3.38h2.519c.56-.56,1.12-1.1,1.658-1.658l3.875-3.875H64.715V219.09l-3.875,3.875-1.658,1.658Z" transform="translate(3.554 -213.363)" fill="#ee4437"/>
        </g>
        <g id="Group_705" data-name="Group 705" transform="translate(80.197 153.934)">
          <path id="Path_2965" data-name="Path 2965" d="M125.42,326.855a38.9,38.9,0,0,0-77.312-6.2c-.172,1.012-.3,2.024-.388,3.057s-.151,2.088-.151,3.143a38.925,38.925,0,0,0,77.85,0ZM83.158,341.581h0l-15.8,9.128-3.617-6.265-1.895.517-1.895-7.083-3.66-6.351,1.7-.99-1.873-7,26.115-7,23.424-13.52,3.617,6.265,1.895-.517,1.895,7.083,3.66,6.351-1.7.99,1.873,7L99.671,334.8a8.993,8.993,0,0,1-16.491,6.782Z" transform="translate(-47.57 -287.93)" fill="#14142b"/>
          <path id="Path_2966" data-name="Path 2966" d="M55.2,318.2l1.916-.517L53.31,311.12Z" transform="translate(-40.952 -261.194)" fill="#bb0d00"/>
          <path id="Path_2967" data-name="Path 2967" d="M78.115,297.62l-1.895.5,3.789,6.566Z" transform="translate(-14.539 -276.758)" fill="#bb0d00"/>
          <path id="Path_2968" data-name="Path 2968" d="M81.911,310.393a8.948,8.948,0,0,1-6.523.947l-4.047,2.325h0a8.975,8.975,0,0,1,.883,2.239L89.446,311.3l-1.873-7-1.593.926a8.887,8.887,0,0,1-4.091,5.167Z" transform="translate(-20.165 -269.057)" fill="#bb0d00"/>
          <path id="Path_2969" data-name="Path 2969" d="M51.53,308.2l1.873,7L77.645,301.22Z" transform="translate(-43.004 -272.608)" fill="#bb0d00"/>
          <path id="Path_2970" data-name="Path 2970" d="M77.326,328.2l-7.664-13.284,14.9-8.59,9.408,16.319-.84.5A7.728,7.728,0,0,1,94.1,324.5l4.047-2.325a8.94,8.94,0,0,1-5.791-4.263,9.014,9.014,0,1,1,16.405-1.873l1.593-.926,1.7-.99-3.66-6.351-3.789-6.566-3.617-6.265L77.563,308.46,53.321,322.454l-1.7.99,3.66,6.351,3.789,6.566,3.617,6.265,15.8-9.128a8.949,8.949,0,0,1-1.163-5.3Zm-19.247-.5-1.7-2.949-.344,1.27-1.292-.344.689-2.54,1.141-.667,2.648,4.564-1.163.667Zm2.024-1.184-2.648-4.564,2.67-1.55,2.648,4.564Zm3.509-2.024-2.648-4.564,2.67-1.55,2.627,4.564-2.67,1.55Zm3.509-2.024-2.627-4.564,2.67-1.55,2.627,4.564Z" transform="translate(-42.901 -279.848)" fill="#ee4437"/>
          <path id="Path_2971" data-name="Path 2971" d="M53.759,308.376l-.689,2.562,1.292.344.344-1.27,1.7,2.949,1.141-.667-2.627-4.564Z" transform="translate(-41.229 -265.102)" fill="#ffeae9"/>
          <path id="Path_2972" data-name="Path 2972" d="M54.34,308.32l2.648,4.564,2.67-1.55L57.01,306.77Zm2.648,1.938-.366-.646.366-.215.366.646Z" transform="translate(-39.765 -266.209)" fill="#ffeae9"/>
          <path id="Path_2973" data-name="Path 2973" d="M55.96,307.38l2.648,4.564,2.67-1.55-2.627-4.564-2.67,1.55Zm2.648,1.938-.366-.646.366-.215.366.646Z" transform="translate(-37.897 -267.293)" fill="#ffeae9"/>
          <path id="Path_2974" data-name="Path 2974" d="M57.59,306.44,60.217,311l2.67-1.55L60.26,304.89Zm2.648,1.938-.366-.646.366-.215.366.646Z" transform="translate(-36.018 -268.376)" fill="#ffeae9"/>
          <path id="Path_2975" data-name="Path 2975" d="M74.9,300.241,60,308.832l7.664,13.284a8.986,8.986,0,0,1,15.781-5.081l.84-.5L74.877,300.22Z" transform="translate(-33.239 -273.761)" fill="#ffeae9"/>
          <path id="Path_2976" data-name="Path 2976" d="M77.044,323.383a8.993,8.993,0,0,0,4.177-10.076,8.663,8.663,0,0,0-.883-2.239h0a9,9,0,0,0-15.587,9.021h0a9.015,9.015,0,0,0,12.315,3.294ZM66,319.357a7.548,7.548,0,1,1,10.313,2.756A7.557,7.557,0,0,1,66,319.357Z" transform="translate(-29.141 -266.438)" fill="#ffb224"/>
          <path id="Path_2977" data-name="Path 2977" d="M83.494,316.138a9.057,9.057,0,0,0,3.294-12.315,8.986,8.986,0,1,0-3.294,12.336ZM72.45,312.112a7.548,7.548,0,1,1,10.313,2.756A7.557,7.557,0,0,1,72.45,312.112Z" transform="translate(-21.748 -274.802)" fill="#ffb224"/>
          <path id="Path_2978" data-name="Path 2978" d="M75.547,321.333a7.548,7.548,0,1,0-10.313-2.756A7.538,7.538,0,0,0,75.547,321.333Zm-4.866-5.6-2-.538,1.076-4,1.808-1.055,4.155,7.191-1.808,1.055-2.67-4.629-.538,1.981Z" transform="translate(-28.377 -265.658)" fill="#f08926"/>
          <path id="Path_2979" data-name="Path 2979" d="M84.743,303.771a7.548,7.548,0,1,0-2.756,10.313A7.538,7.538,0,0,0,84.743,303.771Zm-5.49,7.923H77.165v-5.339l-1.442,1.464-1.486-1.486,2.928-2.928h2.088Z" transform="translate(-20.952 -274.017)" fill="#f08926"/>
          <path id="Path_2980" data-name="Path 2980" d="M73.32,315.781l-4.155-7.191-1.808,1.055-1.076,4,2.024.538.538-1.981,2.67,4.607Z" transform="translate(-25.999 -264.111)" fill="#ffb224"/>
          <path id="Path_2981" data-name="Path 2981" d="M72.31,304.53l1.486,1.464,1.464-1.443v5.318h2.088V301.58H75.26Z" transform="translate(-19.047 -272.193)" fill="#ffb224"/>
        </g>
        <path id="Path_2982" data-name="Path 2982" d="M139.389,325.847a15.965,15.965,0,1,0-12.7-6.394,17.172,17.172,0,0,0,2.067,2.261A15.768,15.768,0,0,0,139.389,325.847Z" transform="translate(120.168 -126.917)" fill="#ffeae9"/>
        <path id="Path_2983" data-name="Path 2983" d="M49.487,289.359A15.878,15.878,0,0,0,22.4,278.1a15.934,15.934,0,0,0-4.693,11.26,15.889,15.889,0,0,0,31.777,0Z" transform="translate(-1.8 -150.667)" fill="#ffeae9"/>
        <path id="Path_2984" data-name="Path 2984" d="M43.047,331.349a15.889,15.889,0,1,0-23.165,14.1,14.8,14.8,0,0,0,2.842,1.141,15.774,15.774,0,0,0,4.435.646,15.932,15.932,0,0,0,15.889-15.889Z" transform="translate(-9.225 -102.256)" fill="#ffeae9"/>
        <path id="Path_2985" data-name="Path 2985" d="M93.321,356.034a17.3,17.3,0,0,0-2.2-2.153,15.979,15.979,0,1,0,2.2,2.153Z" transform="translate(53.056 -62.03)" fill="#ffeae9"/>
        <path id="Path_2986" data-name="Path 2986" d="M144.809,321.83a15.741,15.741,0,0,0-9.559,3.229,15.37,15.37,0,0,0-2.3,2.131,15.756,15.756,0,0,0-4.026,10.528,15.865,15.865,0,0,0,20.345,15.243,16.617,16.617,0,0,0,2.863-1.163,15.875,15.875,0,0,0-7.32-29.969Z" transform="translate(126.417 -94.912)" fill="#ffeae9"/>
        <path id="Path_2987" data-name="Path 2987" d="M93.669,284.167a15.956,15.956,0,1,0-12.9-6.653,17.072,17.072,0,0,0,2,2.3A15.8,15.8,0,0,0,93.669,284.167Z" transform="translate(67.456 -174.971)" fill="#ffeae9"/>
      </g>
    </g>
  </g>
</svg>
