<svg version="1.2" xmlns="http://www.w3.org/2000/svg" viewBox="0 0 96 96" width="96" height="96">
	<title>noun-global-investment-4620267</title>
	<style>
		.s0 { fill: #14142b;stroke: #14142b;stroke-width: 2.4 } 
		.s1 { fill: #000000;stroke: #14142b;stroke-width: 2.4 } 
		.s2 { fill: #ee4437;stroke: #ee4437;stroke-width: 2.4 } 
	</style>
	<g id="noun-global-investment-4620267">
		<path id="Path 1652" fill-rule="evenodd" class="s0" d="m56 78.2c0.2 0.6-0.1 1.2-0.6 1.4-4.3 1.5-8.9 2.3-13.5 2.3-22.1 0-40.1-18-40.1-40.1 0-22.1 17.9-40.1 40.1-40.1 9.9 0 19.5 3.7 26.9 10.4 0.4 0.4 0.4 1.1 0 1.5-0.3 0.4-1 0.5-1.4 0.1-7-6.4-16.1-9.9-25.5-9.9q-4.8 0-9.3 1.2c0 1.3 0.3 2.7 1 3.8 1.5 2.5 4.5 4.1 7.9 4.4q0.3 0 0.7 0c1.4 0.1 3 0.2 4.3 1.2 1.2 0.8 1.7 2.1 2.2 3.3l0.2 0.4q0.8 1.9 1.8 2.1c0.9 0.2 1.9-0.5 2.5-1.3q0.4-0.5 0.8-1.1c0.5-0.8 1-1.6 1.8-2.2 1.5-1.3 3.6-1.8 5.5-1.3 0.6 0.1 0.9 0.7 0.8 1.3-0.2 0.5-0.8 0.9-1.3 0.7-1.3-0.3-2.7 0-3.6 0.9-0.6 0.5-1 1.1-1.5 1.8q-0.4 0.6-0.9 1.2c-1.1 1.4-2.5 2.2-3.8 2.2q-0.3 0-0.7-0.1c-2.1-0.4-3-2.6-3.4-3.3l-0.2-0.5c-0.4-1-0.8-1.9-1.5-2.4-0.7-0.6-1.9-0.7-3.1-0.7q-0.4-0.1-0.8-0.1c-4.1-0.3-7.6-2.3-9.5-5.4-0.8-1.3-1.2-2.8-1.3-4.3q-2.3 0.7-4.4 1.7c1.7 1.8 3.1 4 3.8 6.3 0.8 2.8 0.8 5.8 0.8 8.7 0.1 3.3 0.1 6.5 1.4 9.4q0.3 0.6 0.6 1.3c0.4 0.7 0.8 1.5 1.1 2.4 0.7 1.7 0.5 3.5-0.3 4.8-1 1.4-2.7 2-4.4 2-0.7 0-1.5-0.2-2.2-0.3-4.1-1.1-7.5-4-9.2-7.8q-0.3-0.5-0.4-0.9c-0.3-0.6-0.5-1.2-0.8-1.7-0.2-0.3-0.8-1-1.6-1.1-1-0.2-1.9 0.8-2.9 1.8q-0.3 0.3-0.6 0.6c-1.1 1.1-4.4 3.1-7.1 3.6q-0.4 2.7-0.4 5.5c0 20.9 17 38 38 38 0.6 0 1.3-0.1 1.9-0.1q0-0.1-0.1-0.3c-0.5-1.5-0.9-2.9-1.8-4-1.3-1.7-3.7-2.7-6.9-3q-1.4-0.1-2.7-0.1c-2-0.1-4.1-0.2-6.1-0.7-2.7-0.8-6.1-2.9-6.7-6.5-0.6-3.6 2-6.6 4.5-8.2 2-1.2 4.2-1.8 6.4-2.4q1-0.3 2-0.6c2.1-0.7 5.1-1.8 6.6-4.2 0.7-1.1 1.1-2.4 1.5-3.9 0.2-0.9 0.5-1.8 0.9-2.8 1.5-3.6 4.7-6.5 8.5-7.6 2.7-0.7 6.1-0.4 7.9 2 1.2 1.8 1.1 3.8 0.9 5.3 0 0.6-0.5 1-1.1 0.9-0.6-0.1-1-0.6-1-1.2 0.2-1.7 0.1-2.9-0.6-3.8-1.1-1.5-3.6-1.7-5.5-1.2-3.2 0.9-5.9 3.4-7.2 6.4-0.3 0.8-0.5 1.7-0.8 2.6-0.4 1.5-0.9 3.1-1.7 4.5-1.9 2.9-5.4 4.2-7.8 5q-1 0.3-2 0.6c-2.1 0.6-4.2 1.1-5.9 2.2-2.1 1.3-3.9 3.6-3.5 6.1 0.4 2.5 3 4.1 5.1 4.7 1.8 0.5 3.7 0.6 5.6 0.6q1.4 0.1 2.8 0.2c3.9 0.3 6.8 1.6 8.4 3.8 1.1 1.4 1.7 3 2.2 4.6q0.1 0.4 0.2 0.8c3-0.3 5.9-1 8.8-2 0.5-0.2 1.1 0.1 1.3 0.6zm-51.4-44.1c2-0.6 4.4-1.9 5.3-2.9q0.3-0.2 0.5-0.5c1.2-1.2 2.7-2.7 4.7-2.4 1.2 0.1 2.3 0.9 3.1 2.1 0.4 0.7 0.7 1.3 1 2q0.1 0.4 0.3 0.8c1.5 3.2 4.5 5.7 7.9 6.6 1.5 0.4 3.5 0.4 4.3-0.8 0.7-1 0.3-2.4 0.1-2.9-0.3-0.7-0.6-1.4-1-2.1q-0.4-0.7-0.7-1.4c-1.5-3.3-1.5-6.9-1.5-10.3 0-2.9 0-5.6-0.8-8.1-0.7-2.2-2-4.3-3.8-5.9-9.8 5.2-17 14.6-19.4 25.8z"/>
		<path id="Path 1653" fill-rule="evenodd" class="s1" d="m31.1 47.2c0.9 0.9 1 1.8 0.9 2.4q-0.4 1.8-3.3 3.3c-2.9 1.4-6.1 2.3-9.3 2.6q-0.5 0-1 0-3 0-4.2-1.7c-0.8-1.1-0.8-2.6-0.8-3.5 0.1-0.7 0.1-1.6 0.4-2.5 0.4-1.1 1.2-1.9 2.2-2.1 0.8-0.2 2-0.2 3.5 1.2l0.4 0.4c0.5 0.5 1 1 1.4 1.1 0.9 0.3 2.1-0.3 3-0.9 1.3-0.8 4.4-2.7 6.8-0.3zm-5.6 2.1c-1.4 0.9-3.1 1.7-4.8 1.1-1-0.3-1.7-1-2.3-1.6l-0.3-0.3c-0.6-0.5-1.1-0.8-1.4-0.8q-0.1 0-0.2 0c-0.3 0.1-0.6 0.4-0.7 0.9-0.2 0.5-0.2 1.2-0.2 1.7 0 0.9 0 1.8 0.4 2.3q0.7 1 3.2 0.8c2.9-0.2 5.9-1.1 8.5-2.4 1.5-0.7 2.1-1.4 2.2-1.8q0-0.2-0.3-0.5c-0.9-0.9-2-0.8-4.1 0.6z"/>
		<path id="Path 1654" fill-rule="evenodd" class="s2" d="m94.3 69.4v3.4c0 1.1-0.9 1.9-1.9 1.9h-0.8l-3 11.3q0 0.3-0.2 0.5l-1.4 5.4c-0.4 1.4-1.7 2.4-3.1 2.4h-15.5c-1.5 0-2.8-1-3.2-2.4l-4.5-17.1h-0.8c-1.1 0-1.9-0.9-1.9-2v-3.4c0-1 0.8-1.9 1.9-1.9h15v-2.8h-5.7c-3.8 0-7-3.1-7-6.9v-6c0-1 0.8-1.8 1.8-1.8h6.1c1.8 0 3.5 0.7 4.8 2v-5.4c-7.8-0.6-13.9-7-13.9-14.9 0-8.3 6.7-15 14.9-15 8.3 0 15 6.7 15 15 0 7.9-6.2 14.3-13.9 14.9v3.5c1.5-1.6 3.6-2.7 6-2.7h7.4c1 0 1.8 0.8 1.8 1.8v7.4c0 4.5-3.6 8.1-8.1 8.1h-7.1v2.8h15.3c1.1 0 2 0.9 2 1.9zm-17.3-6.8h7.1c3.3 0 6-2.6 6-6v-7h-7.1c-3.3 0-6 2.6-6 5.9zm11.8-30.9c0-7.2-5.8-12.9-12.9-12.9-7.1 0-12.8 5.7-12.8 12.9 0 7.1 5.7 12.8 12.8 12.8 7.1 0 12.9-5.7 12.9-12.8zm-19.6 31h5.7v-5.8c-0.1-2.6-2.2-4.8-4.8-4.8h-5.7v5.7c0 2.7 2.1 4.8 4.8 4.8zm20.2 12.2h-26.5l4.4 16.6c0.1 0.5 0.6 0.8 1.1 0.8h15.5c0.5 0 0.9-0.3 1.1-0.8l1.1-4.3h-12.7c-0.6 0-1.1-0.5-1.1-1.1 0-0.6 0.5-1 1.1-1h13.3zm-29.4-2.2h32.1v-3h-32.1z"/>
		<path id="Path 1655" class="s2" d="m77 39.2v-0.8c1.7-0.5 2.9-2 2.9-3.8 0-2.2-1.8-4-4-4-1 0-1.8-0.8-1.8-1.9 0-1 0.8-1.8 1.8-1.8q0 0 0 0 0 0 0.1 0c1 0 1.8 0.8 1.8 1.8 0 0.6 0.4 1.1 1 1.1 0.6 0 1.1-0.5 1.1-1.1 0-1.8-1.2-3.3-2.9-3.8v-0.8c0-0.6-0.5-1.1-1.1-1.1-0.6 0-1 0.5-1 1.1v0.8c-1.7 0.5-3 2-3 3.8 0 2.2 1.8 4 4 4 1 0 1.9 0.8 1.9 1.9 0 1-0.8 1.8-1.8 1.8q-0.1 0-0.1 0 0 0 0 0c-1 0-1.9-0.8-1.9-1.8 0-0.6-0.4-1.1-1-1.1-0.6 0-1.1 0.5-1.1 1.1 0 1.8 1.3 3.3 2.9 3.8v0.8c0 0.6 0.5 1.1 1.1 1.1 0.6 0 1.1-0.5 1.1-1.1z"/>
	</g>
</svg>