<svg version="1.2" xmlns="http://www.w3.org/2000/svg" viewBox="0 0 105 106" width="105" height="106">
	<title>noun-team-1889013</title>
	<style>
		.s0 { fill: #000000 } 
		.s1 { fill: #ee4437 } 
	</style>
	<g id="noun-team-1889013">
		<path id="Path 1617" fill-rule="evenodd" class="s0" d="m45.8 10c-0.8-2.2-0.5-4.6 0.8-6.4 1.4-1.9 3.5-3 5.8-3 2.3 0 4.4 1.1 5.7 3 1.3 1.8 1.6 4.2 0.8 6.4-0.8 2.1-2.6 3.7-4.8 4.3v5.5h-3.5v-5.5c-2.2-0.6-4-2.2-4.8-4.3zm4.1-4.9c-0.6 0.7-1 1.6-1 2.5 0 0.9 0.4 1.8 1 2.5 0.7 0.6 1.6 1 2.5 1 0.9 0 1.8-0.4 2.4-1 0.7-0.7 1.1-1.6 1.1-2.5 0-0.9-0.4-1.8-1.1-2.5-0.6-0.6-1.5-1-2.4-1-0.9 0-1.8 0.4-2.5 1z"/>
		<path id="Path 1618" fill-rule="evenodd" class="s0" d="m58.9 95.9c0.8 2.2 0.5 4.6-0.8 6.4-1.3 1.9-3.4 3-5.7 3-2.3 0-4.4-1.1-5.8-3-1.3-1.8-1.6-4.2-0.8-6.4 0.8-2.1 2.6-3.7 4.8-4.3v-5.5h3.5v5.5c2.2 0.6 4 2.2 4.8 4.3zm-4.1 4.9c0.7-0.7 1.1-1.5 1.1-2.5 0-0.9-0.4-1.8-1.1-2.4-0.6-0.7-1.5-1.1-2.4-1.1-0.9 0-1.8 0.4-2.5 1.1-0.6 0.6-1 1.5-1 2.4 0 1 0.4 1.8 1 2.5 0.7 0.6 1.6 1 2.5 1 0.9 0 1.8-0.4 2.4-1z"/>
		<path id="Path 1619" fill-rule="evenodd" class="s0" d="m16 26.5c-1.3-1.3-2-3.1-2-5 0-1.8 0.7-3.6 2-4.9 1.4-1.3 3.1-2 5-2 1.8 0 3.6 0.7 4.9 2 1.1 1.1 1.8 2.5 2 4.1 0.2 1.5-0.1 3-0.9 4.4l3.2 3.2-2.5 2.4-3.2-3.2c-1.1 0.7-2.3 1-3.5 1-1.9 0-3.7-0.7-5-2zm1.5-5c0 1 0.3 1.9 1 2.5 0.7 0.6 1.5 1 2.5 1 0.9 0 1.8-0.4 2.4-1 0.7-0.6 1.1-1.5 1.1-2.5 0-0.9-0.4-1.8-1-2.5-0.7-0.6-1.6-1-2.5-1-1 0-1.9 0.4-2.5 1.1-0.7 0.6-1 1.5-1 2.4z"/>
		<path id="Path 1620" fill-rule="evenodd" class="s0" d="m84.7 77.5c1.5 0.2 2.9 0.9 4 1.9 1.3 1.3 2 2.9 2.1 4.7 0 1.7-0.5 3.4-1.7 4.7-1.1 1.4-2.7 2.2-4.4 2.5-1.7 0.2-3.5-0.2-4.9-1.2-1.4-1.1-2.4-2.6-2.8-4.3-0.4-1.7-0.1-3.5 0.8-5l-3.2-3.2 2.5-2.4 3.2 3.2c1.3-0.8 2.9-1.1 4.4-0.9zm2.6 6.9c0-1-0.4-1.8-1-2.5-0.7-0.7-1.6-1-2.5-1-0.9 0-1.8 0.3-2.5 1-0.6 0.7-1 1.5-1 2.5 0 0.9 0.4 1.8 1 2.4 0.7 0.7 1.6 1 2.5 1 0.9 0 1.8-0.3 2.5-1 0.6-0.6 1-1.5 1-2.4z"/>
		<path id="Path 1621" fill-rule="evenodd" class="s0" d="m102.5 47.8c1.3 1.2 2.1 2.8 2.2 4.5 0.2 1.8-0.4 3.5-1.4 4.9-1.1 1.4-2.6 2.3-4.4 2.6-1.7 0.3-3.4-0.1-4.9-1-1.5-0.9-2.5-2.4-3-4.1h-5.5v-3.5h5.5c0.4-1.5 1.3-2.8 2.5-3.8 1.2-0.9 2.7-1.4 4.2-1.4 1.8 0 3.5 0.6 4.8 1.8zm-2.3 7.6c0.7-0.6 1-1.5 1-2.4 0-1-0.3-1.9-1-2.5-0.6-0.7-1.5-1-2.5-1-0.9 0-1.8 0.3-2.4 1-0.7 0.6-1 1.5-1 2.5 0 0.9 0.3 1.8 1 2.4 0.6 0.7 1.5 1 2.4 1 1 0 1.9-0.3 2.5-1z"/>
		<path id="Path 1622" fill-rule="evenodd" class="s1" d="m64.8 48.9c0.2 0.7 0 1.5-0.7 2l-5.6 4.1 2.2 6.6c0.2 0.7 0 1.5-0.7 1.9-0.6 0.4-1.4 0.4-2 0l-5.6-4.1-5.6 4.1c-0.6 0.4-1.5 0.4-2.1 0-0.6-0.4-0.9-1.2-0.6-1.9l2.1-6.6-5.6-4.1c-0.6-0.5-0.9-1.3-0.6-2 0.2-0.7 0.9-1.2 1.6-1.2h7l2.1-6.6c0.3-0.7 0.9-1.2 1.7-1.2 0.7 0 1.4 0.5 1.6 1.2l2.2 6.6h6.9c0.8 0 1.4 0.5 1.7 1.2zm-9.4 4l2.3-1.7h-2.8c-0.7 0-1.4-0.5-1.7-1.2l-0.8-2.7-0.9 2.7c-0.2 0.7-0.9 1.2-1.7 1.2h-2.8l2.3 1.7c0.6 0.4 0.9 1.2 0.6 1.9l-0.8 2.7 2.2-1.6c0.7-0.5 1.5-0.5 2.1 0l2.3 1.6-0.9-2.7c-0.2-0.7 0-1.5 0.6-1.9z"/>
		<path id="Path 1623" fill-rule="evenodd" class="s0" d="m13.7 54.7c-0.5 2.2-2.2 4-4.3 4.8-2.1 0.8-4.5 0.5-6.4-0.8-1.9-1.3-3-3.5-3-5.7 0-2.3 1.1-4.5 3-5.8 1.9-1.3 4.3-1.6 6.4-0.8 2.1 0.8 3.8 2.6 4.3 4.8h5.5v3.5zm-4.2 0.7c0.6-0.6 1-1.5 1-2.4 0-1-0.4-1.9-1-2.5-0.7-0.7-1.6-1-2.5-1-0.9 0-1.8 0.3-2.5 1-0.6 0.6-1 1.5-1 2.5 0 0.9 0.4 1.8 1 2.4 0.7 0.7 1.6 1 2.5 1 0.9 0 1.8-0.3 2.5-1z"/>
		<path id="Path 1624" fill-rule="evenodd" class="s0" d="m30.2 77.6l-3.2 3.2c0.9 1.6 1.2 3.3 0.8 5.1-0.4 1.7-1.4 3.2-2.8 4.2-1.4 1.1-3.2 1.5-5 1.3-1.7-0.3-3.3-1.1-4.4-2.5-1.2-1.3-1.7-3.1-1.7-4.8 0.1-1.8 0.9-3.4 2.1-4.7 1.1-1 2.6-1.7 4.1-1.9 1.5-0.2 3 0.1 4.4 0.9l3.2-3.2zm-5.7 6.7c0-0.9-0.4-1.8-1-2.5-0.7-0.6-1.6-1-2.5-1-0.9 0-1.8 0.4-2.5 1-0.6 0.7-1 1.6-1 2.5 0 0.9 0.4 1.8 1 2.5 0.7 0.6 1.6 1 2.5 1 0.9 0 1.8-0.4 2.5-1 0.6-0.7 1-1.6 1-2.5z"/>
		<path id="Path 1625" fill-rule="evenodd" class="s0" d="m73.4 76.4l-5-5c-4 3.5-9 5.5-14.3 5.9v7.1h-3.5v-7.1c-5.2-0.4-10.2-2.4-14.2-5.9l-5 5-2.5-2.5 5-5c-3.4-3.9-5.5-8.9-5.9-14.2h-7v-3.5h7c0.4-5.2 2.5-10.2 5.9-14.2l-5-5 2.5-2.5 5 5c4-3.4 9-5.5 14.2-5.9v-7.1h3.5v7.1c5.3 0.4 10.3 2.5 14.3 5.9l5-5 2.4 2.5-5 5c3.5 4 5.5 9 5.9 14.2h7.1v3.5h-7.1c-0.4 5.3-2.4 10.3-5.9 14.2l5 5zm-6.2-8.6c4-3.9 6.2-9.3 6.2-14.8 0-5.6-2.2-10.9-6.1-14.8-4-3.9-9.3-6.2-14.9-6.2-5.5 0-10.8 2.3-14.8 6.2-3.9 3.9-6.1 9.2-6.1 14.8 0 5.5 2.2 10.9 6.1 14.8 4 3.9 9.3 6.1 14.8 6.1 5.6 0 10.9-2.2 14.8-6.1z"/>
		<path id="Path 1626" fill-rule="evenodd" class="s0" d="m74.6 28.3l3.2-3.2c-0.8-1.4-1.1-2.9-0.9-4.4 0.2-1.6 0.9-3 2-4.1 1.3-1.3 3.1-2 4.9-2 1.8 0 3.6 0.7 4.9 2 1.6 1.6 2.4 3.9 2 6.2-0.4 2.2-1.9 4.1-4 5.1-2.1 0.9-4.5 0.8-6.4-0.4l-3.2 3.2zm5.7-6.7c0 0.9 0.3 1.8 1 2.5 0.7 0.6 1.5 1 2.5 1 0.9 0 1.8-0.4 2.4-1 0.7-0.7 1.1-1.6 1.1-2.5 0-0.9-0.4-1.8-1-2.5-0.7-0.7-1.6-1-2.5-1-1 0-1.9 0.4-2.5 1-0.7 0.7-1 1.6-1 2.5z"/>
	</g>
</svg>