<svg version="1.2" xmlns="http://www.w3.org/2000/svg" viewBox="0 0 93 101" width="93" height="101">
	<title>noun-user-4178302</title>
	<style>
		.s0 { fill: #000000 } 
		.s1 { fill: #ee4437 } 
	</style>
	<g id="noun-user-4178302">
		<path id="Path 1648" fill-rule="evenodd" class="s0" d="m0.6 91c-0.4-0.4-0.6-1-0.6-1.5v-30.5c0-3.9 1.6-7.6 4.3-10.4 2.8-2.8 6.6-4.3 10.5-4.3h10.9v-7c-3.7-3.3-5.8-8-5.8-12.9v-6.8c0-4.7 1.8-9.1 5.1-12.4 3.3-3.3 7.7-5.1 12.3-5.1 4.7 0 9.1 1.8 12.4 5.1 3.3 3.3 5.1 7.7 5 12.4v6.8c0 4.9-2.1 9.6-5.7 12.9v7h10.9c3.9 0 7.7 1.5 10.5 4.3 2.7 2.8 4.3 6.5 4.3 10.4v0.8c6.9 1 12.9 5.5 15.8 11.9 2.9 6.3 2.4 13.7-1.3 19.7-3.8 5.9-10.3 9.5-17.3 9.5-7 0.1-13.6-3.4-17.4-9.2h-52.3c-0.6 0-1.1-0.3-1.6-0.7zm34.1-35.9h5.3v-2.9h-5.3zm-2.5 23.8l5.2 5.6 5.1-5.6-3.7-19.5h-2.9zm51-10.2c-3-3.1-7.2-4.8-11.5-4.8-4.3 0-8.5 1.7-11.5 4.8-3.1 3.1-4.8 7.2-4.8 11.5 0 4.4 1.7 8.5 4.8 11.6 3 3 7.2 4.7 11.5 4.7 4.3 0 8.5-1.7 11.5-4.7 3.1-3.1 4.8-7.3 4.8-11.6 0-4.3-1.7-8.4-4.8-11.5zm-16-17.1c-1.9-1.9-4.5-3-7.3-3h-12.5l-3 1.9v6.8c0 0.8-0.5 1.5-1.2 1.9l3.8 20c0.1 0.7-0.1 1.4-0.5 1.9l-5.7 6.1h11.4c-2.2-6.1-1.4-12.9 2.2-18.3 3.5-5.4 9.4-8.9 15.9-9.3v-0.6c0-2.8-1.1-5.4-3.1-7.4zm-39.1-18c2.4 2.5 5.8 3.9 9.2 3.9 3.5 0 6.8-1.4 9.3-3.9 2.4-2.4 3.8-5.8 3.8-9.3v-6.8c0-3.4-1.4-6.8-3.8-9.3-2.5-2.4-5.8-3.8-9.3-3.8-3.4 0-6.8 1.4-9.2 3.8-2.5 2.5-3.8 5.9-3.8 9.3v6.8c0 3.5 1.3 6.9 3.8 9.3zm2 6.5v5.1l4 2.5h6.4l4.1-2.5v-5.1c-2.3 1.1-4.8 1.6-7.3 1.7-2.5-0.1-5-0.6-7.2-1.7zm-25.7 47.1h29.4l-5.6-6.1c-0.5-0.5-0.7-1.2-0.5-1.9l3.7-20c-0.7-0.4-1.1-1.1-1.1-1.9v-6.8l-3.1-1.9h-12.4c-2.8 0-5.4 1.1-7.4 3-1.9 2-3 4.6-3 7.4z"/>
		<path id="Path 1649" class="s1" d="m64.5 77.5c-0.4-0.4-0.9-0.6-1.5-0.7-0.6 0-1.1 0.2-1.6 0.6-0.4 0.4-0.6 1-0.7 1.6 0 0.5 0.2 1.1 0.6 1.5l5.8 6.2c0.8 0.8 2.1 0.9 3 0.2l11.8-9.8c0.9-0.8 1-2.2 0.3-3.1-0.8-1-2.2-1.1-3.1-0.3l-10.2 8.5z"/>
	</g>
</svg>