<svg version="1.2" xmlns="http://www.w3.org/2000/svg" viewBox="0 0 103 103" width="103" height="103">
	<title>noun-exit-2964676</title>
	<style>
		.s0 { fill: #000000;stroke: #000000;stroke-width: 2 } 
		.s1 { fill: #ee4437;stroke: #ee4437;stroke-width: 2 } 
	</style>
	<g id="noun-exit-2964676">
		<path id="Path 1520" fill-rule="evenodd" class="s0" d="m24.3 69.1c-6.9 0-12.5-5.6-12.5-12.6 0-6.9 5.6-12.5 12.5-12.5 6.9 0 12.5 5.6 12.5 12.5 0 7-5.6 12.6-12.5 12.6zm9-12.6c0-4.9-4.1-8.9-9-8.9-5 0-9 4-9 8.9 0 5 4 9 9 9 4.9 0 9-4 9-9z"/>
		<path id="Path 1521" fill-rule="evenodd" class="s0" d="m47.6 96v3.5c0 0.5-0.2 1-0.5 1.3-0.4 0.3-0.8 0.5-1.3 0.5h-43c-0.5 0-0.9-0.2-1.3-0.5-0.3-0.3-0.5-0.8-0.5-1.3v-3.5c0-12.9 10.4-23.3 23.3-23.3 12.9 0 23.3 10.4 23.3 23.3zm-43 0v1.7h39.4v-1.7c0-11-8.8-19.8-19.7-19.8-11 0-19.7 8.8-19.7 19.8z"/>
		<path id="Path 1522" fill-rule="evenodd" class="s1" d="m75.5 17.4l25.3 25.3c0.7 0.7 0.7 1.9 0 2.6l-25.3 25.3c-0.6 0.5-1.3 0.7-2 0.4-0.7-0.3-1.1-0.9-1.1-1.7v-14.6h-30.2c-1 0-1.8-0.8-1.8-1.7v-18c0-0.9 0.8-1.7 1.8-1.7h30.2v-14.6c0-1 0.8-1.8 1.8-1.8 0.4 0 0.9 0.2 1.3 0.5zm0.5 17.6c0 0.5-0.2 1-0.5 1.3-0.4 0.4-0.8 0.5-1.3 0.5h-30.2v14.4h30.2c0.5 0 0.9 0.2 1.3 0.5 0.3 0.3 0.5 0.8 0.5 1.3v12l21-21-21-21z"/>
		<path id="Path 1523" class="s0" d="m24.3 1c-1 0-1.8 0.8-1.8 1.8v35.8c0 1 0.8 1.8 1.8 1.8 1 0 1.8-0.8 1.8-1.8v-34h53.7v11.4c0 0.5 0.2 0.9 0.5 1.2 0.4 0.4 0.8 0.6 1.3 0.6 1 0 1.8-0.8 1.8-1.8v-13.2c0-1-0.8-1.8-1.8-1.8zm57.3 69.3c-0.5 0-0.9 0.2-1.2 0.5-0.4 0.3-0.6 0.8-0.6 1.3v11.3h-28.9c-1 0-1.8 0.8-1.8 1.8 0 1 0.8 1.8 1.8 1.8h30.7c1 0 1.8-0.8 1.8-1.8v-13.1c0-1-0.8-1.8-1.8-1.8z"/>
	</g>
</svg>