<svg version="1.2" xmlns="http://www.w3.org/2000/svg" viewBox="0 0 76 101" width="76" height="101">
	<title>noun-idea-4847830 copy 2</title>
	<style>
		.s0 { fill: #000000 } 
		.s1 { fill: #ee4437 } 
	</style>
	<g id="noun-idea-4847830 copy 2">
		<path id="Path 1650" fill-rule="evenodd" class="s0" d="m54 75.3h1.2c1.4 0 2.5 1.1 2.5 2.5 0 1.3-1.1 2.5-2.5 2.5h-1.3v7.5c0 6.9-5.6 12.5-12.5 12.5h-7.5c-7 0-12.6-5.6-12.6-12.5v-7.5h-1.2c-1.4 0-2.5-1.2-2.5-2.5 0-1.4 1.1-2.5 2.5-2.5h1.2c-0.2-2.4-1.5-4.4-3.5-5.7-11.9-7.4-18.7-20.7-17.7-34.7 1.3-18.7 16.4-33.6 35.1-34.8 10.5-0.7 20.5 2.9 28.2 10.1 7.5 7.1 11.8 17.1 11.8 27.4 0 13.2-6.7 25.2-17.9 32.1-1.9 1.2-3.1 3.2-3.3 5.6zm-5.1 5h-22.6v7.5c0 4.1 3.4 7.5 7.6 7.5h7.5c4.1 0 7.5-3.4 7.5-7.5zm5.8-14.9c9.7-6 15.5-16.3 15.5-27.7 0-9.1-3.6-17.6-10.3-23.8-6.1-5.8-13.9-8.9-22.3-8.9q-1 0-2.1 0.1c-16.2 1-29.3 14-30.4 30.2-0.9 12.2 5 23.7 15.4 30.1 3.4 2.1 5.6 5.8 5.8 9.9h22.7c0.2-4.1 2.3-7.8 5.7-9.9z"/>
		<g id="noun-creative-1974554">
			<g id="noun-idea-4847830">
				<path id="Path 1650" fill-rule="evenodd" class="s1" d="m37.6 60.2c-12.5 0-22.6-10.1-22.6-22.6 0-12.5 10.1-22.5 22.6-22.5 12.5 0 22.6 10 22.6 22.5 0 12.5-10.1 22.6-22.6 22.6zm8.4-38c1.6 3.4 2.6 7.9 2.8 12.9h6.2c-0.8-5.6-4.2-10.3-9-12.9zm-2.2 17.9h-12.4c0.5 9.3 3.9 15.1 6.2 15.1 2.4 0 5.7-5.8 6.2-15.1zm0-5c-0.5-9.2-3.8-15-6.2-15-2.3 0-5.7 5.8-6.2 15zm-23.5 0h6.1c0.3-5 1.3-9.5 2.9-12.9-4.8 2.6-8.2 7.3-9 12.9zm9 18c-1.6-3.5-2.6-7.9-2.9-13h-6.1c0.8 5.6 4.2 10.4 9 13zm25.7-13h-6.1c-0.3 5.1-1.3 9.5-2.9 13 4.8-2.6 8.2-7.4 9-13z"/>
			</g>
		</g>
	</g>
</svg>