<svg version="1.2" xmlns="http://www.w3.org/2000/svg" viewBox="0 0 93 94" width="93" height="94">
	<title>noun-location-5248471</title>
	<style>
		.s0 { fill: #000000 } 
		.s1 { fill: #ee4437 } 
	</style>
	<g id="noun-location-5248471">
		<path id="Path 1558" fill-rule="evenodd" class="s0" d="m52.1 89.5h40.5v3.8h-92.6v-3.8h40.5c-9.7-7.8-30.9-27.4-30.9-52.1 0-9.7 3.9-19.1 10.8-25.9 6.9-6.9 16.2-10.8 25.9-10.8 9.7 0 19 3.9 25.9 10.8 6.9 6.8 10.8 16.2 10.8 25.9 0 24.7-21.2 44.3-30.9 52.1zm-5.8-0.5c5.8-4.2 32.8-25.3 32.8-51.6 0-11.7-6.3-22.6-16.4-28.4-10.1-5.9-22.6-5.9-32.8 0-10.1 5.8-16.4 16.7-16.4 28.4 0 26.3 27 47.4 32.8 51.6zm17.4-7.2h17.3v3.8h-17.3zm-52.1 0h17.3v3.9h-17.3z"/>
		<path id="Path 1651" fill-rule="evenodd" class="s1" d="m65.4 57.5c-5.1 5-11.9 7.9-19.1 7.9-7.2 0-14-2.8-19.1-7.9-5.1-5.1-7.9-11.9-7.9-19.1 0-7.2 2.8-14 7.9-19.1 5.1-5.1 11.9-7.9 19.1-7.9 7.2 0 14 2.8 19.1 7.9 5.1 5.1 7.9 11.9 7.9 19.1 0 7.2-2.8 14-7.9 19.1zm-2.7-2.7c3.8-3.9 6.2-9 6.7-14.5h-5.7v-3.8h5.7c-0.5-5.5-2.9-10.6-6.7-14.5-3.9-3.8-9-6.2-14.5-6.7v5.7h-3.8v-5.7c-5.5 0.5-10.6 2.9-14.5 6.7-3.8 3.9-6.2 9-6.7 14.5h5.7v3.8h-5.7c0.5 5.5 2.9 10.6 6.7 14.5 3.9 3.8 9 6.2 14.5 6.7v-5.7h3.8v5.7c5.5-0.5 10.6-2.9 14.5-6.7zm-3.5-29.3c0.6 0.5 0.7 1.2 0.5 1.9l-5.8 17.4c-0.2 0.6-0.6 1-1.2 1.2l-17.4 5.8c-0.7 0.2-1.4 0-1.9-0.5-0.6-0.5-0.7-1.2-0.5-1.9l5.8-17.4c0.2-0.6 0.6-1 1.2-1.2l17.4-5.8c0.7-0.2 1.4-0.1 1.9 0.5zm-4.4 4.4l-12.8 4.2-4.2 12.8 12.8-4.2zm-6.6 10.4h-3.9v-3.8h3.9z"/>
	</g>
</svg>