<svg version="1.2" xmlns="http://www.w3.org/2000/svg" viewBox="0 0 111 107" width="111" height="107">
	<title>noun-dice-1157262</title>
	<style>
		.s0 { fill: none;stroke: #000000;stroke-width: 10 } 
		.s1 { fill: #000000 } 
		.s2 { fill: none;stroke: #ee4437;stroke-width: 10 } 
		.s3 { fill: #ee4437 } 
	</style>
	<g id="noun-dice-1157262">
		<path id="Path 1473" class="s0" d="m5 62.5c0-5 4-9 9-9h30.5c4.9 0 9 4 9 9v30.4c0 5-4.1 9-9 9h-30.5c-5 0-9-4-9-9z"/>
		<path id="Path 1474" class="s1" d="m38 68.9c-2.3 0-4.2-1.9-4.2-4.2 0-2.3 1.9-4.2 4.2-4.2 2.3 0 4.2 1.9 4.2 4.2 0 2.3-1.9 4.2-4.2 4.2z"/>
		<path id="Path 1475" class="s1" d="m38 81.9c-2.3 0-4.2-1.9-4.2-4.2 0-2.3 1.9-4.2 4.2-4.2 2.3 0 4.2 1.9 4.2 4.2 0 2.3-1.9 4.2-4.2 4.2z"/>
		<path id="Path 1476" class="s1" d="m38 94.6c-2.3 0-4.2-1.9-4.2-4.2 0-2.4 1.9-4.3 4.2-4.3 2.3 0 4.2 1.9 4.2 4.3 0 2.3-1.9 4.2-4.2 4.2z"/>
		<path id="Path 1477" class="s1" d="m20.1 68.9c-2.3 0-4.2-1.9-4.2-4.2 0-2.3 1.9-4.2 4.2-4.2 2.3 0 4.2 1.9 4.2 4.2 0 2.3-1.9 4.2-4.2 4.2z"/>
		<path id="Path 1478" class="s1" d="m20.1 81.9c-2.3 0-4.2-1.9-4.2-4.2 0-2.3 1.9-4.2 4.2-4.2 2.3 0 4.2 1.9 4.2 4.2 0 2.3-1.9 4.2-4.2 4.2z"/>
		<path id="Path 1479" class="s1" d="m20.1 94.6c-2.3 0-4.2-1.9-4.2-4.2 0-2.4 1.9-4.3 4.2-4.3 2.3 0 4.2 1.9 4.2 4.3 0 2.3-1.9 4.2-4.2 4.2z"/>
		<path id="Path 1480" class="s2" d="m47.1 28.9l21.4-21.4c3.5-3.6 10-2.9 12.9 0l21.3 21.4c3.6 3.5 3.6 9.3 0 12.9l-21.3 21.3c-3.6 3.6-10 2.9-12.9 0l-21.4-21.3c-3.6-3.6-3.6-9.4 0-12.9z"/>
		<path id="Path 1481" class="s3" d="m77.9 32.3c1.7 1.7 1.7 4.4 0 6.1-1.7 1.7-4.4 1.7-6.1 0-1.7-1.7-1.7-4.4 0-6.1 1.7-1.7 4.4-1.7 6.1 0z"/>
	</g>
</svg>