<svg version="1.2" xmlns="http://www.w3.org/2000/svg" viewBox="0 0 100 101" width="100" height="101">
	<title>noun-boss-5627012 copy 2</title>
	<style>
		.s0 { fill: #000000 } 
		.s1 { fill: #ee4437 } 
	</style>
	<g id="noun-boss-5627012 copy 2">
		<path id="Path 1420" fill-rule="evenodd" class="s0" d="m15 79.3c-5.5 0-10-4.5-10-10 0-5.5 4.5-10 10-10 5.6 0 10 4.5 10 10 0 5.5-4.4 10-10 10zm6.7-10c0-3.7-3-6.6-6.7-6.6-3.6 0-6.6 2.9-6.6 6.6 0 3.7 3 6.7 6.6 6.7 3.7 0 6.7-3 6.7-6.7zm28.3 10c-5.5 0-10-4.5-10-10 0-5.5 4.5-10 10-10 5.5 0 10 4.5 10 10 0 5.5-4.5 10-10 10zm6.7-10c0-3.7-3-6.6-6.7-6.6-3.7 0-6.7 2.9-6.7 6.6 0 3.7 3 6.7 6.7 6.7 3.7 0 6.7-3 6.7-6.7zm28.3 10c-5.6 0-10-4.5-10-10 0-5.5 4.4-10 10-10 5.5 0 10 4.5 10 10 0 5.5-4.5 10-10 10zm6.6-10c0-3.7-3-6.6-6.6-6.6-3.7 0-6.7 2.9-6.7 6.6 0 3.7 3 6.7 6.7 6.7 3.6 0 6.6-3 6.6-6.7zm-61.6 28.3v1.7c0 0.9-0.7 1.6-1.6 1.6h-26.7c-0.9 0-1.6-0.7-1.6-1.6v-1.7c0-8.3 6.7-15 14.9-15 8.3 0 15 6.7 15 15zm-3.3 0c0-6.4-5.2-11.6-11.7-11.6-6.4 0-11.6 5.2-11.6 11.6zm38.3 0v1.7c0 0.9-0.8 1.6-1.7 1.6h-26.6c-0.9 0-1.7-0.7-1.7-1.6v-1.7c0-8.3 6.7-15 15-15 8.3 0 15 6.7 15 15zm-3.4 0c0-6.4-5.2-11.6-11.6-11.6-6.4 0-11.7 5.2-11.7 11.6zm38.3 0v1.7c0 0.9-0.7 1.6-1.6 1.6h-26.7c-0.9 0-1.6-0.7-1.6-1.6v-1.7c0-8.3 6.7-15 14.9-15 8.3 0 15 6.7 15 15zm-3.3 0c0-6.4-5.2-11.6-11.7-11.6-6.4 0-11.6 5.2-11.6 11.6zm-83.3-42.4v-2.5c0-2.8 2.3-5 5-5h30v-1.7c0-0.9 0.8-1.7 1.7-1.7 0.9 0 1.6 0.8 1.6 1.7v1.7h30.8c2.8 0 5 2.2 5 5v2.5c0 0.9-0.7 1.6-1.6 1.6-0.9 0-1.7-0.7-1.7-1.6v-2.5c0-1-0.7-1.7-1.7-1.7h-30.8v3.3c0 1-0.7 1.7-1.6 1.7-0.9 0-1.7-0.7-1.7-1.7v-3.3h-30c-0.9 0-1.6 0.7-1.6 1.7v2.5c0 0.9-0.8 1.6-1.7 1.6-0.9 0-1.7-0.7-1.7-1.6z"/>
		<g id="noun-boss-5627012">
			<path id="Path 1420" fill-rule="evenodd" class="s1" d="m50 20c-5.5 0-10-4.4-10-10 0-5.5 4.5-9.9 10-9.9 5.5 0 10 4.4 10 9.9 0 5.6-4.5 10-10 10zm6.7-10c0-3.6-3-6.6-6.7-6.6-3.7 0-6.7 3-6.7 6.6 0 3.7 3 6.7 6.7 6.7 3.7 0 6.7-3 6.7-6.7zm-21.7 30v-1.7c0-8.2 6.7-14.9 15-14.9 8.3 0 15 6.7 15 14.9v1.7c0 0.9-0.8 1.7-1.7 1.7h-26.6c-0.9 0-1.7-0.8-1.7-1.7zm3.3-1.7h23.4c0-6.4-5.3-11.6-11.7-11.6-6.4 0-11.7 5.2-11.7 11.6z"/>
		</g>
	</g>
</svg>