<svg version="1.2" xmlns="http://www.w3.org/2000/svg" viewBox="0 0 914 598" width="914" height="598">
	<title>startup-graphics03</title>
	<style>
		.s0 { fill: #ffdbd9 } 
		.s1 { fill: #f5f5f5 } 
		.s2 { fill: #faada8 } 
		.s3 { fill: #e0e0e0 } 
		.s4 { fill: #ffffff } 
		.s5 { fill: #ebebeb } 
		.s6 { fill: #263238 } 
		.s7 { fill: #ff725e } 
		.s8 { fill: #000000 } 
		.s9 { opacity: .3;fill: #000000 } 
		.s10 { fill: #263238;stroke: #14142b;stroke-width: 4 } 
		.s11 { fill: #ee4437 } 
		.s12 { fill: #ee4437;stroke: #ee4437;stroke-width: 4 } 
		.s13 { fill: #ae7461 } 
		.s14 { fill: #6f4439 } 
		.s15 { fill: #455a64 } 
		.s16 { fill: #14142b } 
		.s17 { fill: #ffbf9d } 
		.s18 { fill: #ff9a6c } 
	</style>
	<g id="startup-graphics03">
		<g id="Background_Complete">
			<path id="Path 1656" fill-rule="evenodd" class="s0" d="m29 115.5c3.2-1.9 6.5-3.3 10-4.3l2-9.8 16.6-0.3 2.4 9.7c3.5 0.9 6.9 2.2 10.1 4l8.4-5.5 12 11.5-5.2 8.6c1.9 3.2 3.3 6.5 4.3 10l9.9 2 0.3 16.7-9.8 2.4c-0.9 3.4-2.2 6.8-4 10l5.5 8.5-11.5 11.9-8.6-5.2c-3.2 1.9-6.5 3.4-10 4.3l-2 9.9-16.7 0.3-2.4-9.8c-3.4-0.9-6.8-2.2-10-4l-8.5 5.5-11.9-11.5 5.2-8.6c-1.9-3.2-3.4-6.5-4.3-10l-9.9-2-0.3-16.6 9.8-2.4c0.8-3.5 2.2-6.9 4-10.1l-5.5-8.4 11.5-12 8.6 5.2zm8.9 22.2c-6.9 7.1-6.7 18.3 0.4 25.2 7.1 6.8 18.4 6.6 25.2-0.5 6.9-7 6.7-18.3-0.4-25.2-7.1-6.8-18.4-6.6-25.2 0.5z"/>
			<path id="Path 1657" fill-rule="evenodd" class="s1" d="m179.1 163.4c2.5-1.5 5.1-2.6 7.8-3.4l1.6-7.7 13.1-0.3 1.9 7.7c2.8 0.7 5.4 1.7 8 3.2l6.6-4.4 9.4 9.1-4.1 6.8c1.5 2.5 2.7 5.1 3.4 7.8l7.8 1.6 0.2 13.1-7.7 1.9c-0.7 2.7-1.7 5.4-3.1 8l4.3 6.6-9.1 9.4-6.8-4.1c-2.4 1.5-5.1 2.6-7.8 3.4l-1.6 7.8-13.1 0.2-1.9-7.7c-2.7-0.7-5.4-1.7-7.9-3.1l-6.6 4.3-9.5-9.1 4.1-6.8c-1.5-2.4-2.6-5.1-3.4-7.8l-7.7-1.6-0.3-13.1 7.7-1.9c0.7-2.7 1.8-5.4 3.2-7.9l-4.4-6.7 9.1-9.4 6.8 4.1zm7 17.5c-5.4 5.6-5.3 14.5 0.3 19.8 5.6 5.4 14.5 5.3 19.9-0.3 5.4-5.6 5.2-14.5-0.4-19.9-5.5-5.4-14.4-5.2-19.8 0.4z"/>
			<path id="Path 1658" fill-rule="evenodd" class="s0" d="m73.4 17.2c2-1.2 4.2-2.1 6.4-2.8l1.3-6.2 10.6-0.2 1.5 6.2c2.2 0.6 4.4 1.4 6.5 2.5l5.3-3.5 7.6 7.4-3.3 5.5c1.2 2 2.2 4.1 2.8 6.3l6.3 1.3 0.1 10.6-6.2 1.6c-0.5 2.2-1.4 4.4-2.5 6.4l3.5 5.4-7.4 7.6-5.4-3.3c-2.1 1.2-4.2 2.1-6.4 2.7l-1.3 6.3-10.6 0.2-1.5-6.2c-2.3-0.6-4.4-1.4-6.5-2.6l-5.3 3.5-7.7-7.3 3.4-5.5c-1.3-2-2.2-4.1-2.8-6.4l-6.3-1.3-0.2-10.6 6.3-1.5c0.5-2.2 1.4-4.4 2.5-6.4l-3.5-5.4 7.4-7.6c0 0 5.4 3.3 5.4 3.3zm5.7 14.1c-4.4 4.6-4.3 11.8 0.3 16.1 4.5 4.4 11.7 4.3 16.1-0.3 4.3-4.5 4.2-11.7-0.3-16.1-4.5-4.3-11.7-4.2-16.1 0.3z"/>
			<path id="Path 1659" fill-rule="evenodd" class="s0" d="m134.5 95.1q2.4-1.4 5-2.2l1-4.9 8.4-0.2 1.2 5q2.6 0.6 5.1 2l4.2-2.8 6 5.8-2.6 4.3q1.4 2.4 2.2 5l4.9 1.1 0.2 8.3-4.9 1.3q-0.7 2.6-2 5l2.7 4.3-5.8 6-4.3-2.6q-2.4 1.4-5 2.1l-1.1 5-8.3 0.1-1.2-4.9q-2.7-0.6-5.1-2l-4.3 2.8-6-5.8 2.6-4.4q-1.4-2.3-2.1-5l-5-1-0.1-8.4 4.9-1.2q0.6-2.6 2-5.1l-2.8-4.2 5.8-6 4.4 2.6zm4.4 11.2c-3.4 3.5-3.3 9.2 0.2 12.7 3.6 3.4 9.3 3.3 12.7-0.3 3.5-3.5 3.4-9.2-0.2-12.7-3.6-3.4-9.2-3.3-12.7 0.3z"/>
			<path id="Path 1660" fill-rule="evenodd" class="s0" d="m431.6 94.8c-5.4 0-9.8-5-9.8-11.1 0-6.1 4.4-11.1 9.8-11.1 5.4 0 9.8 5 9.8 11.1 0 6.1-4.4 11.1-9.8 11.1zm4.2-11.1c0-3.5-1.9-6.4-4.1-6.4-2.3 0-4.2 2.9-4.2 6.4 0 3.5 1.9 6.4 4.2 6.4 2.2 0 4.1-2.9 4.1-6.4zm19.4-10.6h6.7l-27 40.1h-6.7zm3.3 40.5c-5.4 0-9.8-4.9-9.8-11 0-6.1 4.4-11.1 9.8-11.1 5.4 0 9.8 5 9.8 11.1 0 6.1-4.4 11-9.8 11zm4.1-11c0-3.5-1.8-6.4-4.1-6.4-2.3 0-4.1 2.9-4.1 6.4 0 3.5 1.8 6.3 4.1 6.3 2.3 0 4.1-2.8 4.1-6.3z"/>
			<path id="Path 1661" fill-rule="evenodd" class="s0" d="m34.4 441.7c0.4-10.1 6.8-16.3 15.4-15.9 8.6 0.3 14.4 6.9 13.9 17.2-0.4 10.2-6.7 16.2-15.3 15.9-8.7-0.4-14.5-7.1-14-17.2zm50.7-13.7l10 0.4-43 58.3-10.1-0.4zm-29.8 14.6c0.3-6.5-2.1-9.7-5.8-9.8-3.6-0.2-6.3 2.9-6.6 9.2-0.3 6.4 2.2 9.7 5.8 9.8 3.7 0.2 6.3-2.8 6.6-9.2zm18.1 29.1c0.5-10.1 6.8-16.3 15.4-15.9 8.6 0.4 14.5 7.1 14 17.2-0.4 10.1-6.8 16.3-15.4 15.9-8.6-0.4-14.4-7.1-14-17.2zm20.9 0.9c0.2-6.3-2.1-9.6-5.8-9.8-3.6-0.1-6.3 2.9-6.6 9.3-0.3 6.4 2.1 9.6 5.8 9.8 3.7 0.2 6.3-2.9 6.6-9.3z"/>
			<path id="Path 1662" fill-rule="evenodd" class="s0" d="m796.8 426c0.6-7.4 5.4-11.7 11.7-11.2 6.3 0.5 10.3 5.4 9.7 12.9-0.6 7.4-5.3 11.7-11.6 11.2-6.3-0.5-10.4-5.5-9.8-12.9zm37.4-8.7l7.3 0.5-32.9 41.5-7.3-0.6zm-22.2 10c0.4-4.7-1.2-7.1-3.9-7.3-2.7-0.2-4.7 1.9-5.1 6.6-0.3 4.6 1.4 7 4 7.3 2.7 0.2 4.7-1.9 5.1-6.6zm12.5 21.7c0.5-7.4 5.4-11.7 11.6-11.2 6.3 0.4 10.3 5.5 9.8 12.9-0.6 7.3-5.4 11.7-11.7 11.2-6.2-0.5-10.3-5.5-9.7-12.9zm15.1 1.2c0.4-4.7-1.2-7.1-3.9-7.3-2.7-0.2-4.7 1.9-5.1 6.6-0.3 4.7 1.4 7.1 4 7.3 2.7 0.2 4.7-2 5-6.6z"/>
			<g id="Group 444">
				<g id="Group 443">
					<path id="Path 1663" class="s0" d="m823.3 89.6c1.9 23.5-15.6 44.2-39.2 46.2-23.6 1.9-44.3-15.6-46.2-39.1-2-23.6 15.6-44.2 39.1-46.2 23.6-1.9 44.3 15.6 46.3 39.1z"/>
					<path id="Path 1664" class="s2" d="m813.1 90.4c1.5 18-11.9 33.7-29.8 35.2-18 1.5-33.8-11.8-35.3-29.8-1.5-17.9 11.9-33.6 29.9-35.1 17.9-1.5 33.7 11.8 35.2 29.7z"/>
					<path id="Path 1665" class="s3" d="m813 89.4c-0.2 0.1-0.4-1.4-1.2-3.8-0.7-2.4-2-6-4.5-9.7-1.3-1.8-2.9-3.7-4.8-5.5-2-1.8-4.3-3.5-6.9-4.9-1.3-0.7-2.7-1.3-4.1-1.8-1.5-0.5-3-1-4.6-1.3q-2.3-0.5-4.8-0.6-2.5-0.1-5.1 0.2-2.5 0.3-4.9 1c-1.6 0.4-3.2 1-4.6 1.6-1.5 0.7-2.9 1.5-4.2 2.3q-1.9 1.3-3.6 2.7c-2.3 2-4.1 4.1-5.6 6.3-1.5 2.2-2.6 4.4-3.4 6.5-1.7 4.2-2.1 7.9-2.3 10.4-0.1 2.6-0.1 4-0.3 4.1-0.1 0-0.5-1.4-0.6-4.1-0.2-2.6 0-6.5 1.5-11 0.8-2.2 1.9-4.6 3.4-7 1.5-2.4 3.4-4.8 5.8-6.9 1.2-1 2.4-2.1 3.8-3 1.4-0.9 2.9-1.7 4.5-2.5q2.3-1.1 4.9-1.8 2.6-0.7 5.4-1.1 2.7-0.3 5.4-0.2c1.8 0.1 3.5 0.4 5.2 0.7 1.7 0.4 3.4 0.9 4.9 1.4q2.4 0.9 4.4 2.1c2.8 1.5 5.2 3.4 7.2 5.4 2 1.9 3.6 4 4.9 6.1 2.5 4 3.6 7.8 4 10.4 0.5 2.5 0.4 4 0.3 4z"/>
				</g>
				<path id="Path 1666" fill-rule="evenodd" class="s4" d="m785.9 112.3l0.5 5.6-5 0.5-0.6-5.5c-5 0.2-10-0.9-13-2.8l2.2-6.4c2.7 1.6 6.5 2.6 10.2 2.6l-0.9-8.5c-5.7-0.8-12.2-2-12.9-9.3-0.5-5.3 3-10.3 10.9-12l-0.6-5.6 5.1-0.5 0.5 5.5c3.8-0.1 7.6 0.6 10.6 2.1l-2 6.5c-2.7-1.3-5.4-1.9-7.9-1.9l0.8 8.6c5.7 0.7 12.1 2 12.8 9.1 0.5 5.3-2.9 10.2-10.8 11.9zm-7.2-21.8l-0.7-7.2c-2.6 0.9-3.5 2.5-3.4 4.1 0.2 1.8 1.8 2.6 4.1 3.1zm9.9 11.3c-0.2-1.7-1.7-2.6-4-3.1l0.7 7c2.5-0.8 3.5-2.2 3.3-3.8z"/>
			</g>
			<g id="Group 446">
				<g id="Group 445">
					<path id="Path 1667" class="s0" d="m913.3 146.8c-1.4 16.2-15.7 28.2-31.9 26.8-16.2-1.4-28.2-15.6-26.8-31.8 1.4-16.1 15.6-28.1 31.8-26.7 16.2 1.4 28.2 15.6 26.9 31.7z"/>
					<path id="Path 1668" class="s2" d="m906.3 146.3c-1.1 12.3-11.9 21.4-24.3 20.4-12.3-1.1-21.5-11.9-20.4-24.3 1-12.3 11.9-21.4 24.2-20.4 12.4 1.1 21.5 11.9 20.5 24.3z"/>
					<path id="Path 1669" class="s3" d="m906.3 145.5c-0.1 0-0.1-0.9-0.3-2.7-0.2-1.7-0.7-4.3-2-7.1-0.7-1.4-1.5-2.8-2.6-4.3-1.2-1.4-2.5-2.8-4.1-4.1q-1.2-0.9-2.6-1.7-1.4-0.8-3-1.4-1.5-0.6-3.2-0.9-1.7-0.4-3.4-0.5-1.8-0.1-3.5 0.1c-1.1 0.1-2.2 0.4-3.3 0.6-1.1 0.3-2.1 0.7-3.1 1.1q-1.5 0.6-2.7 1.4c-1.8 1.1-3.3 2.3-4.5 3.6-1.3 1.3-2.3 2.7-3.1 4-1.6 2.7-2.3 5.2-2.8 6.9-0.4 1.7-0.5 2.7-0.6 2.7-0.1 0-0.2-1.1 0-2.9 0.2-1.7 0.8-4.4 2.3-7.2 0.8-1.5 1.8-3 3.1-4.4 1.3-1.4 2.9-2.8 4.7-4q1.4-0.9 3-1.6 1.5-0.7 3.3-1.2 1.7-0.4 3.5-0.6 1.8-0.2 3.7-0.1 1.9 0.1 3.8 0.4c1.2 0.3 2.3 0.7 3.4 1.1q1.7 0.7 3.2 1.5 1.5 0.9 2.7 1.9c1.7 1.4 3.2 2.9 4.3 4.5 1.1 1.6 2 3.2 2.6 4.7 1.2 3 1.5 5.7 1.5 7.5 0 1.8-0.2 2.8-0.3 2.8z"/>
				</g>
				<path id="Path 1670" fill-rule="evenodd" class="s4" d="m885.3 157.9l-0.2 3.9-3.5-0.2 0.2-3.8c-3.4-0.5-6.6-1.8-8.4-3.4l2.2-4.1c1.6 1.4 4.1 2.5 6.6 2.9l0.4-5.8c-3.8-1.2-8-2.8-7.7-7.8 0.3-3.7 3.2-6.7 8.7-6.9l0.3-3.9 3.5 0.3-0.3 3.8c2.6 0.4 5.1 1.2 6.9 2.6l-2 4.2c-1.7-1.2-3.5-1.9-5.2-2.2l-0.4 5.9c3.8 1.2 7.9 2.8 7.6 7.7-0.3 3.6-3.2 6.5-8.7 6.8zm-2.4-15.6l0.4-5c-1.9 0.3-2.7 1.3-2.8 2.4 0 1.2 1 2 2.4 2.6zm5.4 8.8c0.1-1.2-0.8-2-2.3-2.6l-0.3 4.8c1.7-0.2 2.6-1.1 2.6-2.2z"/>
			</g>
			<g id="Group 448">
				<g id="Group 447">
					<path id="Path 1671" class="s0" d="m894.8 21.8c4.7 15.6-4.2 31.9-19.8 36.6-15.6 4.6-32-4.2-36.6-19.8-4.7-15.5 4.2-31.9 19.8-36.6 15.6-4.6 32 4.3 36.6 19.8z"/>
					<path id="Path 1672" class="s2" d="m888.1 23.8c3.5 11.8-3.2 24.3-15.1 27.9-11.9 3.5-24.4-3.2-27.9-15.1-3.6-11.9 3.2-24.3 15.1-27.9 11.9-3.5 24.4 3.2 27.9 15.1z"/>
					<path id="Path 1673" class="s5" d="m887.9 23.1c-0.1 0.1-0.5-0.9-1.3-2.4-0.9-1.5-2.2-3.7-4.5-5.9-1.1-1-2.4-2.1-4-3-1.6-0.9-3.3-1.7-5.3-2.3q-1.5-0.4-3-0.7-1.6-0.2-3.3-0.2c-1.1 0-2.2 0.1-3.3 0.3q-1.7 0.3-3.4 0.9-1.7 0.5-3.2 1.3-1.5 0.8-2.8 1.8-1.4 0.9-2.5 2.1-1.2 1.1-2.1 2.3c-1.2 1.6-2.1 3.4-2.8 5-0.7 1.7-1.2 3.3-1.4 4.9-0.5 3-0.3 5.6-0.1 7.3 0.3 1.7 0.5 2.7 0.4 2.8-0.1 0-0.6-0.9-1-2.7-0.5-1.7-0.9-4.3-0.5-7.6 0.2-1.6 0.6-3.4 1.2-5.2 0.7-1.8 1.7-3.7 3-5.4q0.9-1.4 2.1-2.6 1.2-1.2 2.7-2.3 1.4-1 3-1.9 1.7-0.9 3.5-1.5 1.8-0.6 3.6-0.9c1.2-0.2 2.4-0.2 3.6-0.2q1.8 0 3.5 0.2 1.7 0.3 3.3 0.8c2.1 0.6 3.9 1.5 5.6 2.6 1.6 1 3 2.2 4.1 3.4 2.2 2.4 3.5 4.7 4.2 6.4 0.6 1.7 0.8 2.7 0.7 2.7z"/>
				</g>
				<path id="Path 1674" fill-rule="evenodd" class="s4" d="m872.8 42.3l1.2 3.7-3.3 1.1-1.2-3.6c-3.3 0.8-6.8 0.8-9.1-0.1l0.6-4.6c2 0.7 4.7 0.8 7.2 0.3l-1.8-5.6c-4 0.3-8.5 0.4-10-4.4-1.1-3.5 0.5-7.4 5.6-9.6l-1.2-3.7 3.4-1.1 1.1 3.7c2.6-0.6 5.2-0.7 7.4-0.1l-0.4 4.6c-2-0.4-3.9-0.5-5.6-0.2l1.8 5.7c3.9-0.3 8.4-0.3 9.8 4.4 1.1 3.4-0.5 7.2-5.5 9.5zm-7.9-13.7l-1.5-4.7c-1.6 1-2 2.1-1.7 3.2 0.4 1.2 1.6 1.5 3.2 1.5zm8.2 6.3c-0.3-1.2-1.5-1.5-3.1-1.6l1.4 4.6c1.6-0.9 2.1-2 1.7-3z"/>
			</g>
			<g id="Group 450">
				<g id="Group 449">
					<path id="Path 1675" class="s0" d="m223.8 489.1c-1.8 21.6-20.9 37.6-42.6 35.8-21.6-1.9-37.7-20.9-35.9-42.5 1.9-21.7 20.9-37.7 42.6-35.8 21.7 1.8 37.8 20.8 35.9 42.5z"/>
					<path id="Path 1676" class="s2" d="m214.5 488.3c-1.4 16.5-16 28.7-32.5 27.3-16.5-1.4-28.8-15.9-27.3-32.4 1.4-16.5 15.9-28.7 32.4-27.3 16.5 1.4 28.8 15.9 27.4 32.4z"/>
					<path id="Path 1677" class="s3" d="m214.6 487.3c-0.2 0-0.2-1.3-0.5-3.6-0.3-2.4-0.9-5.7-2.7-9.5-0.9-1.9-2-3.8-3.5-5.8-1.5-1.9-3.3-3.8-5.4-5.4q-1.7-1.3-3.5-2.3-1.9-1.1-4-1.9c-1.3-0.5-2.8-0.9-4.3-1.2q-2.2-0.5-4.6-0.7-2.3-0.1-4.6 0.2c-1.5 0.1-3 0.4-4.4 0.8-1.5 0.3-2.8 0.8-4.1 1.4-1.4 0.5-2.6 1.2-3.7 1.9-2.4 1.4-4.4 3.1-6.1 4.8-1.6 1.8-3 3.6-4.1 5.4-2.1 3.5-3.1 6.8-3.6 9.1-0.6 2.3-0.7 3.6-0.9 3.6-0.1 0-0.3-1.3 0-3.8 0.3-2.3 1.1-5.8 3.1-9.7 1.1-1.9 2.4-4 4.1-5.9 1.8-1.9 3.9-3.7 6.3-5.3 1.3-0.8 2.6-1.5 4-2.1 1.4-0.6 2.8-1.2 4.4-1.6 1.5-0.4 3.1-0.8 4.8-0.9q2.4-0.3 5-0.1 2.5 0.1 4.9 0.6c1.6 0.4 3.2 0.9 4.7 1.4 1.5 0.6 2.8 1.3 4.2 2.1q2 1.1 3.7 2.5c2.3 1.8 4.1 3.9 5.7 6 1.5 2.1 2.6 4.2 3.4 6.3 1.7 4 2.1 7.6 2.1 10 0 2.4-0.3 3.7-0.4 3.7z"/>
				</g>
				<path id="Path 1678" fill-rule="evenodd" class="s4" d="m186.4 503.9l-0.3 5.2-4.7-0.4 0.4-5c-4.6-0.7-8.9-2.4-11.4-4.6l3-5.5c2.2 1.9 5.5 3.4 8.8 4l0.6-7.8c-5.1-1.6-10.8-3.8-10.3-10.4 0.4-5 4.2-9 11.7-9.3l0.3-5.1 4.7 0.3-0.4 5.1c3.5 0.5 6.8 1.6 9.3 3.5l-2.7 5.5c-2.3-1.5-4.7-2.5-7-2.9l-0.6 7.9c5.1 1.6 10.7 3.7 10.2 10.3-0.3 4.8-4.2 8.8-11.5 9.2zm-3.2-21l0.4-6.6c-2.5 0.4-3.6 1.7-3.7 3.2-0.1 1.7 1.3 2.7 3.3 3.5zm7.2 11.7c0.1-1.6-1.2-2.6-3.2-3.4l-0.4 6.4c2.4-0.3 3.5-1.5 3.6-3z"/>
			</g>
			<g id="Group 451">
				<path id="Rectangle 574" class="s0" d="m685.4 457.4h29.9v93.5h-29.9z"/>
				<path id="Rectangle 575" class="s0" d="m730.1 478.8h30v72.1h-30z"/>
				<path id="Rectangle 576" class="s0" d="m771.5 508.1h30v42.8h-30z"/>
			</g>
		</g>
		<g id="Floor">
			<path id="Path 1679" class="s6" d="m883.1 564.9c0 0.1-189 0.3-422 0.3-233.1 0-422.1-0.2-422.1-0.3 0-0.2 189-0.4 422.1-0.4 233.1 0 422 0.2 422 0.4z"/>
		</g>
		<g id="Coins">
			<g id="Group 483">
				<g id="Group 459">
					<g id="Group 458">
						<g id="Group 455">
							<path id="Path 1680" class="s7" d="m858.8 194.7c11.5 28-2 60.1-30 71.6-28.1 11.4-60.1-2-71.6-30-11.5-28.1 2-60.1 30-71.6 28.1-11.5 60.1 1.9 71.6 30z"/>
							<g id="Group 452" style="opacity: .1">
								<path id="Path 1681" class="s4" d="m787.2 164.7c-28 11.5-41.4 43.5-30 71.6 0 0 36.4-13 39.1-30.9 2.7-17.9-9.1-40.7-9.1-40.7z"/>
							</g>
							<path id="Path 1682" class="s7" d="m845.5 199.2c8.7 21.3-1.5 45.7-22.8 54.4-21.3 8.7-45.7-1.5-54.4-22.8-8.7-21.3 1.5-45.7 22.8-54.4 21.3-8.7 45.6 1.5 54.4 22.8z"/>
							<g id="Group 453" style="opacity: .2">
								<path id="Path 1683" class="s8" d="m845.5 199.2c8.7 21.3-1.5 45.7-22.8 54.4-21.3 8.7-45.7-1.5-54.4-22.8-8.7-21.3 1.5-45.7 22.8-54.4 21.3-8.7 45.6 1.5 54.4 22.8z"/>
							</g>
							<path id="Path 1684" class="s7" d="m847.2 200.4c8.6 21-1.4 45-22.5 53.6-21 8.6-45-1.4-53.6-22.5-8.7-21 1.4-45 22.4-53.6 21.1-8.6 45.1 1.4 53.7 22.5z"/>
							<g id="Group 454" style="opacity: .2">
								<path id="Path 1685" class="s4" d="m847.2 200.4c8.6 21-1.4 45-22.5 53.6-21 8.6-45-1.4-53.6-22.5-8.7-21 1.4-45 22.4-53.6 21.1-8.6 45.1 1.4 53.7 22.5z"/>
							</g>
						</g>
						<g id="Group 457">
							<path id="Path 1686" fill-rule="evenodd" class="s7" d="m824.5 217.2c2 4.9 0.1 10.6-7.2 14.5l2.3 5.4-4 1.6-2.4-0.5 1.9-0.8-1.7-4c-4.8 1.6-10.1 1.9-13.5 0.8l0.2-5.8c3.2 1 7.4 0.9 11.2-0.2l-4-9.7c-5.9 0.9-12.3 1.5-15.1-5.2-2-4.9-0.2-10.7 7.1-14.5l-2.3-5.5 2.3-0.9-0.5-1.3 2.2 0.6 2.2 5.4c2.5-0.9 5.3-1.1 7.9-0.9l0.7-0.7 2.4 1.1v1 4.1 0.4c0 0-1.3-0.4-3.1-0.6-2 0-4 0.3-5.7 0.8q-0.1 0-0.1 0l4 9.7c5.9-0.9 12.4-1.6 15.2 5.2zm-23.1-13.2c-3.2 2-3.9 4.3-3.1 6.4 1 2.3 3.5 2.6 6.6 2.2zm13.8 22.4c3.3-2 4.1-4.2 3.3-6.3-1-2.3-3.5-2.6-6.8-2.2l3.5 8.5zm-9.9-24.1z"/>
							<g id="Group 456" style="opacity: .3">
								<path id="Path 1687" fill-rule="evenodd" class="s8" d="m824.5 217.2c2 4.9 0.1 10.6-7.2 14.5l2.3 5.4-4 1.6-2.4-0.5 1.9-0.8-1.7-4c-4.8 1.6-10.1 1.9-13.5 0.8l0.2-5.8c3.2 1 7.4 0.9 11.2-0.2l-4-9.7c-5.9 0.9-12.3 1.5-15.1-5.2-2-4.9-0.2-10.7 7.1-14.5l-2.3-5.5 2.3-0.9-0.5-1.3 2.2 0.6 2.2 5.4c2.5-0.9 5.3-1.1 7.9-0.9l0.7-0.7 2.4 1.1v1 4.1 0.4c0 0-1.3-0.4-3.1-0.6-2 0-4 0.3-5.7 0.8q-0.1 0-0.1 0l4 9.7c5.9-0.9 12.4-1.6 15.2 5.2zm-23.1-13.2c-3.2 2-3.9 4.3-3.1 6.4 1 2.3 3.5 2.6 6.6 2.2zm13.8 22.4c3.3-2 4.1-4.2 3.3-6.3-1-2.3-3.5-2.6-6.8-2.2l3.5 8.5zm-9.9-24.1z"/>
							</g>
							<path id="Path 1688" fill-rule="evenodd" class="s7" d="m815.2 231l2.2 5.4-4 1.7-2.2-5.4c-4.8 1.7-10 2-13.4 0.8l0.1-5.7c3.2 0.9 7.4 0.9 11.2-0.3l-3.9-9.7c-5.9 0.9-12.4 1.5-15.1-5.2-2.1-4.9-0.2-10.7 7-14.5l-2.2-5.4 3.9-1.6 2.2 5.3c3.7-1.3 7.7-1.7 11-1v5.6c-3.1-0.4-6.2-0.1-8.9 0.6l4 9.8c5.9-0.9 12.5-1.6 15.2 5.1 2 4.9 0.1 10.6-7.1 14.5zm-12.4-19l-3.6-8.6c-3.2 1.9-3.9 4.3-3 6.4 0.9 2.3 3.4 2.5 6.6 2.2zm13.5 7.5c-1-2.4-3.5-2.6-6.8-2.3l3.5 8.6c3.3-2 4.2-4.3 3.3-6.3z"/>
						</g>
					</g>
					<path id="Path 1689" class="s4" d="m795 215.3c0 0-0.7-0.1-1.6-0.6-0.9-0.6-2-1.7-2.6-3.3-0.5-1.5-0.4-3.1-0.1-4.1 0.4-1 0.8-1.5 0.8-1.5 0.1 0-0.3 0.6-0.5 1.6-0.2 1-0.3 2.5 0.2 3.9 0.6 1.5 1.6 2.5 2.4 3.1 0.8 0.6 1.4 0.9 1.4 0.9z"/>
					<path id="Path 1690" class="s4" d="m797.6 197c-0.1 0-0.5-0.6-0.9-1.5-0.3-0.9-0.5-1.6-0.4-1.7 0.1 0 0.5 0.7 0.8 1.5 0.4 0.9 0.6 1.7 0.5 1.7z"/>
					<path id="Path 1691" class="s4" d="m794.2 174c0 0-0.5 0.2-1.3 0.4q-0.6 0.2-1.5 0.6c-0.6 0.2-1.2 0.4-1.9 0.7q-1.1 0.5-2.3 1.1c-0.8 0.4-1.7 0.8-2.5 1.3-1.8 1.1-3.7 2.3-5.5 3.8-1.8 1.4-3.4 3-4.8 4.5-0.7 0.7-1.3 1.4-1.9 2.2q-0.8 1-1.5 2c-0.4 0.6-0.8 1.2-1.1 1.7q-0.5 0.7-0.9 1.3c-0.4 0.7-0.7 1.1-0.7 1.1 0 0 0.2-0.4 0.6-1.2q0.3-0.6 0.8-1.3c0.3-0.6 0.6-1.2 1.1-1.8q0.6-1 1.5-2.1c0.5-0.7 1.1-1.4 1.8-2.2 1.4-1.5 3-3.1 4.8-4.6 1.9-1.5 3.8-2.7 5.6-3.7 0.9-0.5 1.7-1 2.5-1.3q1.3-0.6 2.4-1.1c0.7-0.3 1.4-0.5 1.9-0.7q0.9-0.3 1.5-0.4c0.9-0.3 1.3-0.4 1.3-0.3z"/>
				</g>
				<g id="Group 466">
					<g id="Group 460">
						<path id="Rectangle 577" class="s7" d="m743.5 267.2h104.3v20.2h-104.3z"/>
						<path id="Path 1692" class="s6" d="m841.1 287.2c-0.3 0-0.5-4.4-0.5-9.8 0-5.5 0.2-9.8 0.5-9.8 0.2 0 0.4 4.3 0.4 9.8 0 5.4-0.2 9.8-0.4 9.8z"/>
						<path id="Path 1693" class="s6" d="m831.4 287.2c-0.3 0-0.5-4.4-0.5-9.8 0-5.5 0.2-9.8 0.5-9.8 0.3 0 0.5 4.3 0.5 9.8 0 5.4-0.2 9.8-0.5 9.8z"/>
						<path id="Path 1694" class="s6" d="m821.8 287.2c-0.2 0-0.4-4.4-0.4-9.8 0-5.5 0.2-9.8 0.4-9.8 0.3 0 0.5 4.3 0.5 9.8 0 5.4-0.2 9.8-0.5 9.8z"/>
						<path id="Path 1695" class="s6" d="m812.3 287.2c-0.2 0-0.4-4.4-0.4-9.8 0-5.5 0.2-9.8 0.4-9.8 0.3 0 0.5 4.3 0.5 9.8 0 5.4-0.2 9.8-0.5 9.8z"/>
						<path id="Path 1696" class="s6" d="m802.8 287.2c-0.2 0-0.4-4.4-0.4-9.8 0-5.5 0.2-9.8 0.4-9.8 0.3 0 0.5 4.3 0.5 9.8 0 5.4-0.2 9.8-0.5 9.8z"/>
						<path id="Path 1697" class="s6" d="m793.3 287.2c-0.2 0-0.4-4.4-0.4-9.8 0-5.5 0.2-9.8 0.4-9.8 0.3 0 0.5 4.3 0.5 9.8 0 5.4-0.2 9.8-0.5 9.8z"/>
						<path id="Path 1698" class="s6" d="m783.8 287.2c-0.2 0-0.4-4.4-0.4-9.8 0-5.5 0.2-9.8 0.4-9.8 0.3 0 0.5 4.3 0.5 9.8 0 5.4-0.2 9.8-0.5 9.8z"/>
						<path id="Path 1699" class="s6" d="m774.3 287.2c-0.2 0-0.4-4.4-0.4-9.8 0-5.5 0.2-9.8 0.4-9.8 0.3 0 0.5 4.3 0.5 9.8 0 5.4-0.2 9.8-0.5 9.8z"/>
						<path id="Path 1700" class="s6" d="m764.8 287.2c-0.2 0-0.5-4.4-0.5-9.8 0-5.5 0.3-9.8 0.5-9.8 0.3 0 0.5 4.3 0.5 9.8 0 5.4-0.2 9.8-0.5 9.8z"/>
						<path id="Path 1701" class="s6" d="m755.3 287.2c-0.2 0-0.4-4.4-0.4-9.8 0-5.5 0.2-9.8 0.4-9.8 0.3 0 0.5 4.3 0.5 9.8 0 5.4-0.2 9.8-0.5 9.8z"/>
						<path id="Path 1702" class="s6" d="m745.8 287.2c-0.3 0-0.5-4.4-0.5-9.8 0-5.5 0.2-9.8 0.5-9.8 0.3 0 0.5 4.3 0.5 9.8 0 5.4-0.2 9.8-0.5 9.8z"/>
					</g>
					<g id="Group 461">
						<path id="Rectangle 578" class="s7" d="m750.2 287.5h104.3v20.2h-104.3z"/>
						<path id="Path 1703" class="s6" d="m847.8 307.4c-0.3 0-0.5-4.4-0.5-9.8 0-5.4 0.2-9.8 0.5-9.8 0.2 0 0.4 4.4 0.4 9.8 0 5.4-0.2 9.8-0.4 9.8z"/>
						<path id="Path 1704" class="s6" d="m838.1 307.4c-0.2 0-0.5-4.4-0.5-9.8 0-5.4 0.3-9.8 0.5-9.8 0.3 0 0.5 4.4 0.5 9.8 0 5.4-0.2 9.8-0.5 9.8z"/>
						<path id="Path 1705" class="s6" d="m828.5 307.4c-0.2 0-0.4-4.4-0.4-9.8 0-5.4 0.2-9.8 0.4-9.8 0.3 0 0.5 4.4 0.5 9.8 0 5.4-0.2 9.8-0.5 9.8z"/>
						<path id="Path 1706" class="s6" d="m819 307.4c-0.2 0-0.4-4.4-0.4-9.8 0-5.4 0.2-9.8 0.4-9.8 0.3 0 0.5 4.4 0.5 9.8 0 5.4-0.2 9.8-0.5 9.8z"/>
						<path id="Path 1707" class="s6" d="m809.5 307.4c-0.2 0-0.4-4.4-0.4-9.8 0-5.4 0.2-9.8 0.4-9.8 0.3 0 0.5 4.4 0.5 9.8 0 5.4-0.2 9.8-0.5 9.8z"/>
						<path id="Path 1708" class="s6" d="m800 307.4c-0.2 0-0.4-4.4-0.4-9.8 0-5.4 0.2-9.8 0.4-9.8 0.3 0 0.5 4.4 0.5 9.8 0 5.4-0.2 9.8-0.5 9.8z"/>
						<path id="Path 1709" class="s6" d="m790.5 307.4c-0.2 0-0.4-4.4-0.4-9.8 0-5.4 0.2-9.8 0.4-9.8 0.3 0 0.5 4.4 0.5 9.8 0 5.4-0.2 9.8-0.5 9.8z"/>
						<path id="Path 1710" class="s6" d="m781 307.4c-0.2 0-0.4-4.4-0.4-9.8 0-5.4 0.2-9.8 0.4-9.8 0.3 0 0.5 4.4 0.5 9.8 0 5.4-0.2 9.8-0.5 9.8z"/>
						<path id="Path 1711" class="s6" d="m771.5 307.4c-0.2 0-0.4-4.4-0.4-9.8 0-5.4 0.2-9.8 0.4-9.8 0.3 0 0.5 4.4 0.5 9.8 0 5.4-0.2 9.8-0.5 9.8z"/>
						<path id="Path 1712" class="s6" d="m762 307.4c-0.2 0-0.4-4.4-0.4-9.8 0-5.4 0.2-9.8 0.4-9.8 0.3 0 0.5 4.4 0.5 9.8 0 5.4-0.2 9.8-0.5 9.8z"/>
						<path id="Path 1713" class="s6" d="m752.5 307.4c-0.3 0-0.5-4.4-0.5-9.8 0-5.4 0.2-9.8 0.5-9.8 0.3 0 0.5 4.4 0.5 9.8 0 5.4-0.2 9.8-0.5 9.8z"/>
						<path id="Path 1714" class="s6" d="m750.2 287.5c0 0.3 23.3 0.5 52 0.5 28.8 0 52.1-0.2 52.1-0.5 0-0.2-23.3-0.4-52.1-0.4-28.7 0-52 0.2-52 0.4z"/>
					</g>
					<g id="Group 462">
						<path id="Rectangle 579" class="s7" d="m744.2 307.4h104.3v20.2h-104.3z"/>
						<path id="Path 1715" class="s6" d="m841.8 327.4c-0.2 0-0.4-4.4-0.4-9.9 0-5.4 0.2-9.8 0.4-9.8 0.3 0 0.5 4.4 0.5 9.8 0 5.5-0.2 9.9-0.5 9.9z"/>
						<path id="Path 1716" class="s6" d="m832.1 327.4c-0.2 0-0.4-4.4-0.4-9.9 0-5.4 0.2-9.8 0.4-9.8 0.3 0 0.5 4.4 0.5 9.8 0 5.5-0.2 9.9-0.5 9.9z"/>
						<path id="Path 1717" class="s6" d="m822.6 327.4c-0.3 0-0.5-4.4-0.5-9.9 0-5.4 0.2-9.8 0.5-9.8 0.2 0 0.4 4.4 0.4 9.8 0 5.5-0.2 9.9-0.4 9.9z"/>
						<path id="Path 1718" class="s6" d="m813.1 327.4c-0.3 0-0.5-4.4-0.5-9.9 0-5.4 0.2-9.8 0.5-9.8 0.2 0 0.4 4.4 0.4 9.8 0 5.5-0.2 9.9-0.4 9.9z"/>
						<path id="Path 1719" class="s6" d="m803.6 327.4c-0.3 0-0.5-4.4-0.5-9.9 0-5.4 0.2-9.8 0.5-9.8 0.2 0 0.4 4.4 0.4 9.8 0 5.5-0.2 9.9-0.4 9.9z"/>
						<path id="Path 1720" class="s6" d="m794.1 327.4c-0.3 0-0.5-4.4-0.5-9.9 0-5.4 0.2-9.8 0.5-9.8 0.2 0 0.4 4.4 0.4 9.8 0 5.5-0.2 9.9-0.4 9.9z"/>
						<path id="Path 1721" class="s6" d="m784.6 327.4c-0.3 0-0.5-4.4-0.5-9.9 0-5.4 0.2-9.8 0.5-9.8 0.2 0 0.4 4.4 0.4 9.8 0 5.5-0.2 9.9-0.4 9.9z"/>
						<path id="Path 1722" class="s6" d="m775.1 327.4c-0.3 0-0.5-4.4-0.5-9.9 0-5.4 0.2-9.8 0.5-9.8 0.2 0 0.4 4.4 0.4 9.8 0 5.5-0.2 9.9-0.4 9.9z"/>
						<path id="Path 1723" class="s6" d="m765.6 327.4c-0.3 0-0.5-4.4-0.5-9.9 0-5.4 0.2-9.8 0.5-9.8 0.2 0 0.4 4.4 0.4 9.8 0 5.5-0.2 9.9-0.4 9.9z"/>
						<path id="Path 1724" class="s6" d="m756 327.4c-0.2 0-0.4-4.4-0.4-9.9 0-5.4 0.2-9.8 0.4-9.8 0.3 0 0.5 4.4 0.5 9.8 0 5.5-0.2 9.9-0.5 9.9z"/>
						<path id="Path 1725" class="s6" d="m746.5 327.4c-0.2 0-0.4-4.4-0.4-9.9 0-5.4 0.2-9.8 0.4-9.8 0.3 0 0.5 4.4 0.5 9.8 0 5.5-0.2 9.9-0.5 9.9z"/>
						<path id="Path 1726" class="s6" d="m744.2 307.5c0 0.2 23.3 0.4 52 0.4 28.8 0 52.1-0.2 52.1-0.4 0-0.3-23.3-0.5-52.1-0.5-28.7 0-52 0.2-52 0.5z"/>
					</g>
					<g id="Group 463" style="opacity: .3">
						<path id="Rectangle 580" class="s8" d="m743.5 267.2h104.3v20.2h-104.3z"/>
					</g>
					<g id="Group 464" style="opacity: .3">
						<path id="Rectangle 581" class="s8" d="m750.2 287.5h104.3v20.2h-104.3z"/>
					</g>
					<g id="Group 465" style="opacity: .3">
						<path id="Rectangle 582" class="s8" d="m744.2 307.4h104.3v20.2h-104.3z"/>
					</g>
				</g>
				<g id="Group 482">
					<g id="Group 467">
						<path id="Rectangle 583" class="s7" d="m671 162.6h104.2v21h-104.2z"/>
						<path id="Path 1727" class="s6" d="m768.5 183.3c-0.2 0-0.4-4.6-0.4-10.2 0-5.6 0.2-10.2 0.4-10.2 0.3 0 0.5 4.6 0.5 10.2 0 5.6-0.2 10.2-0.5 10.2z"/>
						<path id="Path 1728" class="s6" d="m758.9 183.3c-0.3 0-0.5-4.6-0.5-10.2 0-5.6 0.2-10.2 0.5-10.2 0.2 0 0.4 4.6 0.4 10.2 0 5.6-0.2 10.2-0.4 10.2z"/>
						<path id="Path 1729" class="s6" d="m749.3 183.3c-0.2 0-0.5-4.6-0.5-10.2 0-5.6 0.3-10.2 0.5-10.2 0.3 0 0.5 4.6 0.5 10.2 0 5.6-0.2 10.2-0.5 10.2z"/>
						<path id="Path 1730" class="s6" d="m739.8 183.3c-0.3 0-0.5-4.6-0.5-10.2 0-5.6 0.2-10.2 0.5-10.2 0.2 0 0.4 4.6 0.4 10.2 0 5.6-0.2 10.2-0.4 10.2z"/>
						<path id="Path 1731" class="s6" d="m730.3 183.3c-0.3 0-0.5-4.6-0.5-10.2 0-5.6 0.2-10.2 0.5-10.2 0.2 0 0.5 4.6 0.5 10.2 0 5.6-0.3 10.2-0.5 10.2z"/>
						<path id="Path 1732" class="s6" d="m720.8 183.3c-0.3 0-0.5-4.6-0.5-10.2 0-5.6 0.2-10.2 0.5-10.2 0.2 0 0.4 4.6 0.4 10.2 0 5.6-0.2 10.2-0.4 10.2z"/>
						<path id="Path 1733" class="s6" d="m711.3 183.3c-0.3 0-0.5-4.6-0.5-10.2 0-5.6 0.2-10.2 0.5-10.2 0.2 0 0.4 4.6 0.4 10.2 0 5.6-0.2 10.2-0.4 10.2z"/>
						<path id="Path 1734" class="s6" d="m701.8 183.3c-0.3 0-0.5-4.6-0.5-10.2 0-5.6 0.2-10.2 0.5-10.2 0.2 0 0.4 4.6 0.4 10.2 0 5.6-0.2 10.2-0.4 10.2z"/>
						<path id="Path 1735" class="s6" d="m692.3 183.3c-0.3 0-0.5-4.6-0.5-10.2 0-5.6 0.2-10.2 0.5-10.2 0.2 0 0.4 4.6 0.4 10.2 0 5.6-0.2 10.2-0.4 10.2z"/>
						<path id="Path 1736" class="s6" d="m682.8 183.3c-0.3 0-0.5-4.6-0.5-10.2 0-5.6 0.2-10.2 0.5-10.2 0.2 0 0.4 4.6 0.4 10.2 0 5.6-0.2 10.2-0.4 10.2z"/>
						<path id="Path 1737" class="s6" d="m673.3 183.3c-0.3 0-0.5-4.6-0.5-10.2 0-5.6 0.2-10.2 0.5-10.2 0.2 0 0.4 4.6 0.4 10.2 0 5.6-0.2 10.2-0.4 10.2z"/>
					</g>
					<g id="Group 469">
						<path id="Rectangle 584" class="s7" d="m662.3 183.9h104.3v21.1h-104.3z"/>
						<path id="Path 1738" class="s6" d="m759.8 204.7c-0.2 0-0.4-4.6-0.4-10.2 0-5.7 0.2-10.2 0.4-10.2 0.3 0 0.5 4.5 0.5 10.2 0 5.6-0.2 10.2-0.5 10.2z"/>
						<path id="Path 1739" class="s6" d="m750.2 204.7c-0.3 0-0.5-4.6-0.5-10.2 0-5.7 0.2-10.2 0.5-10.2 0.2 0 0.4 4.5 0.4 10.2 0 5.6-0.2 10.2-0.4 10.2z"/>
						<path id="Path 1740" class="s6" d="m740.6 204.7c-0.2 0-0.4-4.6-0.4-10.2 0-5.7 0.2-10.2 0.4-10.2 0.3 0 0.5 4.5 0.5 10.2 0 5.6-0.2 10.2-0.5 10.2z"/>
						<path id="Path 1741" class="s6" d="m731.1 204.7c-0.2 0-0.4-4.6-0.4-10.2 0-5.7 0.2-10.2 0.4-10.2 0.3 0 0.5 4.5 0.5 10.2 0 5.6-0.2 10.2-0.5 10.2z"/>
						<path id="Path 1742" class="s6" d="m721.6 204.7c-0.2 0-0.5-4.6-0.5-10.2 0-5.7 0.3-10.2 0.5-10.2 0.3 0 0.5 4.5 0.5 10.2 0 5.6-0.2 10.2-0.5 10.2z"/>
						<path id="Path 1743" class="s6" d="m712.1 204.7c-0.3 0-0.5-4.6-0.5-10.2 0-5.7 0.2-10.2 0.5-10.2 0.2 0 0.5 4.5 0.5 10.2 0 5.6-0.3 10.2-0.5 10.2z"/>
						<path id="Path 1744" class="s6" d="m702.6 204.7c-0.3 0-0.5-4.6-0.5-10.2 0-5.7 0.2-10.2 0.5-10.2 0.3 0 0.5 4.5 0.5 10.2 0 5.6-0.2 10.2-0.5 10.2z"/>
						<path id="Path 1745" class="s6" d="m693.1 204.7c-0.3 0-0.5-4.6-0.5-10.2 0-5.7 0.2-10.2 0.5-10.2 0.2 0 0.4 4.5 0.4 10.2 0 5.6-0.2 10.2-0.4 10.2z"/>
						<path id="Path 1746" class="s6" d="m683.6 204.7c-0.3 0-0.5-4.6-0.5-10.2 0-5.7 0.2-10.2 0.5-10.2 0.2 0 0.4 4.5 0.4 10.2 0 5.6-0.2 10.2-0.4 10.2z"/>
						<path id="Path 1747" class="s6" d="m674.1 204.7c-0.3 0-0.5-4.6-0.5-10.2 0-5.7 0.2-10.2 0.5-10.2 0.2 0 0.4 4.5 0.4 10.2 0 5.6-0.2 10.2-0.4 10.2z"/>
						<path id="Path 1748" class="s6" d="m664.6 204.7c-0.3 0-0.5-4.6-0.5-10.2 0-5.7 0.2-10.2 0.5-10.2 0.2 0 0.4 4.5 0.4 10.2 0 5.6-0.2 10.2-0.4 10.2z"/>
						<g id="Group 468" style="opacity: .3">
							<path id="Path 1749" class="s8" d="m764.9 183.9c-32.6 4.5-68.5 4.6-101 0.1z"/>
						</g>
						<path id="Path 1750" class="s6" d="m662.2 184c0 0.2 23.3 0.4 52.1 0.4 28.7 0 52-0.2 52-0.4 0-0.3-23.3-0.5-52-0.5-28.8 0-52.1 0.2-52.1 0.5z"/>
					</g>
					<g id="Group 471">
						<path id="Rectangle 585" class="s7" d="m667 205.3h104.3v21h-104.3z"/>
						<path id="Path 1751" class="s6" d="m764.6 226.1c-0.3 0-0.5-4.6-0.5-10.2 0-5.7 0.2-10.2 0.5-10.2 0.2 0 0.4 4.5 0.4 10.2 0 5.6-0.2 10.2-0.4 10.2z"/>
						<path id="Path 1752" class="s6" d="m754.9 226.1c-0.2 0-0.4-4.6-0.4-10.2 0-5.7 0.2-10.2 0.4-10.2 0.3 0 0.5 4.5 0.5 10.2 0 5.6-0.2 10.2-0.5 10.2z"/>
						<path id="Path 1753" class="s6" d="m745.4 226.1c-0.3 0-0.5-4.6-0.5-10.2 0-5.7 0.2-10.2 0.5-10.2 0.2 0 0.4 4.5 0.4 10.2 0 5.6-0.2 10.2-0.4 10.2z"/>
						<path id="Path 1754" class="s6" d="m735.9 226.1c-0.3 0-0.5-4.6-0.5-10.2 0-5.7 0.2-10.2 0.5-10.2 0.2 0 0.4 4.5 0.4 10.2 0 5.6-0.2 10.2-0.4 10.2z"/>
						<path id="Path 1755" class="s6" d="m726.4 226.1c-0.3 0-0.5-4.6-0.5-10.2 0-5.7 0.2-10.2 0.5-10.2 0.2 0 0.4 4.5 0.4 10.2 0 5.6-0.2 10.2-0.4 10.2z"/>
						<path id="Path 1756" class="s6" d="m716.9 226.1c-0.3 0-0.5-4.6-0.5-10.2 0-5.7 0.2-10.2 0.5-10.2 0.2 0 0.4 4.5 0.4 10.2 0 5.6-0.2 10.2-0.4 10.2z"/>
						<path id="Path 1757" class="s6" d="m707.3 226.1c-0.2 0-0.4-4.6-0.4-10.2 0-5.7 0.2-10.2 0.4-10.2 0.3 0 0.5 4.5 0.5 10.2 0 5.6-0.2 10.2-0.5 10.2z"/>
						<path id="Path 1758" class="s6" d="m697.8 226.1c-0.2 0-0.4-4.6-0.4-10.2 0-5.7 0.2-10.2 0.4-10.2 0.3 0 0.5 4.5 0.5 10.2 0 5.6-0.2 10.2-0.5 10.2z"/>
						<path id="Path 1759" class="s6" d="m688.3 226.1c-0.2 0-0.4-4.6-0.4-10.2 0-5.7 0.2-10.2 0.4-10.2 0.3 0 0.5 4.5 0.5 10.2 0 5.6-0.2 10.2-0.5 10.2z"/>
						<path id="Path 1760" class="s6" d="m678.8 226.1c-0.2 0-0.4-4.6-0.4-10.2 0-5.7 0.2-10.2 0.4-10.2 0.3 0 0.5 4.5 0.5 10.2 0 5.6-0.2 10.2-0.5 10.2z"/>
						<path id="Path 1761" class="s6" d="m669.3 226.1c-0.2 0-0.4-4.6-0.4-10.2 0-5.7 0.2-10.2 0.4-10.2 0.3 0 0.5 4.5 0.5 10.2 0 5.6-0.2 10.2-0.5 10.2z"/>
						<g id="Group 470" style="opacity: .3">
							<path id="Path 1762" class="s8" d="m769.6 205.3c-32.5 4.5-68.4 4.6-100.9 0.1z"/>
						</g>
						<path id="Path 1763" class="s6" d="m667 205.4c0 0.2 23.3 0.4 52 0.4 28.8 0 52.1-0.2 52.1-0.4 0-0.3-23.3-0.5-52.1-0.5-28.7 0-52 0.2-52 0.5z"/>
					</g>
					<g id="Group 473">
						<path id="Rectangle 586" class="s7" d="m664.7 226h104.3v21h-104.3z"/>
						<path id="Path 1764" class="s6" d="m762.3 246.7c-0.3 0-0.5-4.5-0.5-10.2 0-5.6 0.2-10.2 0.5-10.2 0.2 0 0.4 4.6 0.4 10.2 0 5.7-0.2 10.2-0.4 10.2z"/>
						<path id="Path 1765" class="s6" d="m752.6 246.7c-0.3 0-0.5-4.5-0.5-10.2 0-5.6 0.2-10.2 0.5-10.2 0.2 0 0.4 4.6 0.4 10.2 0 5.7-0.2 10.2-0.4 10.2z"/>
						<path id="Path 1766" class="s6" d="m743 246.7c-0.2 0-0.4-4.5-0.4-10.2 0-5.6 0.2-10.2 0.4-10.2 0.3 0 0.5 4.6 0.5 10.2 0 5.7-0.2 10.2-0.5 10.2z"/>
						<path id="Path 1767" class="s6" d="m733.5 246.7c-0.2 0-0.4-4.5-0.4-10.2 0-5.6 0.2-10.2 0.4-10.2 0.3 0 0.5 4.6 0.5 10.2 0 5.7-0.2 10.2-0.5 10.2z"/>
						<path id="Path 1768" class="s6" d="m724 246.7c-0.2 0-0.4-4.5-0.4-10.2 0-5.6 0.2-10.2 0.4-10.2 0.3 0 0.5 4.6 0.5 10.2 0 5.7-0.2 10.2-0.5 10.2z"/>
						<path id="Path 1769" class="s6" d="m714.5 246.7c-0.2 0-0.4-4.5-0.4-10.2 0-5.6 0.2-10.2 0.4-10.2 0.3 0 0.5 4.6 0.5 10.2 0 5.7-0.2 10.2-0.5 10.2z"/>
						<path id="Path 1770" class="s6" d="m705 246.7c-0.2 0-0.5-4.5-0.5-10.2 0-5.6 0.3-10.2 0.5-10.2 0.3 0 0.5 4.6 0.5 10.2 0 5.7-0.2 10.2-0.5 10.2z"/>
						<path id="Path 1771" class="s6" d="m695.5 246.7c-0.3 0-0.5-4.5-0.5-10.2 0-5.6 0.2-10.2 0.5-10.2 0.2 0 0.4 4.6 0.4 10.2 0 5.7-0.2 10.2-0.4 10.2z"/>
						<path id="Path 1772" class="s6" d="m686 246.7c-0.3 0-0.5-4.5-0.5-10.2 0-5.6 0.2-10.2 0.5-10.2 0.2 0 0.5 4.6 0.5 10.2 0 5.7-0.3 10.2-0.5 10.2z"/>
						<path id="Path 1773" class="s6" d="m676.5 246.7c-0.3 0-0.5-4.5-0.5-10.2 0-5.6 0.2-10.2 0.5-10.2 0.2 0 0.4 4.6 0.4 10.2 0 5.7-0.2 10.2-0.4 10.2z"/>
						<path id="Path 1774" class="s6" d="m667 246.7c-0.3 0-0.5-4.5-0.5-10.2 0-5.6 0.2-10.2 0.5-10.2 0.2 0 0.4 4.6 0.4 10.2 0 5.7-0.2 10.2-0.4 10.2z"/>
						<g id="Group 472" style="opacity: .3">
							<path id="Path 1775" class="s8" d="m767.3 226c-32.6 4.4-68.5 4.6-101 0z"/>
						</g>
						<path id="Path 1776" class="s6" d="m664.6 226.1c0 0.2 23.3 0.4 52.1 0.4 28.7 0 52-0.2 52-0.4 0-0.3-23.3-0.5-52-0.5-28.8 0-52.1 0.2-52.1 0.5z"/>
					</g>
					<g id="Group 475">
						<path id="Rectangle 587" class="s7" d="m674.6 246.3h104.3v21.1h-104.3z"/>
						<path id="Path 1777" class="s6" d="m772.2 267.1c-0.3 0-0.5-4.6-0.5-10.2 0-5.7 0.2-10.2 0.5-10.2 0.2 0 0.4 4.5 0.4 10.2 0 5.6-0.2 10.2-0.4 10.2z"/>
						<path id="Path 1778" class="s6" d="m762.5 267.1c-0.3 0-0.5-4.6-0.5-10.2 0-5.7 0.2-10.2 0.5-10.2 0.2 0 0.4 4.5 0.4 10.2 0 5.6-0.2 10.2-0.4 10.2z"/>
						<path id="Path 1779" class="s6" d="m752.9 267.1c-0.2 0-0.4-4.6-0.4-10.2 0-5.7 0.2-10.2 0.4-10.2 0.3 0 0.5 4.5 0.5 10.2 0 5.6-0.2 10.2-0.5 10.2z"/>
						<path id="Path 1780" class="s6" d="m743.4 267.1c-0.2 0-0.4-4.6-0.4-10.2 0-5.7 0.2-10.2 0.4-10.2 0.3 0 0.5 4.5 0.5 10.2 0 5.6-0.2 10.2-0.5 10.2z"/>
						<path id="Path 1781" class="s6" d="m733.9 267.1c-0.2 0-0.4-4.6-0.4-10.2 0-5.7 0.2-10.2 0.4-10.2 0.3 0 0.5 4.5 0.5 10.2 0 5.6-0.2 10.2-0.5 10.2z"/>
						<path id="Path 1782" class="s6" d="m724.4 267.1c-0.2 0-0.4-4.6-0.4-10.2 0-5.7 0.2-10.2 0.4-10.2 0.3 0 0.5 4.5 0.5 10.2 0 5.6-0.2 10.2-0.5 10.2z"/>
						<path id="Path 1783" class="s6" d="m714.9 267.1c-0.2 0-0.5-4.6-0.5-10.2 0-5.7 0.3-10.2 0.5-10.2 0.3 0 0.5 4.5 0.5 10.2 0 5.6-0.2 10.2-0.5 10.2z"/>
						<path id="Path 1784" class="s6" d="m705.4 267.1c-0.2 0-0.5-4.6-0.5-10.2 0-5.7 0.3-10.2 0.5-10.2 0.3 0 0.5 4.5 0.5 10.2 0 5.6-0.2 10.2-0.5 10.2z"/>
						<path id="Path 1785" class="s6" d="m695.9 267.1c-0.3 0-0.5-4.6-0.5-10.2 0-5.7 0.2-10.2 0.5-10.2 0.2 0 0.5 4.5 0.5 10.2 0 5.6-0.3 10.2-0.5 10.2z"/>
						<path id="Path 1786" class="s6" d="m686.4 267.1c-0.3 0-0.5-4.6-0.5-10.2 0-5.7 0.2-10.2 0.5-10.2 0.2 0 0.4 4.5 0.4 10.2 0 5.6-0.2 10.2-0.4 10.2z"/>
						<path id="Path 1787" class="s6" d="m676.9 267.1c-0.3 0-0.5-4.6-0.5-10.2 0-5.7 0.2-10.2 0.5-10.2 0.2 0 0.4 4.5 0.4 10.2 0 5.6-0.2 10.2-0.4 10.2z"/>
						<g id="Group 474" style="opacity: .3">
							<path id="Path 1788" class="s8" d="m777.2 246.4c-32.6 4.4-68.5 4.5-101 0z"/>
						</g>
						<path id="Path 1789" class="s6" d="m674.5 246.4c0 0.3 23.3 0.5 52.1 0.5 28.7 0 52-0.2 52-0.5 0-0.2-23.3-0.4-52-0.4-28.8 0-52.1 0.2-52.1 0.4z"/>
					</g>
					<g id="Group 477">
						<path id="Rectangle 588" class="s7" d="m662.4 267.2h104.2v20.2h-104.2z"/>
						<path id="Path 1790" class="s6" d="m759.9 287.2c-0.2 0-0.4-4.4-0.4-9.8 0-5.5 0.2-9.8 0.4-9.8 0.3 0 0.5 4.3 0.5 9.8 0 5.4-0.2 9.8-0.5 9.8z"/>
						<path id="Path 1791" class="s6" d="m750.3 287.2c-0.3 0-0.5-4.4-0.5-9.8 0-5.5 0.2-9.8 0.5-9.8 0.2 0 0.4 4.3 0.4 9.8 0 5.4-0.2 9.8-0.4 9.8z"/>
						<path id="Path 1792" class="s6" d="m740.7 287.2c-0.2 0-0.5-4.4-0.5-9.8 0-5.5 0.3-9.8 0.5-9.8 0.3 0 0.5 4.3 0.5 9.8 0 5.4-0.2 9.8-0.5 9.8z"/>
						<path id="Path 1793" class="s6" d="m731.2 287.2c-0.2 0-0.4-4.4-0.4-9.8 0-5.5 0.2-9.8 0.4-9.8 0.3 0 0.5 4.3 0.5 9.8 0 5.4-0.2 9.8-0.5 9.8z"/>
						<path id="Path 1794" class="s6" d="m721.7 287.2c-0.3 0-0.5-4.4-0.5-9.8 0-5.5 0.2-9.8 0.5-9.8 0.3 0 0.5 4.3 0.5 9.8 0 5.4-0.2 9.8-0.5 9.8z"/>
						<path id="Path 1795" class="s6" d="m712.2 287.2c-0.3 0-0.5-4.4-0.5-9.8 0-5.5 0.2-9.8 0.5-9.8 0.2 0 0.4 4.3 0.4 9.8 0 5.4-0.2 9.8-0.4 9.8z"/>
						<path id="Path 1796" class="s6" d="m702.7 287.2c-0.3 0-0.5-4.4-0.5-9.8 0-5.5 0.2-9.8 0.5-9.8 0.2 0 0.4 4.3 0.4 9.8 0 5.4-0.2 9.8-0.4 9.8z"/>
						<path id="Path 1797" class="s6" d="m693.2 287.2c-0.3 0-0.5-4.4-0.5-9.8 0-5.5 0.2-9.8 0.5-9.8 0.2 0 0.4 4.3 0.4 9.8 0 5.4-0.2 9.8-0.4 9.8z"/>
						<path id="Path 1798" class="s6" d="m683.7 287.2c-0.3 0-0.5-4.4-0.5-9.8 0-5.5 0.2-9.8 0.5-9.8 0.2 0 0.4 4.3 0.4 9.8 0 5.4-0.2 9.8-0.4 9.8z"/>
						<path id="Path 1799" class="s6" d="m674.2 287.2c-0.3 0-0.5-4.4-0.5-9.8 0-5.5 0.2-9.8 0.5-9.8 0.2 0 0.4 4.3 0.4 9.8 0 5.4-0.2 9.8-0.4 9.8z"/>
						<path id="Path 1800" class="s6" d="m664.7 287.2c-0.3 0-0.5-4.4-0.5-9.8 0-5.5 0.2-9.8 0.5-9.8 0.2 0 0.4 4.3 0.4 9.8 0 5.4-0.2 9.8-0.4 9.8z"/>
						<g id="Group 476" style="opacity: .3">
							<path id="Path 1801" class="s8" d="m765 267.2c-32.6 5.7-68.5 5.9-101 0.1z"/>
						</g>
						<path id="Path 1802" class="s6" d="m662.3 267.3c0 0.2 23.3 0.4 52.1 0.4 28.7 0 52-0.2 52-0.4 0-0.3-23.3-0.5-52-0.5-28.8 0-52.1 0.2-52.1 0.5z"/>
					</g>
					<g id="Group 479">
						<path id="Rectangle 589" class="s7" d="m669.1 287.5h104.2v20.2h-104.2z"/>
						<path id="Path 1803" class="s6" d="m766.6 307.4c-0.2 0-0.4-4.4-0.4-9.8 0-5.4 0.2-9.8 0.4-9.8 0.3 0 0.5 4.4 0.5 9.8 0 5.4-0.2 9.8-0.5 9.8z"/>
						<path id="Path 1804" class="s6" d="m757 307.4c-0.3 0-0.5-4.4-0.5-9.8 0-5.4 0.2-9.8 0.5-9.8 0.2 0 0.4 4.4 0.4 9.8 0 5.4-0.2 9.8-0.4 9.8z"/>
						<path id="Path 1805" class="s6" d="m747.4 307.4c-0.2 0-0.4-4.4-0.4-9.8 0-5.4 0.2-9.8 0.4-9.8 0.3 0 0.5 4.4 0.5 9.8 0 5.4-0.2 9.8-0.5 9.8z"/>
						<path id="Path 1806" class="s6" d="m737.9 307.4c-0.2 0-0.4-4.4-0.4-9.8 0-5.4 0.2-9.8 0.4-9.8 0.3 0 0.5 4.4 0.5 9.8 0 5.4-0.2 9.8-0.5 9.8z"/>
						<path id="Path 1807" class="s6" d="m728.4 307.4c-0.3 0-0.5-4.4-0.5-9.8 0-5.4 0.2-9.8 0.5-9.8 0.3 0 0.5 4.4 0.5 9.8 0 5.4-0.2 9.8-0.5 9.8z"/>
						<path id="Path 1808" class="s6" d="m718.9 307.4c-0.2 0-0.5-4.4-0.5-9.8 0-5.4 0.3-9.8 0.5-9.8 0.3 0 0.5 4.4 0.5 9.8 0 5.4-0.2 9.8-0.5 9.8z"/>
						<path id="Path 1809" class="s6" d="m709.4 307.4c-0.3 0-0.5-4.4-0.5-9.8 0-5.4 0.2-9.8 0.5-9.8 0.2 0 0.5 4.4 0.5 9.8 0 5.4-0.3 9.8-0.5 9.8z"/>
						<path id="Path 1810" class="s6" d="m699.9 307.4c-0.3 0-0.5-4.4-0.5-9.8 0-5.4 0.2-9.8 0.5-9.8 0.2 0 0.4 4.4 0.4 9.8 0 5.4-0.2 9.8-0.4 9.8z"/>
						<path id="Path 1811" class="s6" d="m690.4 307.4c-0.3 0-0.5-4.4-0.5-9.8 0-5.4 0.2-9.8 0.5-9.8 0.2 0 0.4 4.4 0.4 9.8 0 5.4-0.2 9.8-0.4 9.8z"/>
						<path id="Path 1812" class="s6" d="m680.9 307.4c-0.3 0-0.5-4.4-0.5-9.8 0-5.4 0.2-9.8 0.5-9.8 0.2 0 0.4 4.4 0.4 9.8 0 5.4-0.2 9.8-0.4 9.8z"/>
						<path id="Path 1813" class="s6" d="m671.4 307.4c-0.3 0-0.5-4.4-0.5-9.8 0-5.4 0.2-9.8 0.5-9.8 0.2 0 0.4 4.4 0.4 9.8 0 5.4-0.2 9.8-0.4 9.8z"/>
						<g id="Group 478" style="opacity: .3">
							<path id="Path 1814" class="s8" d="m771.7 287.5c-32.6 6.4-68.5 6.6-101 0z"/>
						</g>
						<path id="Path 1815" class="s6" d="m669 287.5c0 0.3 23.3 0.5 52.1 0.5 28.7 0 52-0.2 52-0.5 0-0.2-23.3-0.4-52-0.4-28.8 0-52.1 0.2-52.1 0.4z"/>
					</g>
					<g id="Group 481">
						<path id="Rectangle 590" class="s7" d="m663.1 307.4h104.3v20.2h-104.3z"/>
						<path id="Path 1816" class="s6" d="m760.7 327.4c-0.3 0-0.5-4.4-0.5-9.9 0-5.4 0.2-9.8 0.5-9.8 0.2 0 0.4 4.4 0.4 9.8 0 5.5-0.2 9.9-0.4 9.9z"/>
						<path id="Path 1817" class="s6" d="m751 327.4c-0.2 0-0.4-4.4-0.4-9.9 0-5.4 0.2-9.8 0.4-9.8 0.3 0 0.5 4.4 0.5 9.8 0 5.5-0.2 9.9-0.5 9.9z"/>
						<path id="Path 1818" class="s6" d="m741.5 327.4c-0.3 0-0.5-4.4-0.5-9.9 0-5.4 0.2-9.8 0.5-9.8 0.2 0 0.4 4.4 0.4 9.8 0 5.5-0.2 9.9-0.4 9.9z"/>
						<path id="Path 1819" class="s6" d="m731.9 327.4c-0.2 0-0.4-4.4-0.4-9.9 0-5.4 0.2-9.8 0.4-9.8 0.3 0 0.5 4.4 0.5 9.8 0 5.5-0.2 9.9-0.5 9.9z"/>
						<path id="Path 1820" class="s6" d="m722.5 327.4c-0.3 0-0.5-4.4-0.5-9.9 0-5.4 0.2-9.8 0.5-9.8 0.2 0 0.4 4.4 0.4 9.8 0 5.5-0.2 9.9-0.4 9.9z"/>
						<path id="Path 1821" class="s6" d="m712.9 327.4c-0.2 0-0.4-4.4-0.4-9.9 0-5.4 0.2-9.8 0.4-9.8 0.3 0 0.5 4.4 0.5 9.8 0 5.5-0.2 9.9-0.5 9.9z"/>
						<path id="Path 1822" class="s6" d="m703.4 327.4c-0.2 0-0.4-4.4-0.4-9.9 0-5.4 0.2-9.8 0.4-9.8 0.3 0 0.5 4.4 0.5 9.8 0 5.5-0.2 9.9-0.5 9.9z"/>
						<path id="Path 1823" class="s6" d="m693.9 327.4c-0.2 0-0.4-4.4-0.4-9.9 0-5.4 0.2-9.8 0.4-9.8 0.3 0 0.5 4.4 0.5 9.8 0 5.5-0.2 9.9-0.5 9.9z"/>
						<path id="Path 1824" class="s6" d="m684.4 327.4c-0.2 0-0.4-4.4-0.4-9.9 0-5.4 0.2-9.8 0.4-9.8 0.3 0 0.5 4.4 0.5 9.8 0 5.5-0.2 9.9-0.5 9.9z"/>
						<path id="Path 1825" class="s6" d="m674.9 327.4c-0.2 0-0.4-4.4-0.4-9.9 0-5.4 0.2-9.8 0.4-9.8 0.3 0 0.5 4.4 0.5 9.8 0 5.5-0.2 9.9-0.5 9.9z"/>
						<path id="Path 1826" class="s6" d="m665.4 327.4c-0.2 0-0.4-4.4-0.4-9.9 0-5.4 0.2-9.8 0.4-9.8 0.3 0 0.5 4.4 0.5 9.8 0 5.5-0.2 9.9-0.5 9.9z"/>
						<g id="Group 480" style="opacity: .3">
							<path id="Path 1827" class="s8" d="m765.7 307.4c-32.5 5.7-68.4 5.9-100.9 0.1z"/>
						</g>
						<path id="Path 1828" class="s6" d="m663.1 307.5c0 0.2 23.3 0.4 52 0.4 28.8 0 52.1-0.2 52.1-0.4 0-0.3-23.3-0.5-52.1-0.5-28.7 0-52 0.2-52 0.5z"/>
					</g>
					<path id="Path 1829" class="s6" d="m778.6 267.4q0 0 0-0.4 0-0.4 0-1.1 0-1.5-0.1-4.2c0-3.7 0.1-8.9 0.1-15.4l0.2 0.3c-3-0.1-6.4-0.1-10.1-0.2h-0.3v-0.3c0-6 0-12.6 0-19.8v-0.3h0.3q1.1 0 2.4 0l-0.4 0.4c0-3.9 0-7.9 0-12q0-4.8 0-9.4l0.4 0.3q-2.4 0-4.8 0h-0.3v-0.3c0-7.8 0-15 0-21.4v-0.3h0.3q4.7 0 8.7 0l-0.2 0.3c0.1-6.4 0.2-11.7 0.2-15.4q0.1-2.6 0.1-4.2 0.1-0.6 0.1-1.1 0-0.3 0-0.3 0 0 0.1 0.3 0 0.5 0 1.1 0 1.6 0 4.2c0 3.7 0 9 0 15.4v0.3h-0.3q-4 0-8.7 0l0.3-0.3c0 6.4 0.1 13.6 0.1 21.4l-0.4-0.4q2.4 0 4.8 0h0.4v0.4q0 4.6 0 9.4c0 4.1 0 8.1 0 12v0.3h-0.4c-0.8 0-1.6 0-2.3 0l0.3-0.3c0 7.1 0 13.8 0 19.8l-0.3-0.3c3.6 0.1 7 0.2 10.1 0.2h0.2v0.3c-0.1 6.4-0.2 11.7-0.2 15.4q-0.1 2.6-0.1 4.2-0.1 0.6-0.1 1.1 0 0.3 0 0.3z"/>
				</g>
			</g>
		</g>
		<g id="Light_Bulb">
			<g id="Group 494">
				<path id="Path 1830" class="s7" d="m84.5 314.7c-43.4-21.3-61.2-73.8-39.9-117.1 21.3-43.4 73.8-61.3 117.2-40 31.4 15.5 49.4 47.2 48.9 80.1 9.3 4.5 19.8 9.7 19.8 9.7l-33.9 68.8c0 0-11.3-5-21.3-9.7-25.5 18.9-60.4 23.2-90.8 8.2z"/>
				<path id="Path 1831" class="s4" d="m201.7 305.9q0 0-0.9-0.6-0.9-0.6-2.7-1.7c-2.4-1.5-5.9-3.7-10.5-6.5-9.2-5.5-22.6-13.2-39.7-21.9q-6.4-3.2-13.5-6.6-3.6-1.6-7.3-3.3c-2.4-1.2-5-2.4-7.8-2.8-1.5-0.2-3 0-4.3 0.5-1.4 0.5-2.7 1.4-3.4 2.9-0.6 1.4-0.4 3.1 0.3 4.4 0.7 1.4 1.8 2.6 3.2 3.4 2.7 1.6 6.1 1.4 9 0.2 2.9-1.2 5.4-3.4 7.1-6.2 1.7-2.7 2.6-6 2.4-9.3-0.1-3.3-1.3-6.5-3.2-9.3-1.9-2.8-4.5-5.1-7.6-6.6-1.5-0.8-3.1-1.5-4.9-1.7-1.7-0.2-3.6-0.1-5.1 0.9-0.8 0.6-1.4 1.3-1.7 2.2-0.3 0.9-0.4 1.8-0.3 2.7 0.1 1.8 1 3.5 2.2 4.8 1.3 1.3 2.7 2.4 4.3 3.3q2.3 1.4 4.7 2.5c3.3 1.4 6.7 2.6 10.4 3.1 3.6 0.4 7.4 0.2 10.8-1.4 1.7-0.7 3.3-1.7 4.6-3 1.3-1.4 2.4-2.9 3-4.7 0.6-1.7 0.7-3.6 0.4-5.4-0.3-1.9-1-3.6-1.9-5.2-1.8-3.1-4.3-5.7-6.9-8-1.4-1.2-2.7-2.2-4.1-3.3-1.4-1.1-2.8-2.1-4.3-2.9-1.6-0.8-3.4-1.4-5.2-1.1-0.9 0.1-1.7 0.4-2.5 0.9-0.7 0.6-1.3 1.4-1.5 2.3-0.2 0.9-0.1 1.8 0.2 2.6 0.3 0.9 0.8 1.6 1.3 2.3 1.1 1.4 2.4 2.5 3.7 3.5 5.4 3.9 11.8 6.4 18.3 6.2 3.2-0.2 6.3-1.2 9-2.8 2.6-1.7 4.8-4.1 5.8-7 1.1-2.9 0.8-6.1-0.3-8.8-1.1-2.8-3-5.1-5.5-6.6-1.2-0.8-2.6-1.3-4-1.6-1.4-0.2-2.9-0.2-4.1 0.6-0.7 0.3-1.2 0.9-1.4 1.6-0.3 0.7-0.3 1.4-0.1 2.1 0.4 1.4 1.3 2.5 2.2 3.4 2 1.8 4.4 2.9 6.5 4.2q3.3 1.8 6.4 3.5c16.8 9.3 30.5 16.6 40 21.4 4.8 2.5 8.5 4.3 11.1 5.5q1.9 0.9 2.9 1.3 1 0.5 1 0.5 0 0-1-0.5-1-0.5-2.9-1.4c-2.5-1.3-6.2-3.1-11-5.6-9.5-4.9-23.1-12.2-39.8-21.5q-3.2-1.8-6.4-3.6c-2.2-1.3-4.5-2.4-6.4-4.2-0.9-0.8-1.8-1.9-2.1-3.1-0.4-1.2 0.1-2.6 1.2-3.2 1.1-0.6 2.6-0.7 3.9-0.5 1.3 0.3 2.6 0.8 3.7 1.5 2.4 1.5 4.3 3.8 5.3 6.4 1.1 2.6 1.4 5.7 0.3 8.5-1 2.7-3 5.1-5.6 6.6-2.6 1.6-5.6 2.6-8.7 2.7-6.3 0.3-12.6-2.2-17.9-6.1-1.3-1-2.6-2-3.6-3.3-0.9-1.3-1.7-2.9-1.4-4.4 0.4-1.6 2-2.6 3.5-2.8 1.7-0.2 3.3 0.3 4.8 1.1 1.5 0.7 2.9 1.8 4.3 2.8q2 1.6 4 3.3c2.6 2.3 5.1 4.9 6.8 7.9 0.9 1.5 1.6 3.2 1.9 4.9 0.2 1.7 0.1 3.5-0.4 5.2-1.2 3.3-4.1 5.9-7.3 7.3-3.3 1.5-7 1.7-10.5 1.3-3.5-0.5-7-1.6-10.2-3.1-3.1-1.5-6.4-3-8.7-5.6-1.2-1.2-2-2.8-2.2-4.4-0.2-1.7 0.4-3.4 1.8-4.3 1.3-0.9 3.1-1 4.7-0.8 1.6 0.2 3.2 0.8 4.7 1.6 2.9 1.5 5.5 3.7 7.3 6.4 1.9 2.7 3.1 5.8 3.2 9 0.1 3.2-0.7 6.4-2.4 9-1.6 2.6-4 4.8-6.8 5.9-2.7 1.2-6 1.3-8.5-0.2-1.3-0.7-2.3-1.8-2.9-3.1-0.7-1.2-0.9-2.7-0.3-4 0.5-1.2 1.7-2.1 3-2.6 1.3-0.5 2.7-0.6 4.1-0.4 2.7 0.3 5.2 1.5 7.7 2.7q3.7 1.7 7.2 3.3 7.1 3.4 13.5 6.6c17.1 8.5 30.6 16.2 39.8 21.7 4.6 2.7 8.2 4.9 10.6 6.3q1.8 1.1 2.7 1.7 0.9 0.6 0.9 0.6z"/>
				<g id="_2gGvdE.tif">
					<path id="Path 1832" class="s6" d="m281.8 294.7c0 0 0.5 4.2 2 7.2 0.8 1.6 0.7 3.4-0.1 5l-7.5 15.4c-0.9 1.7-2.5 2.9-4.4 3.2-2.2 0.3-5.2 1.3-6.7 3.2l16.7-34z"/>
				</g>
				<path id="Path 1833" class="s3" d="m247.2 257c0.3 0.2 22.6 15.5 31.1 21.4 3.5 2.5 5.7 6.4 5.6 10.7-0.1 1.5-0.4 3.2-1.2 4.8-3.3 6.6-16.6 33.7-16.6 33.7 0 0-4.3 8.7-12.3 7.3-8.3-1.5-39.1-11.8-39.1-11.8z"/>
				<g id="Group 484">
					<path id="Path 1834" class="s3" d="m246.1 333.7l29-58.4c0.5-1 1.6-1.3 2.5-0.9l0.2 0.1c0.9 0.5 1.3 1.6 0.8 2.5l-29 58.5c-0.5 0.9-1.6 1.3-2.5 0.8l-0.2-0.1c-0.9-0.4-1.3-1.6-0.8-2.5z"/>
					<path id="Path 1835" class="s6" d="m249.6 335.5c0 0-0.2 0.5-1.1 0.8-0.5 0.2-1.1 0.1-1.6-0.2-0.6-0.3-1.1-1.1-0.9-2 1.6-3.2 4-7.8 6.9-13.6 5.8-11.6 13.7-27.5 22.5-45.1 0.2-0.5 0.7-0.8 1.2-0.9q0.4 0 0.7 0.1c0.3 0.1 0.6 0.3 0.7 0.4 0.4 0.4 0.6 0.9 0.5 1.4-0.1 0.5-0.5 1-0.7 1.6q-1.6 3.2-3.2 6.3-3.1 6.3-5.9 12c-3.8 7.6-7.2 14.5-10 20.3-2.9 5.8-5.1 10.5-6.8 13.8q-1.1 2.4-1.8 3.7-0.2 0.6-0.4 1-0.2 0.3-0.1 0.3 0 0 0.1-0.3 0.2-0.3 0.5-0.9 0.7-1.4 2-3.7c1.6-3.3 4-7.9 6.8-13.7 2.9-5.8 6.4-12.6 10.2-20.2 1.9-3.8 3.9-7.9 6-12q1.5-3.1 3.1-6.4l0.4-0.8c0.2-0.2 0.3-0.5 0.4-0.9 0.1-0.7-0.1-1.4-0.7-1.9-0.2-0.3-0.5-0.4-0.8-0.6q-0.6-0.2-1.1-0.1c-0.7 0.1-1.4 0.5-1.7 1.2-8.7 17.6-16.6 33.6-22.3 45.2-2.9 5.8-5.2 10.4-6.7 13.8-0.2 0.9 0.3 1.8 1 2.1 0.6 0.4 1.3 0.4 1.7 0.2 0.9-0.4 1.1-1 1.1-1z"/>
				</g>
				<g id="Group 485">
					<path id="Path 1836" class="s3" d="m237.9 331.2l30.3-60.9c0.4-0.9 1.5-1.3 2.5-0.8l0.1 0.1c1 0.4 1.3 1.5 0.9 2.4l-30.3 61c-0.5 0.9-1.6 1.3-2.5 0.8l-0.2-0.1c-0.9-0.4-1.3-1.5-0.8-2.5z"/>
					<path id="Path 1837" class="s6" d="m241.4 333c0 0-0.2 0.5-1.2 0.9-0.4 0.1-1 0-1.6-0.4-0.6-0.3-1-1.2-0.7-2 1.7-3.4 4.1-8.3 7.2-14.2 6-12 14.2-28.6 23.3-46.9 0.3-0.5 0.8-0.8 1.3-0.8q0.4-0.1 0.8 0.1c0.3 0.1 0.5 0.3 0.6 0.5 0.4 0.3 0.5 0.9 0.4 1.4-0.2 0.5-0.5 1.1-0.8 1.7q-1.7 3.3-3.3 6.6-3.2 6.5-6.1 12.4c-4 8-7.5 15.1-10.5 21.2-2.9 5.9-5.3 10.8-6.9 14.2q-1.2 2.5-1.9 3.9-0.3 0.6-0.5 1-0.1 0.4-0.1 0.4 0 0 0.2-0.3 0.2-0.4 0.5-1 0.7-1.4 2-3.9c1.7-3.3 4.1-8.2 7.1-14.1 3.1-6 6.6-13.2 10.6-21.1q3-6 6.2-12.4 1.6-3.3 3.3-6.6c0.2-0.6 0.5-1.1 0.8-1.8 0.2-0.7 0-1.5-0.5-2-0.2-0.3-0.6-0.5-0.9-0.6-0.3-0.2-0.7-0.3-1.1-0.2-0.7 0-1.4 0.5-1.7 1.2-9.1 18.3-17.3 34.9-23.3 46.9-2.9 6.1-5.3 10.9-6.9 14.3-0.4 1 0.1 1.9 0.8 2.3 0.6 0.4 1.3 0.5 1.8 0.3 1-0.4 1.1-1 1.1-1z"/>
				</g>
				<g id="Group 486">
					<path id="Path 1838" class="s3" d="m229.9 328.3l31.1-62.5c0.5-0.9 1.6-1.3 2.5-0.8h0.2c0.9 0.5 1.3 1.6 0.8 2.5l-31.1 62.6c-0.4 0.9-1.5 1.2-2.5 0.8l-0.1-0.1c-0.9-0.5-1.3-1.6-0.9-2.5z"/>
					<path id="Path 1839" class="s6" d="m233.4 330c0 0-0.2 0.6-1.1 0.9-0.5 0.2-1.1 0.1-1.7-0.3-0.6-0.4-1-1.3-0.6-2.2 1.8-3.5 4.3-8.4 7.3-14.5 6.2-12.3 14.6-29.3 24-48 0.2-0.5 0.7-0.8 1.3-0.8q0.4-0.1 0.7 0.1c0.3 0.2 0.5 0.3 0.7 0.5 0.4 0.4 0.5 1 0.3 1.5-0.3 0.5-0.6 1.1-0.9 1.7q-1.7 3.4-3.3 6.7c-2.2 4.5-4.3 8.7-6.3 12.8-4 8.1-7.7 15.5-10.7 21.6-3 6.2-5.4 11.1-7.1 14.6q-1.3 2.6-2 4-0.3 0.7-0.4 1.1-0.2 0.3-0.2 0.3 0 0 0.2-0.3 0.2-0.4 0.6-1 0.7-1.4 2-4c1.7-3.4 4.2-8.4 7.3-14.5 3.1-6.1 6.7-13.4 10.8-21.5 2-4.1 4.1-8.4 6.3-12.8q1.7-3.3 3.4-6.7c0.3-0.6 0.6-1.1 0.9-1.8 0.2-0.7 0.1-1.5-0.4-2.1-0.2-0.3-0.6-0.5-0.9-0.7-0.3-0.1-0.7-0.2-1.1-0.2-0.8 0-1.5 0.5-1.8 1.2-9.3 18.8-17.7 35.8-23.8 48.1-3 6.1-5.4 11.1-7.1 14.6-0.5 1 0 2 0.6 2.4 0.7 0.4 1.4 0.5 1.9 0.3 1-0.3 1.1-1 1.1-1z"/>
				</g>
				<g id="Group 487">
					<path id="Rectangle 591" class="s3" d="m222.1 328.1c-0.6-0.3-0.9-1.1-0.6-1.8l32.8-65.9c0.3-0.7 1.2-1 1.8-0.7l1.1 0.5c0.7 0.4 0.9 1.2 0.6 1.9l-32.8 65.9c-0.3 0.7-1.1 1-1.8 0.6z"/>
					<path id="Path 1840" class="s6" d="m225.2 327.6c0 0-0.2 0.6-1.2 0.9-0.5 0.1-1.1 0-1.7-0.5-0.6-0.4-0.9-1.4-0.4-2.2 1.8-3.6 4.4-8.8 7.6-15.1 6.4-12.8 15.1-30.4 24.8-49.8 0.3-0.5 0.8-0.8 1.4-0.8 0.5 0 1.2 0.3 1.5 0.7 0.3 0.5 0.3 1.1 0.1 1.6q-0.5 0.9-0.9 1.8-1.8 3.5-3.5 7-3.4 6.9-6.5 13.2c-4.2 8.5-8 16.1-11.1 22.5-3.1 6.3-5.7 11.5-7.4 15.1q-1.3 2.7-2 4.1-0.3 0.7-0.5 1.1-0.2 0.4-0.2 0.4 0.1 0 0.3-0.3 0.2-0.4 0.5-1.1 0.8-1.4 2.1-4.1c1.8-3.6 4.4-8.7 7.6-15 3.2-6.4 7-14 11.2-22.4 2.1-4.2 4.3-8.6 6.6-13.2q1.7-3.5 3.5-7 0.4-0.9 0.9-1.8c0.3-0.7 0.2-1.6-0.2-2.2-0.2-0.3-0.6-0.6-0.9-0.8-0.3-0.1-0.7-0.3-1.1-0.2-0.8 0-1.6 0.4-1.9 1.2-9.6 19.4-18.4 37-24.7 49.8-3.1 6.4-5.6 11.6-7.4 15.2-0.5 0.9-0.2 2 0.5 2.5 0.6 0.5 1.3 0.6 1.9 0.4 0.5-0.1 0.8-0.4 0.9-0.6 0.2-0.3 0.2-0.4 0.2-0.4z"/>
				</g>
				<path id="Path 1841" class="s7" d="m223.1 233.4c0.7 0.3 14.7 9 21.9 13.4 2.6 1.6 4.4 4.4 4.7 7.5l0.6 4.5-32.1 65-3.8 2.3c-2.7 1.6-6 1.9-8.9 0.7l-23.8-9.3c0 0 41.4-84.1 41.4-84.1z"/>
				<g id="Group 488" style="opacity: .3">
					<path id="Path 1842" class="s8" d="m277.4 279.1c-1.7 6.9-4.6 13.2-8 20.1-2.8 5.5-5.3 11.1-8.4 17-2.3 4.4-4.5 8.4-6.9 12.7-1.2 2.1-2.9 4.3-3.6 4.5z"/>
				</g>
				<g id="Group 489" style="opacity: .3">
					<path id="Path 1843" class="s8" d="m270.9 273c-1.9 7.5-5.1 14.3-8.7 21.7-3 5.9-5.7 11.9-9.1 18.3-2.4 4.7-4.8 9-7.3 13.6-1.3 2.4-3.2 4.7-3.8 5z"/>
				</g>
				<g id="Group 490" style="opacity: .3">
					<path id="Path 1844" class="s8" d="m263.4 269.3c-1.9 7.5-5.1 14.3-8.7 21.7-3 5.9-5.8 11.9-9.1 18.3-2.4 4.7-4.8 9-7.3 13.6-1.3 2.4-3.2 4.7-3.8 5 0 0 28.9-58.6 28.9-58.6z"/>
				</g>
				<g id="Group 491" style="opacity: .3">
					<path id="Path 1845" class="s8" d="m255.9 265.6c-1.9 7.5-5.1 14.3-8.7 21.7-3 5.9-5.7 11.9-9.1 18.3-2.4 4.7-4.8 9-7.3 13.6-1.3 2.4-3.2 4.7-3.8 5 0 0 28.9-58.6 28.9-58.6z"/>
				</g>
				<path id="Path 1846" class="s6" d="m204.2 244.3q0 0 0.2-1.1c0-0.7 0.2-1.7 0.2-3.1 0.2-2.6 0.3-6.5-0.1-11.3-0.4-4.8-1.4-10.5-3.2-16.6-1.8-6.1-4.6-12.5-8.4-18.8-3.8-6.3-8.3-11.7-12.9-16.2-4.5-4.4-9.1-7.9-13.2-10.4-4.1-2.6-7.6-4.3-10-5.4-1.2-0.6-2.2-0.9-2.9-1.2q-1-0.4-1-0.3 0 0 1 0.4c0.6 0.4 1.6 0.7 2.8 1.3 2.4 1.2 5.8 3 9.9 5.6 4 2.6 8.5 6 13 10.4 4.5 4.5 9 9.9 12.8 16.1 3.7 6.2 6.5 12.6 8.3 18.7 1.9 6 2.9 11.7 3.3 16.4 0.5 4.8 0.5 8.6 0.4 11.3 0 1.4-0.1 2.4-0.1 3.1q-0.1 1.1-0.1 1.1z"/>
				<path id="Path 1847" class="s6" d="m136.3 155.8c-0.1 0.2 1.9 0.8 4.3 1.3 2.5 0.5 4.5 0.8 4.5 0.7 0.1-0.2-1.9-0.8-4.3-1.3-2.5-0.5-4.5-0.8-4.5-0.7z"/>
				<path id="Path 1848" class="s6" d="m107 315c0 0-0.3-0.1-0.8-0.3q-1-0.2-2.6-0.7-0.9-0.2-1.9-0.4-1-0.4-2.2-0.8c-1.5-0.5-3.3-1-5.2-1.8q-1.4-0.6-3-1.3c-1-0.4-2.1-1-3.2-1.5-2.2-1-4.4-2.4-6.7-3.8-4.6-2.9-9.4-6.6-14-10.9-4.5-4.4-8.2-9.1-11.3-13.6-1.5-2.3-2.9-4.5-4-6.6-0.6-1.1-1.2-2.1-1.6-3.1q-0.7-1.6-1.4-3c-0.9-1.9-1.4-3.6-2-5.2-0.3-0.7-0.6-1.4-0.8-2.1q-0.3-1-0.5-1.9-0.5-1.5-0.8-2.5-0.3-0.9-0.3-0.9 0 0 0.2 0.9 0.2 1 0.6 2.6 0.2 0.9 0.5 1.9c0.2 0.6 0.5 1.4 0.7 2.2 0.6 1.5 1.1 3.3 2 5.2q0.7 1.4 1.3 3c0.5 1 1.1 2 1.7 3.1 1 2.2 2.5 4.4 3.9 6.7 3.1 4.6 6.9 9.3 11.4 13.7 4.6 4.4 9.4 8.1 14.1 11 2.3 1.4 4.6 2.7 6.8 3.7 1.1 0.6 2.1 1.1 3.2 1.6q1.5 0.6 3 1.2c1.9 0.8 3.7 1.3 5.3 1.8q1.2 0.4 2.2 0.7 1 0.2 1.9 0.4 1.6 0.3 2.6 0.5 0.9 0.2 0.9 0.2z"/>
				<g id="Group 492" style="opacity: .2">
					<path id="Path 1849" class="s4" d="m68.2 205.4c-2.6-3-3.2-7.8-2.4-12.8 1.2-7.1 5.4-13.3 11.3-17.6 17.1-12.4 32.5-16.7 54.5-13.2 7.4 1.2 18.5 5.4 23.3 11.7 2.4 3.1 3.6 7.1 2.9 11-1.8 10.1-13.9 12.9-23.5 11.6-8.9-1.2-18-4.6-26.7-2.1-7.1 2.1-12.5 7.8-18.9 11.6-6.3 3.9-15.6 5.4-20.5-0.2z"/>
				</g>
				<g id="Group 493" style="opacity: .2">
					<path id="Path 1850" class="s4" d="m49.7 235.4c-3.6-5.4-2.1-13.7 1.9-17 3.4-2.6 8-3.7 12.1-2.6 5 1.3 9.1 5.9 9.5 11.1 0.5 5.2-2.7 10.5-7.6 12.3-4.8 1.9-13 0.5-15.9-3.8z"/>
				</g>
				<path id="Path 1851" class="s9" d="m223.1 233.4c0.7 0.3 14.7 9 21.9 13.4 2.6 1.6 4.4 4.4 4.7 7.5l0.6 4.5-32.1 65-3.8 2.3c-2.7 1.6-6 1.9-8.9 0.7l-23.8-9.3c0 0 41.4-84.1 41.4-84.1z"/>
				<path id="Path 1852" class="s6" d="m181.5 318c0.1 0.1 9.5-18.7 21-41.9 11.5-23.3 20.6-42.2 20.5-42.3-0.2-0.1-9.6 18.7-21.1 42-11.4 23.2-20.6 42.1-20.4 42.2z"/>
				<path id="Path 1853" class="s6" d="m209.4 326.8c0.1 0.1 8.8-17.3 19.4-38.7 10.6-21.5 19-38.9 18.8-39-0.1-0.1-8.8 17.3-19.4 38.7-10.5 21.5-19 38.9-18.8 39z"/>
			</g>
		</g>
		<g id="Balance">
			<g id="Group 499">
				<g id="Group 497">
					<g id="Group 495">
						<path id="Path 1854" class="s0" d="m470.6 436.1c0 0-44-4.4-126.1-7.3-80.7-2.8-138-52.5-142-61.5l-29.6 5.1c0 0 52.6 63.1 137.8 78.3 85.3 15.3 163 35 163 35l-3.1-49.6z"/>
						<path id="Path 1855" class="s0" d="m470.6 436.1q0 0 0 0.8 0.1 0.8 0.2 2.4c0.2 2.2 0.4 5.4 0.7 9.6 0.5 8.4 1.4 20.8 2.4 36.8v0.3l-0.2-0.1c-28.8-7.1-70.2-16.8-120.1-26.7-12.5-2.5-25.6-5-39.1-7.4-3.3-0.6-6.7-1.3-10.1-2-1.8-0.3-3.5-0.7-5.2-1.2-1.7-0.4-3.4-0.7-5.1-1.2-6.9-1.8-13.7-4-20.6-6.4q-10.3-3.8-20.4-8.6-10.1-4.9-20-10.7c-13.2-7.8-25.9-16.9-38-27.2-8-6.9-15.7-14.1-22.5-21.9l-0.4-0.5 0.6-0.1q15.1-2.5 29.7-5h0.2l0.1 0.2c1.2 2.1 3 4 4.7 5.8 1.7 1.8 3.6 3.5 5.4 5.1 3.8 3.3 7.7 6.3 11.7 9.2 7.9 5.7 16.2 10.7 24.5 15.1 16.6 8.8 33.7 15.3 50.3 19.5 16.6 4.3 32.7 6.4 47.8 6.8 15.1 0.5 29.1 1.1 41.9 1.8 25.4 1.2 45.8 2.6 59.8 3.7 7 0.5 12.4 1 16.1 1.3q2.7 0.3 4.1 0.4 1.4 0.2 1.5 0.2 0 0-1.5-0.1-1.4-0.2-4.1-0.4c-3.7-0.3-9.1-0.7-16.1-1.2-14-1-34.4-2.3-59.9-3.5-12.7-0.6-26.7-1.2-41.8-1.7-15.1-0.4-31.3-2.4-48-6.7-16.6-4.2-33.7-10.7-50.4-19.5-8.3-4.5-16.6-9.5-24.6-15.2-4-2.8-7.9-5.9-11.7-9.1-1.9-1.7-3.8-3.4-5.5-5.2-1.8-1.8-3.6-3.6-4.8-6l0.4 0.2q-14.6 2.5-29.6 5l0.2-0.5c6.7 7.7 14.4 15 22.4 21.8 12 10.3 24.7 19.4 37.9 27.1q9.8 5.9 19.9 10.7 10.1 4.8 20.3 8.6 10.3 3.7 20.6 6.4c1.7 0.5 3.4 0.8 5.1 1.2 1.7 0.4 3.4 0.9 5.1 1.2q5.1 1 10.2 2c13.5 2.4 26.5 4.9 39 7.4 49.9 10 91.3 19.8 120.1 27l-0.3 0.2c-0.9-16-1.7-28.4-2.2-36.8-0.3-4.2-0.5-7.4-0.6-9.6q-0.1-1.6-0.1-2.5 0-0.8 0-0.8z"/>
					</g>
					<g id="Group 496">
						<path id="Path 1856" class="s3" d="m202.3 366.9q0.1 0.2 0.2 0.4l4.5-0.7-4.7 0.3z"/>
						<path id="Path 1857" class="s6" d="m202.3 366.9c-0.1-0.1 1.9-0.5 4.7-0.7l0.1 0.7c0 0-0.1 0.1-0.2 0.1-1.9 0.3-3.6 0.5-4.3 0.5h-0.2v-0.1c-0.1-0.4-0.1-0.6-0.1-0.5 0.1 0 0.2 0.2 0.3 0.4l-0.1-0.1c0.7-0.2 2.3-0.6 4.3-0.9q0 0 0.1-0.1l0.1 0.7c-2.4 0.2-4.5 0.1-4.7 0z"/>
					</g>
				</g>
				<g id="Group 498">
					<path id="Path 1858" class="s0" d="m741.3 326.4c-1 8.3-54.1 70.9-139.9 86.2-85.8 15.2-131.3 26.3-131.3 26.3l4.1 52.6c0 0 78.6-32.3 165.8-61 87.2-28.6 133-102.7 133-102.7 0 0-31.7-1.4-31.7-1.4z"/>
				</g>
				<path id="Path 1860" class="s2" d="m265.6 378h-192.3c-21.7 0-39.4-17.6-39.4-39.3v-19.4h271v19.4c0 21.7-17.6 39.3-39.3 39.3z"/>
				<path id="Path 1861" class="s2" d="m617.2 315.6h271v19.4c0 21.8-17.6 39.4-39.3 39.4h-192.4c-21.7 0-39.3-17.6-39.3-39.4v-19.4z"/>
				<path id="Path 2000" class="s2" d="m319.9 517.7h248.9v46.6h-248.9z"/>
				<path id="Path 1862" class="s0" d="m494.2 530.7h-99.7l10.1-130.1c1.7-20.7 19-36.7 39.7-36.7 20.8 0 38.1 16 39.7 36.7 0 0 10.2 130.1 10.2 130.1z"/>
				<path id="Ellipse 71" class="s4" d="m443.5 426.5c-8.4 0-15.2-6.8-15.2-15.2 0-8.4 6.8-15.1 15.2-15.1 8.4 0 15.2 6.7 15.2 15.1 0 8.4-6.8 15.2-15.2 15.2z"/>
				<path id="Path 1864" class="s6" d="m836.3 374.4c0 0.1-36.4 0.3-81.3 0.3-44.9 0-81.3-0.2-81.3-0.3 0-0.2 36.4-0.4 81.3-0.4 44.9 0 81.3 0.2 81.3 0.4z"/>
				<path id="Path 1865" class="s6" d="m249.5 377.2c0 0.2-36.4 0.4-81.3 0.4-44.8 0-81.2-0.2-81.2-0.4 0-0.2 36.3-0.3 81.2-0.3 44.9 0 81.3 0.1 81.3 0.3z"/>
			</g>
		</g>
		<g id="Speech_Bubble_2">
			<g id="Group 501">
				<g id="Group 500">
					<path id="Path 1866" class="s4" d="m620.2 77.8l13.1 1.3c5.2 6.6 12.5 11.7 21.3 14.4 19.9 5.8 41.5-4 50.2-22.8 10.9-23.7-1.9-51.4-27-58.4-20.1-5.7-41.8 4.6-50.1 23.8-4.2 9.8-4.5 20.2-1.5 29.6v-0.1l-6 12.2z"/>
					<path id="Path 1867" class="s10" d="m620.2 77.8c0 0 0.2-0.3 0.4-0.8q0.5-0.9 1.2-2.3 1.6-3.1 4.6-9h-0.4v0.1c0.1 0.1 0.2 0.1 0.3 0q0.1-0.1 0.1-0.2c-1.6-5.1-2.7-12.3-1.1-20.5 0.7-4.1 2.3-8.4 4.7-12.6 2.3-4.2 5.5-8.2 9.6-11.6 4.1-3.4 9.1-6.2 14.7-7.9 5.5-1.7 11.7-2.3 17.9-1.4 12.3 1.6 24.6 9.5 31 21.6l1.2 2.3 1 2.4c0.7 1.6 1 3.2 1.5 4.8 0.8 3.3 1.3 6.7 1.3 10 0 6.6-1.5 13-4.2 18.6-2.8 5.7-6.7 10.5-11.3 14.1-4.5 3.7-9.7 6.3-14.8 7.7-10.4 3-20.5 1.6-28.1-1.7-7.7-3.3-13-8.3-16.4-12.5q-0.1 0-0.1 0-6.3-0.6-9.7-0.8-1.6-0.2-2.5-0.2-0.9-0.1-0.9-0.1 0 0 0.8 0.1 0.9 0.1 2.5 0.3 3.4 0.4 9.8 1.1l-0.2-0.1c3.3 4.3 8.6 9.3 16.4 12.7 7.7 3.5 18.1 5 28.6 2 5.3-1.5 10.5-4.1 15.1-7.8 4.7-3.8 8.7-8.6 11.6-14.4 2.8-5.7 4.3-12.3 4.3-19.1 0-3.3-0.5-6.7-1.3-10.1-0.5-1.6-0.8-3.3-1.6-4.9l-1-2.5-1.2-2.3c-6.5-12.5-19.1-20.5-31.7-22.1-6.3-0.8-12.6-0.2-18.3 1.5-5.7 1.7-10.7 4.6-14.9 8.1-4.2 3.5-7.4 7.6-9.8 11.9-2.3 4.2-3.9 8.6-4.6 12.7-1.6 8.4-0.4 15.6 1.3 20.8l0.4-0.1c-0.1-0.2-0.2-0.2-0.3-0.1q-0.1 0-0.1 0.1-2.8 5.9-4.4 9.1-0.7 1.5-1 2.3-0.4 0.8-0.4 0.8z"/>
				</g>
				<path id="Path 1868" fill-rule="evenodd" class="s11" d="m668.4 69.4l-0.1 4.7-4.2-0.1v-4.6c-4.1-0.3-8.2-1.7-10.5-3.5l2.4-5.2c2.1 1.6 5.2 2.8 8.2 3.2l0.1-7.1c-4.7-1.2-9.9-2.9-9.8-8.9 0-4.5 3.3-8.3 10-9l0.1-4.7 4.3 0.1-0.1 4.6c3.2 0.3 6.2 1.2 8.6 2.7l-2.2 5.2c-2.2-1.3-4.4-2-6.5-2.3l-0.1 7.2c4.7 1.1 9.9 2.8 9.8 8.7-0.1 4.4-3.4 8.2-10 8.9zm-4-18.8l0.1-6c-2.3 0.5-3.2 1.7-3.2 3.1 0 1.5 1.2 2.3 3.1 2.9zm7.2 10.4c0-1.5-1.2-2.4-3.1-3v5.8c2.1-0.4 3-1.5 3.1-2.9z"/>
			</g>
		</g>
		<g id="Speech_Bubble_1">
			<g id="Group 503">
				<g id="Group 502">
					<path id="Path 1869" class="s4" d="m269.7 78.9l-3.4-12.6c4.3-7.1 6.6-15.6 5.9-24.7-1.5-20.5-18.1-37.1-38.6-38.5-25.7-1.9-46.9 19.6-44.7 45.3 1.8 20.6 18.9 37 39.5 38 10.6 0.6 20.3-2.9 28-8.8h-0.1l13.4 1.3z"/>
					<path id="Path 1870" class="s12" d="m269.7 78.9c0 0-0.4-0.1-0.9-0.1q-1-0.1-2.6-0.3-3.4-0.4-9.8-1.1l0.1 0.3c0.1-0.1 0.1-0.2 0-0.3-0.1-0.1-0.2-0.1-0.3 0-4.2 3.3-10.4 6.8-18.6 8.2-4.1 0.7-8.6 0.7-13.3 0-4.7-0.7-9.5-2.3-14.1-4.9-4.6-2.6-8.9-6.2-12.4-10.8-3.5-4.6-6.2-10.1-7.6-16.1-2.7-11.9 0.2-26.1 9.3-36.3l1.7-1.9 1.8-1.7c1.2-1.2 2.7-2.1 4-3.1 2.7-1.9 5.6-3.5 8.7-4.7 6.1-2.3 12.6-3.1 18.8-2.6 6.1 0.6 12 2.6 16.9 5.5 5 3 9.2 6.8 12.4 11.1 6.3 8.5 8.6 18.4 8.2 26.6-0.4 8.3-3.2 14.9-5.9 19.5q0 0.1 0 0.1 1.7 6 2.6 9.3 0.5 1.5 0.7 2.4 0.3 0.8 0.3 0.8 0 0-0.2-0.7-0.2-0.9-0.6-2.4-0.9-3.3-2.4-9.5l-0.1 0.2c2.9-4.6 5.7-11.2 6.1-19.7 0.5-8.3-1.7-18.4-8.1-27.1-3.2-4.3-7.5-8.3-12.5-11.3-5.1-3-11-5-17.3-5.6-6.3-0.6-13 0.2-19.2 2.6-3.2 1.2-6.1 2.8-9 4.7-1.3 1.1-2.7 2-4 3.2l-1.9 1.8-1.7 1.9c-9.3 10.4-12.3 24.9-9.4 37.1 1.4 6.2 4.1 11.8 7.7 16.4 3.6 4.7 8 8.4 12.7 11 4.7 2.6 9.6 4.2 14.4 4.9 4.8 0.7 9.4 0.6 13.5-0.1 8.3-1.5 14.5-5.2 18.7-8.5l-0.2-0.3h-0.1c0 0.1 0 0.3 0.1 0.3q0 0.1 0.1 0.1 6.5 0.5 10 0.8 1.6 0.2 2.5 0.2 0.9 0.1 0.8 0.1z"/>
				</g>
				<path id="Path 1871" class="s11" d="m229.7 64.9l-21.9-14.7 5.1-7.6 14.7 9.8 18.4-24.2 7.3 5.5z"/>
			</g>
		</g>
		<g id="Characters">
			<g id="Group 534">
				<g id="Group 519">
					<g id="Group 506">
						<g id="Group 504">
							<path id="Path 1872" class="s13" d="m585.1 120.4l0.8-66.1c0.7-16.4-8.2-30.5-24.7-30.8h-1.5c-15.3 0.7-27.5 12.9-28.1 28.3-0.6 14.2-1 29.9-0.6 37.6 0.8 15.7 16.7 17.5 16.7 17.5 0 0 0.1 9.6 0.1 14.2l-3.7 10.9 13-3.2 28-8.4z"/>
							<path id="Path 1873" class="s14" d="m547.7 106.9c0 0 9.9 0.2 20.3-6.9 0 0-4.5 12-20.3 11.3z"/>
							<path id="Path 1874" class="s6" d="m536.1 65.4c0 1.1 1 2.1 2.3 2.1 1.2 0 2.2-0.9 2.2-2.1 0-1.2-1-2.2-2.3-2.2-1.2 0-2.2 1-2.2 2.1z"/>
							<path id="Path 1875" class="s6" d="m535.2 58.6c0.3 0.3 1.9-1.1 4.4-1.2 2.4-0.1 4.2 1.1 4.5 0.8 0.1-0.2-0.2-0.7-1-1.2-0.8-0.5-2.1-1-3.6-1-1.5 0.1-2.8 0.7-3.5 1.3-0.7 0.6-1 1.1-0.8 1.3z"/>
							<path id="Path 1876" class="s6" d="m558.4 65.4c0 1.1 1 2.1 2.2 2.1 1.3 0 2.3-0.9 2.3-2.1 0-1.2-1-2.2-2.3-2.2-1.2 0-2.2 1-2.2 2.1z"/>
							<path id="Path 1877" class="s6" d="m559 58.2c0.3 0.2 1.9-1.1 4.3-1.2 2.4-0.1 4.3 1.1 4.5 0.8 0.2-0.2-0.1-0.7-0.9-1.2-0.8-0.6-2.2-1.1-3.7-1-1.5 0.1-2.7 0.7-3.4 1.3-0.8 0.6-1 1.1-0.8 1.3z"/>
							<path id="Path 1878" class="s6" d="m551 77.1c0-0.1-1.5-0.3-3.9-0.5-0.6-0.1-1.2-0.2-1.4-0.6-0.1-0.4 0.1-1.1 0.4-1.8q0.8-2.3 1.6-4.8c2.3-6.8 3.9-12.4 3.6-12.5-0.3-0.1-2.3 5.4-4.6 12.2q-0.8 2.5-1.5 4.8c-0.2 0.7-0.6 1.5-0.2 2.4 0.1 0.5 0.6 0.8 1 0.9 0.4 0.1 0.8 0.1 1.1 0.1 2.4 0 4 0 4-0.2z"/>
							<path id="Path 1879" class="s6" d="m557.9 50.6c0.3 0.6 2.6-0.1 5.5-0.3 2.9-0.3 5.3 0.1 5.5-0.5 0.1-0.3-0.4-0.8-1.4-1.3-1-0.5-2.6-0.8-4.3-0.7-1.7 0.1-3.2 0.7-4.1 1.3-1 0.6-1.4 1.2-1.2 1.5z"/>
							<path id="Path 1880" class="s6" d="m534.8 51.5c0.5 0.5 2.5-0.1 4.8-0.2 2.4-0.2 4.4 0.2 4.9-0.4 0.2-0.2-0.2-0.8-1-1.3-0.9-0.5-2.4-0.9-4-0.8-1.6 0.1-3 0.6-3.9 1.2-0.8 0.6-1 1.2-0.8 1.5z"/>
							<path id="Path 1881" class="s13" d="m585.1 66c0.3-0.1 10.7-3.6 10.8 7.2 0.1 10.8-10.8 8.6-10.8 8.3 0-0.3 0-15.5 0-15.5z"/>
							<path id="Path 1882" class="s14" d="m588.4 77.4c0 0 0.2 0.1 0.5 0.3 0.3 0.1 0.8 0.2 1.4 0 1.1-0.4 2.1-2.3 2.1-4.2 0-1-0.2-1.9-0.6-2.7-0.3-0.8-0.8-1.3-1.4-1.4-0.6-0.1-1 0.2-1.1 0.5-0.1 0.3 0 0.5-0.1 0.5 0 0.1-0.2-0.1-0.2-0.6 0.1-0.2 0.2-0.5 0.5-0.7 0.2-0.2 0.6-0.3 1-0.3 0.8 0.1 1.6 0.9 2 1.7 0.4 0.8 0.7 1.9 0.7 3-0.1 2.2-1.2 4.2-2.7 4.7-0.8 0.2-1.4 0-1.8-0.3-0.3-0.2-0.4-0.5-0.3-0.5z"/>
							<path id="Path 1883" class="s6" d="m558.7 78.6c-0.4 0-0.4 2.5-2.6 4.2-2.1 1.8-4.7 1.5-4.7 1.8-0.1 0.2 0.6 0.5 1.7 0.6 1.1 0 2.7-0.3 4-1.4 1.3-1.1 1.8-2.5 1.9-3.5 0.1-1.1-0.2-1.7-0.3-1.7z"/>
						</g>
						<g id="Group 505">
							<path id="Path 1884" class="s6" d="m509.8 37.5c0.1-0.6 0.6-1.1 1.2-1.5 1.2-0.7 2.6-0.6 4-0.7 3.4 0 6.8-1 9.8-2.5-1-0.6-2-1.2-2.9-2-1.8-1.8-2.8-4.4-2-6.8 0.1-0.4 0.4-0.9 0.8-1 0.7-0.2 1.3 0.4 1.8 1 1.6 1.8 3.1 2.5 5.5 2.2 1.5-0.1 3-0.5 4.1-1.2q0.1-0.1 0.2-0.2 0.8-0.8 1.6-1.7c4-4 7.5-6.9 11-8.3 5.3-2.2 14.1-3.2 19.6-1.8 5.5 1.4 10.5 5.8 11.3 11.4 3.1-2.6 7.7-2.7 11.5-1.2l0.1-0.1c4.2 1.5 6.6 5.9 7.9 10.1q0.1 0.4 0.2 0.7c1.4 2.3 3.3 4.1 5.6 5.4 0.4 0.3 0.9 0.6 1 1 0 0.5-0.4 0.9-0.7 1.1-1 0.8-2.2 1.3-3.4 1.5q0.6 1.5 1.4 2.9c0.5 0.8 1.1 1.7 0.7 2.6-0.3 0.6-1.2 0.9-1.9 0.8-0.7-0.1-1.3-0.5-1.9-0.9q0.7 1.7 1.4 3.4c-1.5 0.2-3.1 0.1-4.5-0.3-0.9 4-1.5 11.4-2.5 14.1-2.8 0.1-3.5-0.2-5 0.3-1.8 0.6-1.1 3.9-3.5 3-1.3-0.5-3.2-5.1-3.6-6.4-2.9-8.3-3.9-17.3-3-26-1.8-1.9-3.9-3.4-6.2-4.4l0.2 0.2c-4.4-1.5-9.4-3-13.6-0.8-3.2 1.6-5.1 5-7.5 7.7-4.5 5.2-9.7 7.9-16.6 8.3-0.5 4.8-0.6 12.6-0.8 17l-3.9-8.8q-0.5-0.8-0.8-1.5l-0.1-0.2c-0.4-0.9-0.8-1.7-1.3-2.5q0 0 0 0c-2.4 2.1-6-1.1-4.1-3.7q0.5-0.8 1.3-1.3c-1.1 1-2.7 1.5-4.2 1.1-1.4-0.4-2.6-1.9-2.4-3.4 0-1 0.7-2 1.7-2.4-2 0.2-4-0.2-5.7-1.2-1.1-0.6-2.2-1.6-1.8-3z"/>
							<path id="Path 1885" class="s15" d="m570.9 26.3c0 0 0.7 0.4 1.6 1.4 0.9 1 2 2.8 2.5 5.2q0.4 1.8 0.4 4c0 1.5-0.1 3-0.2 4.7-0.1 1.6-0.2 3.4 0 5.2q0.1 1.3 0.4 2.7c0.2 0.9 0.4 1.9 1.1 2.6 0.6 0.7 1.5 0.9 2.3 0.8 0.7-0.2 1.4-0.6 1.9-1.2 1-1.2 1.3-2.7 1.5-4h-0.3c0.5 1.2 1.1 2.4 1.9 3.3 0.9 0.9 2 1.6 3.1 1.6 0.6 0.1 1.2 0 1.7-0.3 0.5-0.2 0.8-0.6 1-1.1 0.3-0.4 0.4-0.9 0.4-1.4-0.1-0.4-0.2-0.9-0.6-1.2l-0.1 0.2c1.2 1.3 2.5 2.1 3.4 2.5q0.7 0.3 1.1 0.4 0.3 0.1 0.3 0.1 0 0-0.3-0.2-0.4-0.1-1-0.4c-0.9-0.5-2.2-1.2-3.3-2.6l-0.2 0.2c0.5 0.5 0.6 1.5 0.1 2.3-0.2 0.4-0.5 0.8-1 1-0.4 0.2-0.9 0.3-1.4 0.3-1.1-0.1-2.1-0.7-2.9-1.6-0.8-0.9-1.4-2-1.9-3.2l-0.2-0.5-0.1 0.5c-0.3 1.4-0.5 2.8-1.4 3.9-0.5 0.5-1.1 0.9-1.8 1-0.7 0.2-1.4-0.1-1.9-0.6-0.6-0.7-0.9-1.6-1.1-2.5q-0.3-1.3-0.4-2.7c-0.1-1.7 0-3.4 0.1-5.1 0-1.6 0.1-3.2 0.1-4.7 0-1.4-0.2-2.8-0.5-4-0.5-2.5-1.6-4.3-2.6-5.3-1-1-1.7-1.3-1.7-1.3z"/>
							<path id="Path 1886" class="s15" d="m522.2 42.2q0 0 0.1 0.1 0.2 0.1 0.4 0.3c0.2 0.1 0.4 0.3 0.7 0.4 0.3 0.1 0.6 0.3 1 0.5 1.5 0.7 3.8 1.3 6.7 1.1 3-0.2 6.4-1.2 9.5-3.6 3.2-2.3 5.9-5.7 8.1-9.5 1.2-1.9 2.1-3.9 3.1-5.7 1-1.9 2.1-3.6 3.5-4.9 1.3-1.3 2.9-2.3 4.5-2.8 0.8-0.3 1.6-0.3 2.4-0.3 0.7 0 1.5 0.2 2.2 0.4 1.3 0.4 2.4 1.2 3.3 1.9 0.8 0.8 1.4 1.6 1.8 2.3 0.7 1.5 0.8 2.4 0.8 2.4q0 0 0-0.2 0-0.2-0.1-0.5c0-0.4-0.2-1-0.6-1.7-0.3-0.8-0.9-1.6-1.8-2.4-0.8-0.8-1.9-1.6-3.3-2q-1.1-0.4-2.3-0.5c-0.8 0-1.7 0.1-2.5 0.3-1.7 0.5-3.3 1.5-4.7 2.9-1.4 1.3-2.5 3.1-3.5 4.9-1.1 1.8-2 3.8-3.1 5.7-2.2 3.8-4.9 7.2-8 9.4-3 2.4-6.4 3.5-9.3 3.7-2.9 0.2-5.2-0.4-6.7-1-1.5-0.7-2.2-1.2-2.2-1.2z"/>
							<path id="Path 1887" class="s15" d="m520.7 35.3c0 0 0.2 0.1 0.5 0.4q0.6 0.3 1.7 0.8 1.2 0.5 2.7 0.8c1 0.2 2.2 0.4 3.4 0.4 1.2 0.1 2.4 0 3.4-0.2q1.6-0.3 2.7-0.7 1.1-0.5 1.7-0.8 0.6-0.3 0.6-0.4c0 0-0.9 0.4-2.4 0.9-0.7 0.2-1.6 0.5-2.6 0.6-1.1 0.2-2.2 0.3-3.4 0.3-1.2 0-2.3-0.2-3.3-0.4q-1.5-0.3-2.7-0.7c-1.4-0.6-2.3-1.1-2.3-1z"/>
						</g>
					</g>
					<g id="Group 511">
						<g id="Group 507">
							<path id="Path 1888" class="s11" d="m527.4 525.7l1.1 29.8c0 0-29.9 11.2-30.3 16.7l58-0.1 0.2-46.6-29 0.2z"/>
							<path id="Path 1889" class="s3" d="m546.5 553c1.1 0.3 1.9 1.5 1.6 2.7-0.3 1.1-1.5 1.9-2.7 1.6-1.1-0.3-2.1-1.7-1.7-2.8 0.4-1.1 2-2 3-1.4"/>
							<path id="Path 1890" class="s15" d="m556.2 572.1l-0.2-4.7-55.5 1.9c0 0-2.6 1.1-2.3 2.9l58-0.1z"/>
							<path id="Path 1891" class="s4" d="m527.6 555.2c0 0.3 1.4 0.4 2.8 1.4 1.4 0.8 2.2 2 2.4 1.9 0.3 0-0.1-1.7-1.8-2.8-1.7-1.1-3.5-0.7-3.4-0.5z"/>
							<path id="Path 1892" class="s4" d="m521.5 557.8c0 0.2 1.2 0.7 2.2 1.9 0.9 1.2 1.2 2.5 1.5 2.5 0.3 0 0.4-1.7-0.8-3.1-1.2-1.5-2.9-1.6-2.9-1.3z"/>
							<path id="Path 1893" class="s4" d="m518.1 565c0.2 0.1 0.6-1.3-0.1-2.9-0.7-1.5-2.1-2.1-2.2-1.9-0.1 0.2 0.7 1.1 1.3 2.4 0.6 1.2 0.7 2.4 1 2.4z"/>
							<path id="Path 1894" class="s4" d="m528.1 548.4c0.1 0.3 1.4-0.1 3 0 1.6 0 2.9 0.6 3 0.3 0.2-0.2-1-1.2-2.9-1.3-1.9-0.1-3.2 0.8-3.1 1z"/>
						</g>
						<g id="Group 509">
							<path id="Path 1895" class="s11" d="m597 527.5l1.6 36.1-7 29c-0.5 2 0.9 4.1 3 4.5 1.2 0.2 2.4-0.2 3.2-1 5.4-5.5 24.7-25.7 24.8-27.6 0.1-3.1 1-38.7 1-38.7l-26.6-2.3z"/>
							<path id="Path 1896" class="s15" d="m594.6 597.1l28.1-31.5v1.5c-0.1 1.6-0.4 2.6-1.2 3.6-2.3 2.8-8.6 10.2-23.6 25.3-0.8 0.9-2.1 1.3-3.3 1.1z"/>
							<g id="Group 508" style="opacity: .6">
								<path id="Path 1897" class="s4" d="m615 554.1c-0.9 0.6-1.1 2-0.5 2.9 0.6 0.9 2 1.2 2.9 0.6 0.9-0.7 1.3-2.3 0.5-3.1-0.7-0.9-2.3-1.1-3-0.3"/>
							</g>
							<path id="Path 1898" class="s4" d="m602.5 581.1c-0.2 0.1-1-1.8-3.2-2.7-2.1-1.1-4.1-0.5-4.2-0.7 0-0.1 0.4-0.4 1.3-0.6 0.8-0.1 2 0 3.2 0.5 1.2 0.6 2.1 1.5 2.5 2.2 0.5 0.7 0.5 1.3 0.4 1.3z"/>
							<path id="Path 1899" class="s4" d="m600.1 586c-0.2 0.2-1.4-1-3.3-1.5-1.8-0.5-3.5-0.1-3.5-0.4-0.1-0.1 1.6-0.9 3.7-0.3 2.2 0.5 3.2 2.1 3 2.2z"/>
							<path id="Path 1900" class="s4" d="m607.2 574.8c-0.2 0.2-2-1.6-4.9-2.6-2.8-1.1-5.3-0.9-5.3-1.2-0.1-0.1 2.6-0.7 5.6 0.4 3.1 1.1 4.8 3.3 4.6 3.4z"/>
							<path id="Path 1901" class="s4" d="m607.6 563.8c-0.1 0.2-2.1-0.6-4.7-0.6-2.6-0.1-4.6 0.6-4.7 0.4-0.1-0.2 1.9-1.3 4.7-1.2 2.8 0 4.8 1.2 4.7 1.4z"/>
							<path id="Path 1902" class="s4" d="m607.4 553.2c-0.1 0.2-2.1-1-4.9-0.8-2.7 0.1-4.6 1.5-4.8 1.3 0-0.1 0.4-0.5 1.2-1 0.8-0.5 2.1-1 3.6-1.1 1.4-0.1 2.8 0.3 3.6 0.7 0.9 0.4 1.3 0.8 1.3 0.9z"/>
							<path id="Path 1903" class="s4" d="m602.5 550.4c0 0-0.1-0.5 0-1.4 0-0.9 0.2-2.2 1-3.6 0.3-0.7 0.7-1.5 1.7-2 0.5-0.3 1.3-0.2 1.7 0.3 0.4 0.4 0.6 1 0.6 1.6 0 2.3-1.9 4.5-4.5 4.9-2.6 0.4-4.9-1.1-6-3-0.2-0.5-0.4-1.2-0.1-1.8 0.2-0.6 1-0.9 1.5-0.8 1.1 0.2 1.7 0.8 2.4 1.2 1.2 1 2 2 2.5 2.8 0.5 0.7 0.6 1.2 0.6 1.2-0.1 0.1-1-1.8-3.5-3.5-0.6-0.4-1.3-1-2.1-1-0.4 0-0.7 0.1-0.8 0.4-0.1 0.3 0 0.8 0.2 1.2 0.9 1.6 3 2.9 5.2 2.5 2.2-0.3 3.9-2.3 3.9-4.1 0-0.4-0.1-0.9-0.4-1.1-0.2-0.3-0.6-0.4-0.9-0.2-0.7 0.3-1.2 1-1.5 1.7-1.5 2.7-1.3 4.7-1.4 4.7z"/>
						</g>
						<g id="Group 510">
							<path id="Path 1904" class="s16" d="m509.6 275.9c0 0-5.1 16.8-4.4 37.6 0.3 8 17.9 230.9 17.9 230.9l36.5 1.6-1.4-208.9 3 0.8c0 0 16.1 89.7 17.1 104.2 1 13 13.8 107.7 13.8 107.7l33.2-0.9-5.2-122.1-7.4-119.8-3.2-34.9-99.9 3.8z"/>
							<path id="Path 1905" class="s0" d="m564.9 316.1c0 0-0.6 0.3-1.6 0.8-1 0.4-2.5 1.1-4.6 1.4-1 0.1-2.2 0.1-3.4-0.1-1.2-0.3-2.4-0.9-3.4-1.9-1-1-1.6-2.4-2-3.8-0.4-1.4-0.5-2.9-0.8-4.4-0.9-6.1-1.4-11.6-1.7-15.6-0.2-2-0.3-3.7-0.3-4.8 0-1.1 0-1.7 0-1.7 0.1 0 0.2 0.6 0.3 1.7q0.2 1.9 0.5 4.7c0.4 4 1.1 9.5 2 15.6 0.4 3 0.7 6 2.5 7.8 1.8 1.8 4.3 2.1 6.2 1.9 2-0.2 3.5-0.7 4.6-1.1 1-0.4 1.6-0.6 1.6-0.5z"/>
							<path id="Path 1906" class="s15" d="m555.1 287.4c0 0 0.2-0.2 0.7-0.2 0.5-0.1 1.3 0.1 2.1 0.7 0.7 0.6 1.4 1.6 1.4 2.9 0 1.3-1.1 2.6-2.5 3-1.4 0.5-3 0.1-3.8-1-0.8-1-0.8-2.2-0.5-3.1 0.2-0.9 0.7-1.5 1.1-1.8 0.4-0.3 0.7-0.3 0.8-0.3 0.1 0.1-1.1 0.6-1.4 2.2-0.2 0.8-0.1 1.8 0.6 2.6 0.6 0.8 1.8 1.1 3 0.7 1.1-0.4 1.9-1.3 2-2.3 0-1-0.5-1.9-1.1-2.5-1.2-1.1-2.4-0.8-2.4-0.9z"/>
							<path id="Path 1907" class="s0" d="m612.3 304.8c0 0-0.4 0.1-1.2 0.2-0.8 0-2 0-3.5-0.1-2.9-0.3-6.8-1.1-10.9-3-4-1.9-7.2-4.4-9.2-6.5-1-1.1-1.8-1.9-2.3-2.6-0.5-0.6-0.7-1-0.7-1.1 0.1 0 1.3 1.3 3.4 3.3 2.1 1.9 5.2 4.3 9.2 6.2 3.9 1.8 7.8 2.8 10.6 3.1 2.8 0.4 4.6 0.4 4.6 0.6z"/>
							<path id="Path 1908" class="s0" d="m524.1 286.7c0.1 0-0.6 1.5-2 3.6-1.5 2.2-3.8 5-6.7 7.6-3 2.7-6 4.6-8.3 5.8-2.3 1.2-3.8 1.7-3.8 1.6-0.1-0.1 1.3-0.8 3.5-2.1 2.3-1.3 5.2-3.2 8.1-5.8 2.9-2.6 5.2-5.3 6.7-7.4 1.6-2 2.4-3.4 2.5-3.3z"/>
						</g>
					</g>
					<g id="Group 515">
						<path id="Path 1909" class="s11" d="m473.1 218.9c0 0 0.1-2.3 0.9-3.3 0.9-1 4.8-1.7 4.8-1.7l12.8-19.3 1.2-11.6 7.3-26.6c2.5-11.3 7.6-17.1 14.4-22.8 3.3-2.8 11.4-5.9 11.4-5.9 5.1-0.4-6.7 39.3-7.2 41.7 0 0.5-4.7 51.1-4.7 51.1l-3.1 17.8c0 0-6.1 4.1-11.5 7.7-3.4 2.3-7.7-2.6-7.7-2.6l-18.7-24.5z"/>
						<g id="Group 513">
							<path id="Path 1910" class="s6" d="m594.6 271.6c0 0-0.2 0.1-0.7 0.3q-0.9 0.4-2.2 0.9c-1.9 0.8-4.6 1.8-8.1 2.9-3.4 1.1-7.5 2.3-12.2 3.5-4.7 1.1-9.8 2.2-15.3 3.1-5.4 0.8-10.7 1.4-15.5 1.7-4.7 0.3-9 0.4-12.7 0.4-3.6 0-6.5-0.1-8.5-0.2q-1.5-0.1-2.4-0.2-0.8-0.1-0.8-0.1 0-0.1 0.8-0.1 1 0 2.4 0.1c2 0 4.9 0.1 8.5 0 3.6 0 7.9-0.2 12.7-0.6 4.7-0.3 10-0.9 15.4-1.8 5.5-0.8 10.6-1.9 15.2-3 4.7-1.1 8.8-2.2 12.3-3.3 3.4-1.1 6.2-2 8.1-2.7q1.4-0.4 2.2-0.7 0.8-0.3 0.8-0.2z"/>
							<g id="Group 512">
								<path id="Path 1911" class="s16" d="m524.2 128.3l25.8-8.5c0 0-0.2 8.1 11.4 8.3 13.4 0.3 24.7-11.5 24.7-11.5 0 0 27.9 8.7 33.7 13.4 5.9 4.7-13.2 103.4-13.2 103.4l-1.8 29.3c0 0 2.9 4.8 2.9 9.9 0 5.1 0.2 8.5 0.2 8.5-35.8 10.8-71.2 20.1-103.9 9.7 0 0 0.9-17.4 2.7-22.1 1.9-4.7 1.6-5.1 1.6-5.1l3.1-54.3 0.6-40.8 12.2-40.3z"/>
								<path id="Path 1912" class="s11" d="m620.1 130c0 0 8.8 6 11.3 18.2 2.5 12.3 7.8 83.3 7.8 83.3l-34.1-1.2c0 0-6.8-58.7-6.8-60.1 0-1.3 7.3-30.5 7.8-31.2 0.4-0.7 14-9 14-9z"/>
								<path id="Path 1913" class="s6" d="m613.6 130.7c0.1 0.1-3 1.7-6.1 4.8-3.1 2.9-4.8 6.1-4.9 5.9-0.2 0 1.2-3.4 4.4-6.5 3.2-3.1 6.6-4.4 6.6-4.3z"/>
							</g>
							<path id="Path 1914" class="s13" d="m635.8 231.5v8.5c0 6.3-13.7 72-13.7 72l-20.3-6.8 7.2-63.9 0.3-10.8 26.6 1z"/>
							<path id="Path 1915" class="s11" d="m543.3 125.1c0.4-3 4.5-11.8 4.5-11.8l7.9 10.3 28.3-17 6.9 11.6-22.2 15.4-11.3-1.8-8.7-1.6z"/>
							<path id="Path 1916" class="s6" d="m598.4 167c0.2-0.1 1.4 10.9 2.8 24.4 1.3 13.6 2.2 24.6 2 24.6-0.2 0-1.4-10.9-2.8-24.5-1.3-13.5-2.2-24.5-2-24.5z"/>
							<path id="Path 1917" class="s6" d="m639.2 231.5c0 0-0.3 0.1-0.8 0.1q-0.9 0.1-2.4 0.1c-2.1 0-5.1-0.1-8.8-0.2-3.7-0.1-8.2-0.4-13.1-0.5-1.2 0-2.4 0.1-3.7 0-1.3 0-2.7-0.2-4-1-1.2-0.7-2.1-1.9-2.7-3.2-0.6-1.3-0.9-2.7-1.2-4.1-0.3-1.4-0.4-2.8-0.3-4.3 0.1-0.7 0.2-1.4 0.5-2.1 0.1-0.3 0.3-0.7 0.5-0.9 0.3-0.4 0.7-0.6 1-0.7 0.8-0.2 1.4-0.2 2.1-0.2q1-0.1 1.9-0.1 2-0.1 3.8-0.1c4.9-0.2 9.4-0.1 13.1-0.1 3.6 0.1 6.6 0.1 8.8 0.2q1.4 0 2.4 0.1 0.8 0 0.8 0 0 0.1-0.8 0.1-1 0-2.4 0.1c-2.2 0-5.2 0-8.8 0-3.7 0.1-8.2 0.1-13.1 0.2q-1.8 0.1-3.7 0.2-1 0-2 0.1c-0.6 0-1.3 0-1.9 0.2-1.1 0.3-1.3 1.8-1.5 3.1-0.1 1.3 0 2.7 0.3 4.1 0.3 1.4 0.6 2.7 1.1 3.9 0.6 1.2 1.4 2.3 2.5 2.9 2.2 1.3 4.9 0.8 7.3 1 5 0.1 9.4 0.4 13.1 0.6 3.7 0.2 6.7 0.3 8.8 0.4q1.4 0 2.4 0.1 0.8 0 0.8 0z"/>
							<path id="Path 1918" class="s6" d="m511.3 159c0 0 0 0.3 0 0.9q0 1.1 0 2.8c-0.1 2.4-0.2 5.8-0.4 10-0.3 8.5-0.7 20.3-0.9 33.2-0.3 13-0.3 24.8-0.4 33.3 0 4.2 0 7.6 0 10q0 1.7 0 2.8 0 0.9-0.1 0.9 0 0 0-0.9-0.1-1.1-0.2-2.8c0-2.3-0.1-5.8-0.2-10-0.1-8.5-0.1-20.3 0.1-33.3 0.3-13 0.8-24.7 1.2-33.2 0.2-4.2 0.4-7.7 0.6-10.1q0.1-1.6 0.2-2.7 0.1-0.9 0.1-0.9z"/>
						</g>
						<path id="Path 1919" class="s11" d="m590.6 118.2q0 0-0.5 0.5-0.6 0.5-1.7 1.3c-1.4 1.2-3.5 2.8-6.2 4.8-5.5 3.8-13.3 8.8-22.6 13.2l-0.3 0.2-0.1-0.3q-0.6-0.8-1.1-1.7c-1.8-3-2.9-6.2-3.6-9.3l0.7-0.1c-0.3 2.4-1.4 4.3-2.4 6.1q-1.5 2.7-3.1 5l-0.4 0.4-0.2-0.5c-1.6-4.7-3-8.5-4-11.4q-0.7-1.9-1.1-3.1-0.3-1.1-0.3-1.2 0.1 0 0.5 1.1 0.5 1.2 1.2 3.1c1.1 2.8 2.5 6.7 4.3 11.3l-0.5-0.1c1-1.5 2-3.1 3-4.9 0.9-1.8 2-3.7 2.3-5.8l0.2-2 0.5 1.9c0.6 3.1 1.8 6.2 3.5 9.1 0.4 0.6 0.7 1.2 1.1 1.7l-0.5-0.1c9.3-4.5 17.1-9.3 22.6-13.1 2.7-1.8 4.9-3.4 6.4-4.5q1-0.8 1.7-1.2 0.6-0.5 0.6-0.4z"/>
						<path id="Path 1920" class="s0" d="m549.4 293.5q0 0 0-0.4 0-0.4 0-1.2 0-1.6 0.1-4.5c0.1-4 0.3-9.7 0.4-16.7 0.5-14.1 1.1-33.6 1.8-55.1 0.8-21.4 1.5-40.9 2-55 0.3-7 0.5-12.7 0.7-16.7q0.1-2.9 0.2-4.5 0-0.8 0.1-1.2 0-0.4 0-0.4 0 0 0 0.4 0 0.4 0 1.2 0 1.6 0 4.5c-0.2 4-0.3 9.7-0.5 16.7-0.5 14.1-1.1 33.6-1.8 55.1-0.7 21.5-1.4 40.9-2 55-0.2 7-0.5 12.7-0.6 16.7q-0.2 2.9-0.3 4.6 0 0.7 0 1.1-0.1 0.4-0.1 0.4z"/>
						<path id="Path 1921" class="s6" d="m505.2 205.1c-0.2 0.1-2.1-3.2-5.8-5.6-3.8-2.5-7.6-2.8-7.5-3.1 0 0 0.9-0.1 2.4 0.2 1.5 0.4 3.5 1.1 5.4 2.3 2 1.3 3.5 2.8 4.3 4 0.9 1.3 1.3 2.1 1.2 2.2z"/>
						<path id="Path 1922" class="s6" d="m506.4 232.7c-0.1 0-0.4-1.8-1.4-4.4-0.4-1.4-1.1-2.9-2-4.6-1-1.6-2.1-3.3-3.5-5-1.4-1.7-2.9-3.1-4.4-4.3-1.4-1.2-2.8-2.1-4.1-2.8-2.4-1.5-4.1-2-4.1-2.2 0 0 0.5 0.1 1.2 0.4 0.8 0.2 1.9 0.7 3.2 1.3 1.3 0.7 2.7 1.6 4.3 2.8 1.5 1.2 3 2.6 4.4 4.3 1.4 1.7 2.6 3.5 3.5 5.2 0.9 1.7 1.6 3.3 2 4.7 0.4 1.4 0.7 2.6 0.8 3.4 0.1 0.8 0.2 1.2 0.1 1.2z"/>
						<g id="Group 514">
							<path id="Path 1923" class="s13" d="m591.7 316.3c0 0-3.4 3.5-4.5 5.9-1.2 2.3-2.7 12.3-2.7 12.3 0 0 1.9 1.5 4.8-3.9 2.9-5.4 3.6-8.1 3.6-8.1l-1.2-6.2z"/>
							<path id="Path 1924" class="s13" d="m588.3 334.7l3.2-18.2 10.3-13.2 20.9 4.3-2.8 23c0 0-5.2 8.8-7.1 10.3-1.9 1.4-4.7-0.5-4.7-0.5-2.2 2.3-6.6 0.4-6.6 0.4-2.8 2.2-5.8-1-5.8-1 0 0-3.7 2.2-5 1.7-0.5-0.1-1-0.6-1.3-1.2-1.1-1.7-1.4-3.7-1.1-5.6z"/>
							<path id="Path 1925" class="s14" d="m610.7 336c-0.2-0.1-0.9 0.8-1.6 1.9-0.7 1.2-1.1 2.3-0.9 2.4 0.2 0.1 0.9-0.8 1.6-2 0.7-1.1 1.1-2.2 0.9-2.3z"/>
							<path id="Path 1926" class="s14" d="m605 334.6c-0.2-0.1-0.9 1.4-1.8 3.1-0.9 1.8-1.7 3.2-1.6 3.3 0.2 0.1 1.4-1.1 2.3-2.9 1-1.8 1.3-3.4 1.1-3.5z"/>
							<path id="Path 1927" class="s14" d="m598.3 333.9c-0.2-0.1-0.6 1.3-1.3 2.9-0.6 1.6-1.2 2.9-1 3 0.2 0.1 1.1-1 1.8-2.7 0.6-1.7 0.8-3.2 0.5-3.2z"/>
							<path id="Path 1928" class="s14" d="m590.7 322.2c-0.3 0-1 3.1-1.7 6.9-0.7 3.8-1.1 6.9-0.9 6.9 0.2 0.1 1-3 1.7-6.8 0.7-3.8 1.1-6.9 0.9-7z"/>
							<path id="Path 1929" class="s14" d="m611.8 332.4c-0.1 0.1 0 0.4 0.3 0.7 0.4 0.3 1 0.6 1.7 0.6 0.7 0 1.4-0.3 1.7-0.6 0.3-0.4 0.4-0.7 0.3-0.7-0.1-0.2-0.9 0.5-2 0.5-1.1 0-1.9-0.6-2-0.5z"/>
							<path id="Path 1930" class="s14" d="m604.8 332.2c0 0.1 0.1 0.4 0.5 0.7 0.4 0.3 1.1 0.5 1.8 0.5 0.8 0 1.5-0.2 1.9-0.6 0.4-0.3 0.5-0.5 0.5-0.6-0.2-0.2-1.1 0.4-2.4 0.4-1.2 0-2.1-0.6-2.3-0.4z"/>
							<path id="Path 1931" class="s14" d="m592.3 328.3c-0.1-0.1-0.6 0.4-0.3 1.3 0.4 0.7 1.3 1.4 2.5 1.8 1.2 0.3 2.3 0.2 3-0.1 0.7-0.3 1.1-0.7 1-0.7-0.1-0.2-1.7 0.6-3.8 0-0.9-0.3-1.8-0.9-2.2-1.3-0.3-0.5-0.1-1-0.2-1z"/>
						</g>
					</g>
					<g id="Group 518">
						<path id="Path 1932" class="s13" d="m501.6 229.3c-0.5-1.1-1-2-2-3.2-6.3-7.3-14.9-9.9-14.9-9.9 0 0-4.6 1-10.7 1-4.5 0.1-17.7 0.4-17.7 0.4l-4.9 13.2 10.6 7.5 33.1 2.9c11.5 0.3 8.6-6.8 6.5-11.9z"/>
						<g id="Group 516">
							<path id="Path 1933" class="s17" d="m436.9 217l9.9 0.6c0 0 27.6 14.7 28.6 16.5 1.4 2.7 1 4.3-1.9 3.9-1.6-0.3-14.7-6.6-14.7-6.6l-0.4 1.1c0 0 6.6 6.1 6.6 8 0 1.9-1.6 5.2-4.5 4.1 0 0-1.4 4.1-3.1 4.8-1.6 0.7-3.5 0-3.5 0 0 0-1.1 2.5-3.2 2.5-2.1 0-4.2-1.7-4.2-1.7l-11.1-10.9-13.6-1.4 2.6-22.2 12.5 1.3z"/>
							<path id="Path 1934" class="s18" d="m451.4 245.4c0.2-0.1 0.9 0.6 1.5 1.7 0.6 1 1 1.9 0.8 2-0.1 0.1-0.8-0.6-1.4-1.7-0.6-1-1-1.9-0.9-2z"/>
							<path id="Path 1935" class="s18" d="m456.7 240.6c0.2-0.2 1.1 0.7 2.1 1.8 1.1 1.2 1.9 2.1 1.8 2.3-0.2 0.1-1.2-0.6-2.3-1.8-1.1-1.1-1.7-2.2-1.6-2.3z"/>
						</g>
						<path id="Path 1936" class="s13" d="m461.5 219.4c0 0-9.4-8.5-11-8.7-1.7-0.2-9.4 0.2-11.1 2.2-1.8 2-0.9 11.3-0.6 11.5 0.3 0.1 2.9 0.7 4.3-1.3 1.4-1.9 2.6-6.1 2.6-6.1l1.9 0.6c0 0 1.5 4.4 10.5 5.7l3.4-3.9z"/>
						<g id="Group 517">
							<path id="Path 1937" class="s13" d="m425.2 238.9c0 0-0.4 2.6 1.4 3.5 1.7 0.9 4.3 0 4.3 0l0.6-3.8c0 0-4.8-3.2-6.3 0.4z"/>
							<path id="Path 1938" class="s13" d="m434.9 246.1c0 0-6.1 0.1-5-3.7 1.1-3.8 3.8-6.1 5-6.1 1.2 0 5.1 0 3.6 3.7-1.4 3.7-3.6 6.1-3.6 6.1z"/>
							<path id="Path 1939" class="s13" d="m440.4 248c0 0-6.3 1.6-5.5-1.9 0.8-3.5 3.3-8.4 5.5-7.7 2.3 0.7 4.3 1.7 3.5 3.6-0.7 2-3.5 6-3.5 6z"/>
							<path id="Path 1940" class="s13" d="m448.5 248.4c0 0-1.9 2.4-3.5 2.4-1.5 0-4.6-2.8-4.6-2.8l4.1-7.2c0 0 2.6 0 2.9 2.5 0.4 2.6 0.4 3.5 0.4 3.5l0.8 1.6z"/>
							<path id="Path 1941" class="s14" d="m444.6 241c0.2 0.1-0.7 1.8-1.8 3.8-1.2 2-2.3 3.5-2.5 3.4-0.2-0.1 0.7-1.8 1.8-3.8 1.2-2 2.3-3.5 2.5-3.4z"/>
							<path id="Path 1942" class="s14" d="m439.2 238.6c0.1 0.1-1.2 1.7-2.5 3.8-1.2 2.2-1.9 4.1-2.1 4-0.2 0 0.2-2.1 1.5-4.4 1.3-2.2 3-3.6 3.1-3.4z"/>
							<path id="Path 1943" class="s14" d="m433.7 237.1c0.1 0.2-1.1 1.2-2.2 2.8-1 1.7-1.4 3.2-1.6 3.2-0.2 0-0.1-1.8 1-3.6 1.2-1.7 2.7-2.5 2.8-2.4z"/>
						</g>
					</g>
				</g>
				<g id="Group 533">
					<g id="Group 531">
						<g id="Group 523">
							<g id="Group 522">
								<path id="Path 1944" class="s6" d="m360.2 49.9c3.4 0.2 6.8-2.5 7.4-5.9 0.5-3.4-1.8-7-5.2-7.9 2.1-2.3 2.4-6 0.9-8.6-1.6-2.6-4.9-4.1-7.9-3.5-0.3-3-2.2-5.8-4.9-7.1-2.8-1.3-6.2-1.1-8.7 0.6-3.5-2.7-8.8-2.5-12.2 0.4-2.9-0.4-6 1.3-7.3 4-1.2 2.7-0.5 6.2 1.7 8.2"/>
								<g id="Group 521">
									<g id="Group 520">
										<path id="Path 1945" class="s17" d="m328.5 24.9l1.6-0.1c15.5-0.8 29.1 10.6 31.1 26 1.9 14.4 3.8 30.4 4.1 38.1 0.6 16.1-15.3 19.4-15.3 19.4l2.3 19.2-39 0.7-6.9-69.8c-2.3-16.5 5.5-31.7 22.1-33.5z"/>
										<path id="Path 1946" class="s18" d="m350.1 108.2c0 0-10.2 1.2-21.3-5.1 0 0 5.7 11.6 21.7 9.4l-0.4-4.2z"/>
										<path id="Path 1947" class="s6" d="m354.9 70c-1.3 0-2.3-1-2.3-2.2 0-1.2 1-2.2 2.3-2.2 1.2 0 2.3 1 2.3 2.2 0 1.2-1.1 2.2-2.3 2.2z"/>
										<path id="Path 1948" class="s6" d="m358.2 58.9c-0.3 0.3-2.1-0.9-4.6-0.8-2.4 0.1-4.2 1.5-4.5 1.2-0.1-0.1 0.1-0.7 0.9-1.3 0.8-0.6 2.1-1.2 3.6-1.3 1.5-0.1 2.9 0.4 3.6 1 0.8 0.5 1.1 1.1 1 1.2z"/>
										<path id="Path 1949" class="s6" d="m334 70.9c-1.3 0-2.3-1-2.3-2.2 0-1.2 1-2.2 2.3-2.2 1.2 0 2.3 1 2.3 2.2 0 1.2-1.1 2.2-2.3 2.2z"/>
										<path id="Path 1950" class="s6" d="m333.9 60.5c-0.2 0.4-2-0.8-4.5-0.7-2.5 0.1-4.2 1.4-4.5 1.2-0.1-0.2 0.1-0.7 0.9-1.3 0.7-0.6 2-1.3 3.6-1.3 1.5-0.1 2.8 0.4 3.6 0.9 0.8 0.6 1.1 1.1 0.9 1.3z"/>
										<path id="Path 1951" class="s6" d="m343.8 78.4c0-0.2 1.5-0.5 4-0.9 0.6-0.1 1.2-0.3 1.3-0.7 0.1-0.5-0.2-1.2-0.5-1.9q-1-2.2-2.1-4.7c-2.9-6.7-5.1-12.2-4.8-12.3 0.2-0.1 2.8 5.2 5.8 11.9q1 2.5 2 4.8c0.3 0.7 0.7 1.4 0.4 2.4-0.1 0.5-0.6 0.9-1 1-0.4 0.1-0.7 0.1-1 0.2-2.5 0.2-4.1 0.3-4.1 0.2z"/>
										<path id="Path 1952" class="s6" d="m335.6 50.9c-0.3 0.7-2.4 0.1-5 0.1-2.6 0-4.8 0.6-5.1 0-0.1-0.3 0.3-0.9 1.2-1.4 0.9-0.6 2.3-1.1 3.9-1.1 1.6 0 3 0.5 3.8 1 0.9 0.5 1.3 1.1 1.2 1.4z"/>
										<path id="Path 1953" class="s6" d="m357.8 48.7c-0.5 0.6-2.6 0.1-5 0.2-2.5 0-4.5 0.6-5 0-0.3-0.2 0-0.8 0.9-1.4 0.9-0.6 2.4-1.1 4-1.1 1.7 0 3.2 0.4 4.1 0.9 0.9 0.6 1.2 1.1 1 1.4z"/>
										<path id="Path 1954" class="s6" d="m359.3 43.6c0 0-4.7-9.9-9.7-12-6-2.5-8.2 4-13.9 2.8-5.6-1.3-11.4-3.8-16.9 0.8-6 5.1-2.9 8.2-2.9 15.4-0.2 28.9-5 37.4-7.2 23.8-0.2-1.4-4.4-2.4-5.4-8.7-1.2-8.1-2-18-0.4-23.9 1.3-5 3.9-8.5 8.7-12.4 7.6-6.3 18.4-7 25.8-6.6 7.4 0.4 21.9 8.1 21.9 20.8z"/>
										<path id="Path 1955" class="s17" d="m309.7 74c-0.2-2.5-2.5-4.4-4.9-4-3 0.4-6.2 2.3-5.7 8.5 0.9 10.9 11.7 7.8 11.7 7.4 0-0.2-0.7-7.4-1.1-11.9z"/>
										<path id="Path 1956" class="s18" d="m308 82c0 0-0.1 0.2-0.4 0.3-0.4 0.2-0.9 0.3-1.5 0.2-1.2-0.4-2.3-2.1-2.5-4.1-0.1-1 0-1.9 0.3-2.8 0.3-0.8 0.7-1.4 1.3-1.5 0.6-0.2 1 0.1 1.2 0.4 0.2 0.3 0.1 0.5 0.2 0.5 0 0.1 0.2-0.2 0.1-0.6-0.1-0.2-0.3-0.5-0.5-0.7-0.3-0.2-0.7-0.2-1.1-0.2-0.8 0.2-1.5 1-1.8 1.9-0.4 0.9-0.6 2-0.5 3.1 0.3 2.2 1.6 4.2 3.2 4.5 0.8 0.2 1.4-0.1 1.7-0.4 0.3-0.3 0.4-0.6 0.3-0.6z"/>
									</g>
									<path id="Path 1957" class="s6" d="m308.9 52.7c1.4 0.9 3 1.8 4.7 1.9 1.7 0.1 3.7-1 3.9-2.7 0.1-0.8-0.2-1.7 0.3-2.3 0.6-0.7 1.7-0.5 2.6-0.5 3.2 0.2 6.8-3.5 7.4-6.7 0.9 1.2 2.7 1.5 3.9 0.6 1.2-0.8 1.6-1.3 2.5-2.4 0.9-1.2 2.2-2.2 3.7-2.1 0.8 0.1 1.6 0.5 2.4 0.4 1.4-0.2 2.1-1.9 2.2-3.4 0.2-1.4 0.2-3.1 1.4-3.9 1.1-0.8 2.6-0.5 3.9-0.3 1.4 0.1 3.1-0.3 3.3-1.6 0.2-0.7-0.1-1.4-0.6-2-1.8-2.6-5.6-3.6-8.5-2.3-1.2-3.5-4.7-6.2-8.5-6.4-3.8-0.2-7.6 2.1-9.3 5.5-2.4-2-5.8-2.7-8.8-1.9-3 0.9-5.6 3.2-6.6 6.2-2.7-0.6-5.7 0.6-7.3 2.9-1.6 2.2-1.7 5.5-0.2 7.8-1.9 1.2-3.5 3.3-3.4 5.5 0 2.3 2.4 4.5 4.5 3.8-0.8 1.8 0.1 4.1 1.8 5 1.8 0.9 4.2 0.2 5.2-1.5"/>
									<path id="Path 1958" class="s15" d="m343 28.6q0 0 0 0.2 0 0.2 0 0.6c-0.1 0.5-0.3 1.3-0.7 2.2-0.5 0.8-1.2 1.9-2.3 2.7-1.1 0.8-2.7 1.5-4.5 1.5l0.2-0.3c0.4 1 0.4 2.1-0.1 3.1-0.4 1-1 1.9-1.7 2.8-0.4 0.4-0.7 0.9-1.2 1.3-0.5 0.4-1.1 0.6-1.7 0.7-1.2 0.2-2.6-0.1-3.6-1.1l0.4-0.1c-0.2 2.2-1.3 4.4-3.2 5.9-1 0.8-2.3 1.3-3.5 1.3-1.3 0.1-2.5-0.3-3.6-0.6l0.3-0.1c-0.6 1.4-1.4 2.6-2.5 3.5-1 0.9-2.4 1.5-3.7 1.2-2.7-0.4-4.5-2.5-4.9-4.5l0.2 0.1c-1.2 0.8-2.6 0.9-3.7 0.8-1.2-0.2-2.1-0.6-2.7-1.1-0.7-0.4-1.1-0.9-1.3-1.3q-0.3-0.5-0.3-0.5c0-0.1 0.4 0.8 1.7 1.7 0.6 0.4 1.5 0.8 2.6 0.9 1.1 0.1 2.4 0 3.5-0.8l0.2-0.1 0.1 0.2c0.4 1.9 2.2 3.8 4.6 4.2 1.2 0.2 2.5-0.3 3.4-1.2 1-0.8 1.8-2 2.3-3.3l0.1-0.2 0.2 0.1c1.1 0.3 2.3 0.6 3.5 0.6 1.1-0.1 2.3-0.5 3.2-1.3 1.8-1.4 2.9-3.5 3.1-5.5v-0.6l0.4 0.4c0.8 0.9 2 1.2 3.2 1 0.5-0.1 1-0.3 1.5-0.6 0.4-0.4 0.7-0.8 1.1-1.3 0.7-0.9 1.3-1.7 1.7-2.7 0.4-0.9 0.4-1.9 0.1-2.7l-0.1-0.3h0.3c1.6 0.1 3.1-0.5 4.2-1.3 1.1-0.8 1.8-1.8 2.3-2.6 0.9-1.7 0.8-2.9 0.9-2.9z"/>
								</g>
							</g>
							<path id="Path 1959" class="s6" d="m343.7 86.9c-0.1-0.4-2.8 0.3-5.3-1.5-2.5-1.8-2.9-4.7-3.3-4.7-0.2 0-0.3 0.8-0.1 2 0.3 1.2 1.1 2.8 2.7 3.9 1.5 1.1 3.2 1.3 4.3 1.1 1.2-0.2 1.8-0.7 1.7-0.8z"/>
						</g>
						<path id="Path 1960" class="s17" d="m277.2 162.2c0 0-11.4 63.3-10.8 69.2 0.5 6 3.5 15.4 10.4 17 6.9 1.6 13.2 0 13.2 0l-8.3-77.8z"/>
						<g id="Group 529">
							<g id="Group 528">
								<g id="Group 525">
									<g id="Group 524">
										<path id="Path 1961" class="s11" d="m333.9 514.9l-1.5 35.4c0 0 35.4 13.4 35.7 20l-68.6-0.6 0.1-55.1 34.3 0.3z"/>
										<path id="Path 1962" class="s3" d="m311.2 547.1c-1.4 0.4-2.3 1.9-2 3.2 0.3 1.4 1.8 2.3 3.1 2 1.4-0.3 2.6-2.1 2.1-3.4-0.4-1.3-2.3-2.3-3.5-1.7"/>
										<path id="Path 1963" class="s16" d="m299.5 569.7l0.2-5.5 65.7 2.6c0 0 3.1 1.3 2.7 3.5 0 0-68.6-0.6-68.6-0.6z"/>
										<path id="Path 1964" class="s6" d="m333.5 549.9c0 0.4-1.7 0.5-3.4 1.6-1.6 1-2.5 2.4-2.8 2.3-0.3-0.1 0.2-2.1 2.2-3.3 2-1.3 4.1-0.9 4-0.6z"/>
										<path id="Path 1965" class="s6" d="m340.6 553c0.1 0.3-1.3 0.9-2.5 2.3-1.2 1.3-1.5 2.9-1.8 2.8-0.3 0.1-0.5-1.9 0.9-3.6 1.5-1.7 3.4-1.9 3.4-1.5z"/>
										<path id="Path 1966" class="s6" d="m344.7 561.6c-0.3 0.1-0.8-1.6 0.1-3.4 0.8-1.9 2.4-2.6 2.6-2.3 0.2 0.3-0.9 1.2-1.6 2.8-0.7 1.5-0.8 2.9-1.1 2.9z"/>
										<path id="Path 1967" class="s6" d="m332.9 541.8c-0.1 0.4-1.7-0.1-3.5 0-1.9 0.1-3.4 0.7-3.6 0.4-0.2-0.2 1.3-1.5 3.5-1.6 2.2-0.1 3.8 1 3.6 1.3z"/>
									</g>
									<path id="Path 1968" class="s6" d="m333.8 541.4c0.2 0 0.2 3.3 0.1 8.5l-0.3-0.4c4 1.5 9.4 3.6 15 6.3 6.2 2.9 11.7 5.9 15.2 8.7 1.8 1.4 3.1 2.8 3.8 3.9 0.7 1.1 0.6 1.9 0.5 1.9 0 0-0.1-0.7-0.9-1.7-0.7-1-2.1-2.2-3.9-3.4-3.5-2.6-9-5.5-15.2-8.4-5.6-2.6-10.8-4.8-14.8-6.5l-0.3-0.1v-0.3c0.4-5.2 0.6-8.5 0.8-8.5z"/>
								</g>
								<g id="Group 527">
									<path id="Path 1969" class="s16" d="m289.5 268.6v32l12.7 102.3c0 0-4 47.9-6.5 75-2.1 23.5 1.4 64.4 1.4 64.4h37.4l13.4-136.5 8.3-85.1 15.1-50.5z"/>
									<g id="Group 526">
										<path id="Path 1970" class="s11" d="m355.9 508.8l-9.8 34c0 0 31.3 21.4 30.1 27.8l-66.6-16.6 13.1-53.6 33.2 8.4z"/>
										<path id="Path 1971" class="s3" d="m326.2 534.7c-1.3 0.1-2.6 1.3-2.6 2.7 0 1.4 1.2 2.6 2.6 2.6 1.4 0 2.9-1.4 2.8-2.8-0.2-1.3-1.7-2.8-3-2.4"/>
										<path id="Path 1972" class="s16" d="m309.6 554l1.5-5.4 63.3 18c0 0 2.6 2 1.8 4l-66.6-16.6z"/>
										<path id="Path 1973" class="s3" d="m347.3 542.7c-0.1 0.3-1.8 0.1-3.6 0.7-1.9 0.6-3.1 1.8-3.4 1.6-0.2-0.1 0.7-1.9 3-2.7 2.3-0.7 4.1 0.1 4 0.4z"/>
										<path id="Path 1974" class="s3" d="m353.5 547.3c0 0.4-1.5 0.6-3 1.7-1.4 1-2.1 2.5-2.4 2.4-0.3-0.1-0.1-2 1.7-3.4 1.9-1.3 3.8-1 3.7-0.7z"/>
										<path id="Path 1975" class="s3" d="m355.4 556.7c-0.3 0-0.4-1.7 0.9-3.3 1.3-1.6 3-1.9 3.1-1.6 0.1 0.3-1.1 1-2.1 2.3-1.1 1.3-1.5 2.6-1.9 2.6z"/>
										<path id="Path 1976" class="s6" d="m348.7 534.7c-0.3 0.3-1.6-0.5-3.5-0.9-1.9-0.4-3.4-0.1-3.5-0.4-0.2-0.3 1.5-1.1 3.7-0.7 2.2 0.4 3.5 1.8 3.3 2z"/>
									</g>
									<path id="Path 1977" class="s16" d="m385.8 270.8l1.7 17.4-2.1 126.4-29.6 101.6-7.2 24.6-38.3-7.2 29.5-262.8z"/>
								</g>
							</g>
							<path id="Path 1978" class="s0" d="m384.6 417.3q0 0-0.1 0.6-0.2 0.6-0.5 1.7-0.7 2.4-1.9 6.8c-1.8 6-4.2 14.7-7.4 25.6-6.3 21.8-15.3 52.7-25.8 88.9l-0.1 0.3h-0.3c-12-2.3-24.9-4.7-38.2-7.2l-0.4-0.1 0.1-0.3c2-10.3 4-21.1 6.1-32.1 6.2-32.5 12-63.2 17.1-90v0.1c-6.4-39.7-11.4-71.5-14.3-89.7v0.1c-2.8-5.1-4.9-9-6.4-11.6q-1-2-1.6-3c-0.4-0.7-0.5-1.1-0.5-1.1q0 0 0.6 1 0.5 1 1.7 3c1.4 2.6 3.6 6.5 6.5 11.5v0.1c3 18.2 8.1 49.9 14.6 89.6v0.1c-5.1 26.8-10.9 57.5-17 90.1-2.1 10.9-4.1 21.7-6.1 32l-0.3-0.4c13.3 2.5 26.2 4.9 38.3 7.2l-0.4 0.3c10.6-36.2 19.6-67.1 26-88.9 3.2-10.9 5.8-19.6 7.5-25.5q1.4-4.4 2.1-6.8 0.3-1.1 0.5-1.7 0.2-0.6 0.2-0.6z"/>
							<path id="Path 1979" class="s15" d="m378.9 281.1c0 0-0.6 1.3-2.1 3.1-1.5 1.7-3.8 3.9-6.8 5.8-3 1.8-6 2.9-8.3 3.4-2.2 0.5-3.6 0.5-3.6 0.4-0.1-0.2 5.7-0.8 11.5-4.4 6-3.6 9.1-8.4 9.3-8.3z"/>
						</g>
						<g id="Group 530">
							<path id="Path 1980" class="s11" d="m300.4 129.1c0 0 19 0.3 19.3 24 0.2 23.7-4.9 55.4-4.9 55.4l-48.5-8.6c0 0 6.1-44.1 11.2-56.8 5.2-12.7 15-16.1 22.9-13.9z"/>
							<path id="Path 1981" class="s11" d="m311.5 112.6l-0.6 3.5c0 0-28 17-29.5 21.4-2.2 6.9 2.7 64.8 4.9 81.2 2.2 16.4 2.9 57.9 2.9 57.9-1.6 4.3-2.6 5.6-3.2 11.5-0.6 5.9 2.9 8.5 2.9 8.5 27.9 9.1 65 1.9 101.7-6.5l-0.7-4.9-14.8-118.5c0 0 7.5-27.8-6.9-36.3-1-0.7-15.1-6.5-15.1-6.5l-1-1.8-40.6-9.5z"/>
							<path id="Path 1982" class="s6" d="m280.9 150.6c0 0 0.1 0.3 0.1 0.7q0.1 0.8 0.2 2c0.2 1.8 0.3 4.3 0.5 7.2 0.5 6.3 1 14.7 1.6 24.1 0.6 9.3 1.2 17.8 1.8 23.9 0.3 3 0.5 5.5 0.7 7.3q0 1.2 0.1 2 0.1 0.6 0 0.7 0 0-0.1-0.7-0.2-0.8-0.3-2c-0.3-1.7-0.6-4.2-0.9-7.2-0.7-6.1-1.5-14.6-2.1-24-0.6-9.4-1-17.9-1.3-24-0.1-3-0.2-5.5-0.3-7.3q0-1.2 0-2 0-0.7 0-0.7z"/>
						</g>
						<path id="Path 1983" class="s6" d="m372 280c0 0-0.3 0.1-0.8 0.3q-0.9 0.2-2.3 0.7-1.5 0.5-3.6 1c-1.4 0.4-3 0.9-4.8 1.2-3.6 0.9-8 1.7-12.8 2.4-4.8 0.6-10.2 1.1-15.9 1.2-5.6 0.1-11-0.1-15.9-0.5-4.8-0.5-9.2-1.1-12.8-1.8-1.9-0.3-3.5-0.7-4.9-1q-2.2-0.4-3.7-0.8-1.4-0.4-2.3-0.7-0.8-0.2-0.8-0.2c0-0.1 0.3 0 0.8 0.1q0.9 0.2 2.4 0.5 1.5 0.4 3.6 0.7c1.5 0.3 3.1 0.7 4.9 0.9 3.7 0.7 8 1.2 12.9 1.6 4.8 0.4 10.2 0.6 15.8 0.5 5.6-0.2 11-0.6 15.8-1.2 4.8-0.6 9.2-1.4 12.8-2.2 1.8-0.3 3.4-0.7 4.8-1.1q2.2-0.5 3.7-0.9 1.4-0.4 2.3-0.6 0.7-0.2 0.8-0.1z"/>
					</g>
					<g id="Group 532">
						<path id="Path 1984" class="s17" d="m385.8 171.9l12 37.7 39.1 8-7.9 19.1c0 0-26.7 5.8-35.5 8.1-8.7 2.2-13.8-1.5-20.8-9.1-6.9-7.5-22.8-59.8-22.8-59.8l35.9-4z"/>
						<path id="Path 1985" class="s11" d="m374.6 136.9c-3.3-4.8-10.9-9-16.5-7.2-2.4 0.9-5.4 2.3-7.6 5.4-7.2 10.4-6.9 14.3-4.1 33.6 1.5 10 6 31.3 6 31.3l45.4-11.2c0 0-16.6-37.8-18.3-41.8-0.9-2-3-7.5-4.9-10.1z"/>
						<path id="Path 1986" class="s6" d="m397.8 188.8q0 0-0.8 0.3-0.9 0.2-2.5 0.7c-2.3 0.5-5.5 1.4-9.5 2.4-8.1 2-19.4 4.8-32.5 8.1l-0.3 0.1-0.1-0.4c-1-5.4-2.2-11.2-3.3-17.2-1.7-8.7-3.2-17-4.7-24.6-0.7-3.8-1.1-7.5-0.6-10.9 0.5-3.5 1.9-6.5 3.7-8.8 1.9-2.3 4.1-3.9 6.2-4.9 2.1-1.1 4.1-1.5 5.7-1.7 1.6-0.2 2.9-0.1 3.8 0q0.6 0 0.9 0.1 0.4 0.1 0.4 0.1c0 0-0.5 0-1.3-0.1-0.9 0-2.2-0.1-3.8 0.2-1.6 0.2-3.5 0.7-5.5 1.7-2.1 1-4.2 2.6-6 4.9-1.7 2.3-3.1 5.2-3.6 8.5-0.4 3.4 0 7 0.7 10.8 1.5 7.6 3.1 15.9 4.8 24.6 1.1 6 2.2 11.8 3.3 17.2l-0.5-0.3c13.2-3.1 24.5-5.9 32.6-7.8 4-1 7.2-1.7 9.5-2.3q1.6-0.3 2.6-0.5 0.8-0.2 0.8-0.2z"/>
					</g>
				</g>
			</g>
		</g>
	</g>
</svg>